<?xml version="1.0" encoding="UTF-8"?>
<svg xmlns="http://www.w3.org/2000/svg" xmlns:xlink="http://www.w3.org/1999/xlink" width="24px" height="24px" viewBox="0 0 24 24" version="1.1">
<defs>
<linearGradient id="linear0" gradientUnits="userSpaceOnUse" x1="0" y1="12.85" x2="18.200001" y2="12.85" gradientTransform="matrix(1.142857,0,0,1,0.0457142,0)">
<stop offset="0" style="stop-color:rgb(24.705882%,23.529412%,84.313725%);stop-opacity:1;"/>
<stop offset="1" style="stop-color:rgb(6.666667%,66.27451%,90.196078%);stop-opacity:1;"/>
</linearGradient>
<linearGradient id="linear1" gradientUnits="userSpaceOnUse" x1="2.71" y1="11.24" x2="20.92" y2="11.24" gradientTransform="matrix(1.142857,0,0,1,0.0457142,0)">
<stop offset="0" style="stop-color:rgb(24.705882%,23.529412%,84.313725%);stop-opacity:1;"/>
<stop offset="1" style="stop-color:rgb(6.666667%,66.27451%,90.196078%);stop-opacity:1;"/>
</linearGradient>
</defs>
<g id="surface1">
<path style=" stroke:none;fill-rule:nonzero;fill:url(#linear0);" d="M 14.171875 22.691406 L 14.171875 13.660156 L 19.164062 16.179688 L 15.898438 17.828125 C 15.621094 17.96875 15.53125 18.269531 15.691406 18.5 C 15.792969 18.648438 15.976562 18.75 16.183594 18.75 C 16.285156 18.75 16.378906 18.730469 16.46875 18.679688 L 20.582031 16.601562 C 20.617188 16.589844 20.640625 16.570312 20.664062 16.550781 C 20.664062 16.550781 20.675781 16.550781 20.675781 16.539062 C 20.695312 16.519531 20.71875 16.5 20.742188 16.480469 C 20.753906 16.460938 20.765625 16.449219 20.777344 16.429688 C 20.777344 16.429688 20.777344 16.421875 20.777344 16.410156 C 20.777344 16.398438 20.789062 16.390625 20.800781 16.371094 C 20.800781 16.351562 20.8125 16.328125 20.824219 16.320312 C 20.824219 16.308594 20.824219 16.300781 20.824219 16.289062 C 20.824219 16.269531 20.824219 16.25 20.835938 16.230469 C 20.835938 16.21875 20.835938 16.210938 20.835938 16.199219 C 20.835938 16.179688 20.835938 16.160156 20.835938 16.140625 C 20.835938 16.128906 20.835938 16.109375 20.835938 16.101562 C 20.835938 16.089844 20.835938 16.070312 20.835938 16.058594 C 20.835938 16.058594 20.835938 16.050781 20.835938 16.039062 C 20.835938 16.03125 20.835938 16.011719 20.824219 16 C 20.824219 15.980469 20.8125 15.960938 20.800781 15.949219 C 20.800781 15.949219 20.800781 15.949219 20.800781 15.941406 C 20.800781 15.941406 20.789062 15.929688 20.789062 15.921875 C 20.777344 15.898438 20.765625 15.890625 20.753906 15.871094 C 20.753906 15.859375 20.730469 15.851562 20.71875 15.839844 C 20.707031 15.828125 20.695312 15.820312 20.675781 15.808594 C 20.664062 15.800781 20.640625 15.789062 20.628906 15.78125 C 20.628906 15.78125 20.605469 15.769531 20.59375 15.761719 L 14.195312 12.53125 L 14.195312 5.308594 L 19.1875 7.828125 L 15.921875 9.480469 C 15.644531 9.621094 15.554688 9.921875 15.714844 10.148438 C 15.816406 10.300781 16 10.398438 16.207031 10.398438 C 16.308594 10.398438 16.398438 10.378906 16.492188 10.328125 L 20.605469 8.25 C 20.640625 8.238281 20.664062 8.21875 20.6875 8.199219 C 20.6875 8.199219 20.695312 8.199219 20.695312 8.191406 C 20.71875 8.171875 20.742188 8.148438 20.765625 8.128906 C 20.777344 8.109375 20.789062 8.101562 20.800781 8.078125 C 20.800781 8.078125 20.800781 8.070312 20.800781 8.058594 C 20.800781 8.050781 20.8125 8.03125 20.824219 8.019531 C 20.824219 8 20.835938 7.988281 20.847656 7.96875 C 20.847656 7.960938 20.847656 7.949219 20.847656 7.929688 C 20.847656 7.910156 20.847656 7.890625 20.847656 7.871094 C 20.847656 7.859375 20.847656 7.839844 20.847656 7.828125 C 20.847656 7.808594 20.847656 7.789062 20.847656 7.78125 C 20.847656 7.769531 20.847656 7.75 20.847656 7.738281 C 20.847656 7.71875 20.847656 7.710938 20.835938 7.691406 C 20.835938 7.679688 20.835938 7.660156 20.8125 7.648438 C 20.8125 7.628906 20.800781 7.621094 20.789062 7.601562 C 20.789062 7.601562 20.789062 7.601562 20.789062 7.589844 C 20.789062 7.589844 20.777344 7.578125 20.765625 7.570312 C 20.765625 7.558594 20.742188 7.539062 20.730469 7.53125 C 20.71875 7.519531 20.707031 7.511719 20.695312 7.5 C 20.6875 7.488281 20.675781 7.480469 20.664062 7.46875 C 20.652344 7.460938 20.628906 7.449219 20.617188 7.441406 C 20.617188 7.441406 20.59375 7.429688 20.59375 7.421875 L 13.921875 4.050781 C 13.921875 4.050781 13.898438 4.050781 13.886719 4.039062 C 13.875 4.039062 13.851562 4.03125 13.839844 4.019531 C 13.816406 4.019531 13.804688 4.011719 13.78125 4 C 13.769531 4 13.75 4 13.738281 3.988281 C 13.714844 3.988281 13.691406 3.988281 13.679688 3.988281 C 13.679688 3.988281 13.65625 3.988281 13.644531 3.988281 C 13.644531 3.988281 13.644531 3.988281 13.632812 3.988281 C 13.613281 3.988281 13.601562 3.988281 13.578125 3.988281 C 13.554688 3.988281 13.542969 3.988281 13.519531 3.988281 C 13.519531 3.988281 13.519531 3.988281 13.507812 3.988281 C 13.496094 3.988281 13.484375 3.988281 13.472656 4 C 13.453125 4 13.441406 4.011719 13.417969 4.019531 C 13.394531 4.019531 13.382812 4.039062 13.359375 4.039062 C 13.347656 4.039062 13.335938 4.050781 13.324219 4.058594 C 13.304688 4.070312 13.292969 4.078125 13.28125 4.101562 C 13.28125 4.101562 13.257812 4.121094 13.246094 4.128906 C 13.234375 4.140625 13.222656 4.160156 13.210938 4.171875 C 13.210938 4.179688 13.1875 4.191406 13.175781 4.210938 C 13.175781 4.210938 13.175781 4.210938 13.164062 4.21875 C 13.164062 4.21875 13.164062 4.238281 13.152344 4.25 C 13.152344 4.261719 13.144531 4.28125 13.132812 4.300781 C 13.132812 4.320312 13.121094 4.328125 13.121094 4.351562 C 13.121094 4.371094 13.121094 4.378906 13.109375 4.398438 C 13.109375 4.421875 13.109375 4.429688 13.109375 4.449219 C 13.109375 4.449219 13.109375 4.46875 13.109375 4.480469 L 13.109375 22.449219 L 12.058594 22.980469 L 1.175781 17.46875 L 1.175781 6.53125 L 6.296875 3.941406 C 6.527344 4.078125 6.8125 4.160156 7.109375 4.160156 C 7.886719 4.160156 8.527344 3.601562 8.527344 2.921875 C 8.527344 2.238281 7.886719 1.679688 7.109375 1.679688 C 6.332031 1.679688 5.691406 2.238281 5.691406 2.921875 C 5.691406 2.980469 5.691406 3.039062 5.703125 3.089844 L 0.332031 5.820312 C 0.160156 5.910156 0.046875 6.070312 0.046875 6.25 L 0.046875 17.761719 C 0.046875 17.941406 0.148438 18.101562 0.332031 18.191406 L 11.726562 23.941406 C 11.804688 23.980469 11.910156 24.011719 12.011719 24.011719 C 12.113281 24.011719 12.207031 23.988281 12.296875 23.941406 L 13.898438 23.128906 C 13.898438 23.128906 13.988281 23.070312 14.023438 23.039062 C 14.046875 23.019531 14.058594 23.011719 14.070312 22.988281 C 14.136719 22.910156 14.183594 22.808594 14.183594 22.699219 Z M 14.171875 22.691406 "/>
<path style=" stroke:none;fill-rule:nonzero;fill:url(#linear1);" d="M 23.953125 6.25 C 23.953125 6.070312 23.851562 5.910156 23.667969 5.820312 L 12.285156 0.0703125 C 12.113281 -0.0195312 11.898438 -0.0195312 11.726562 0.0703125 L 10.125 0.878906 C 10.125 0.878906 10.046875 0.929688 10.011719 0.960938 C 10.011719 0.960938 9.988281 0.980469 9.988281 0.980469 C 9.988281 0.988281 9.964844 1 9.953125 1.011719 C 9.886719 1.089844 9.839844 1.199219 9.839844 1.308594 L 9.839844 18.421875 L 4.285156 15.621094 L 4.285156 8.609375 L 8.285156 6.578125 C 8.558594 6.441406 8.652344 6.140625 8.492188 5.910156 C 8.410156 5.800781 8.296875 5.710938 8.148438 5.679688 C 8 5.648438 7.851562 5.660156 7.726562 5.730469 L 3.453125 7.898438 C 3.304688 7.96875 3.210938 8.089844 3.1875 8.230469 C 3.1875 8.230469 3.1875 8.238281 3.1875 8.25 C 3.1875 8.269531 3.1875 8.289062 3.1875 8.320312 C 3.1875 8.320312 3.1875 8.328125 3.1875 8.339844 L 3.1875 15.910156 C 3.1875 16.089844 3.292969 16.25 3.472656 16.339844 L 10.148438 19.710938 C 10.148438 19.710938 10.183594 19.730469 10.207031 19.738281 C 10.238281 19.75 10.261719 19.761719 10.296875 19.769531 C 10.296875 19.769531 10.308594 19.769531 10.320312 19.769531 C 10.355469 19.769531 10.386719 19.769531 10.421875 19.769531 C 10.457031 19.769531 10.492188 19.769531 10.527344 19.769531 C 10.527344 19.769531 10.546875 19.769531 10.546875 19.769531 C 10.582031 19.769531 10.605469 19.761719 10.640625 19.75 C 10.640625 19.75 10.640625 19.75 10.652344 19.75 C 10.675781 19.738281 10.695312 19.730469 10.730469 19.710938 C 10.730469 19.710938 10.742188 19.710938 10.753906 19.699219 C 10.8125 19.671875 10.855469 19.628906 10.890625 19.578125 C 10.890625 19.578125 10.890625 19.570312 10.902344 19.558594 C 10.902344 19.558594 10.902344 19.550781 10.914062 19.539062 C 10.914062 19.539062 10.914062 19.519531 10.925781 19.511719 C 10.925781 19.5 10.9375 19.480469 10.949219 19.460938 C 10.949219 19.441406 10.960938 19.429688 10.960938 19.410156 C 10.960938 19.390625 10.960938 19.378906 10.972656 19.359375 C 10.972656 19.339844 10.972656 19.328125 10.972656 19.308594 C 10.972656 19.308594 10.972656 19.289062 10.972656 19.28125 L 10.972656 1.589844 L 12.023438 1.058594 L 22.847656 6.53125 L 22.847656 9.179688 L 18.101562 11.570312 C 17.929688 11.660156 17.816406 11.820312 17.816406 12 C 17.816406 12.179688 17.921875 12.339844 18.101562 12.429688 L 22.847656 14.820312 L 22.847656 17.46875 L 17.371094 20.230469 C 17.144531 20.078125 16.855469 19.988281 16.539062 19.988281 C 15.761719 19.988281 15.121094 20.550781 15.121094 21.230469 C 15.121094 21.910156 15.761719 22.46875 16.539062 22.46875 C 17.3125 22.46875 17.953125 21.910156 17.953125 21.230469 C 17.953125 21.179688 17.953125 21.128906 17.941406 21.078125 L 23.691406 18.179688 C 23.863281 18.089844 23.976562 17.929688 23.976562 17.75 L 23.976562 14.53125 C 23.976562 14.53125 23.976562 14.519531 23.976562 14.511719 C 23.976562 14.488281 23.976562 14.480469 23.976562 14.460938 C 23.976562 14.441406 23.976562 14.429688 23.976562 14.410156 C 23.976562 14.398438 23.976562 14.378906 23.964844 14.371094 C 23.964844 14.351562 23.953125 14.339844 23.941406 14.320312 C 23.941406 14.308594 23.929688 14.289062 23.921875 14.28125 C 23.921875 14.269531 23.898438 14.25 23.898438 14.238281 C 23.898438 14.230469 23.875 14.210938 23.863281 14.199219 C 23.863281 14.191406 23.839844 14.179688 23.828125 14.171875 C 23.816406 14.160156 23.792969 14.148438 23.78125 14.140625 C 23.769531 14.140625 23.75 14.121094 23.738281 14.109375 C 23.738281 14.109375 23.738281 14.109375 23.726562 14.101562 L 19.542969 11.988281 L 23.726562 9.878906 C 23.726562 9.878906 23.726562 9.878906 23.738281 9.871094 C 23.75 9.871094 23.761719 9.851562 23.78125 9.839844 C 23.792969 9.828125 23.816406 9.820312 23.828125 9.808594 C 23.828125 9.808594 23.851562 9.789062 23.863281 9.78125 C 23.875 9.769531 23.886719 9.75 23.910156 9.738281 C 23.910156 9.730469 23.921875 9.71875 23.929688 9.710938 C 23.929688 9.691406 23.953125 9.679688 23.964844 9.660156 C 23.964844 9.648438 23.976562 9.628906 23.988281 9.621094 C 23.988281 9.609375 23.988281 9.601562 24 9.589844 C 24 9.589844 24 9.589844 24 9.578125 C 24 9.570312 24 9.550781 24 9.53125 C 24 9.511719 24 9.488281 24 9.480469 C 24 9.480469 24 9.480469 24 9.46875 L 24 6.25 Z M 23.953125 6.25 "/>
</g>
</svg>
