<?xml version="1.0" encoding="UTF-8" standalone="no"?>
<svg
   xmlns:dc="http://purl.org/dc/elements/1.1/"
   xmlns:cc="http://creativecommons.org/ns#"
   xmlns:rdf="http://www.w3.org/1999/02/22-rdf-syntax-ns#"
   xmlns:svg="http://www.w3.org/2000/svg"
   xmlns="http://www.w3.org/2000/svg"
   viewBox="0 0 1333.3333 1333.3333"
   height="1333.3333"
   width="1333.3333"
   xml:space="preserve"
   id="svg2"
   version="1.1"><metadata
     id="metadata8"><rdf:RDF><cc:Work
         rdf:about=""><dc:format>image/svg+xml</dc:format><dc:type
           rdf:resource="http://purl.org/dc/dcmitype/StillImage" /></cc:Work></rdf:RDF></metadata><defs
     id="defs6"><clipPath
       id="clipPath18"
       clipPathUnits="userSpaceOnUse"><path
         id="path16"
         d="M 0,1000 H 1000 V 0 H 0 Z" /></clipPath></defs><g
     transform="matrix(1.3333333,0,0,-1.3333333,0,1333.3333)"
     id="g10"><g
       id="g12"><g
         clip-path="url(#clipPath18)"
         id="g14"><g
           transform="translate(194.189,248.0008)"
           id="g20"><path
             id="path22"
             style="fill:#ffffff;fill-opacity:1;fill-rule:nonzero;stroke:none"
             d="m 0,0 c 0,17.968 -7.103,29.668 -21.588,29.668 h -16.573 v -59.331 h 16.573 C -7.103,-29.663 0,-18.244 0,0 M 23.399,0 C 23.259,-31.893 7.383,-51.534 -27.298,-51.67 H -62.535 V 51.674 h 35.237 C 7.383,51.534 23.259,31.757 23.399,0" /></g><path
           id="path24"
           style="fill:#ffffff;fill-opacity:1;fill-rule:nonzero;stroke:none"
           d="m 227.465,272.933 h 24.094 v -76.602 h -24.094 z m 24.093,8.078 h -24.094 v 18.664 h 24.094 z" /><g
           transform="translate(300.7186,220.7029)"
           id="g26"><path
             id="path28"
             style="fill:#ffffff;fill-opacity:1;fill-rule:nonzero;stroke:none"
             d="M 0,0 C 10.029,0.14 15.46,6.684 15.46,15.322 15.46,27.438 8.358,33.01 0,33.426 -6.824,33.846 -14.902,29.387 -15.46,16.575 -16.017,5.155 -8.636,-0.14 0,0 m 40.253,-11.143 c 0,-14.346 -1.95,-23.956 -13.093,-31.893 -8.636,-5.852 -21.032,-7.105 -33.426,-6.549 -8.498,0.421 -19.501,2.926 -29.808,8.914 l 10.029,18.945 c 9.61,-5.432 18.664,-8.358 29.389,-7.245 9.33,1.117 12.534,6.548 12.534,11.564 v 3.342 c -3.62,-3.903 -11.559,-6.549 -19.638,-6.549 -16.435,0 -36.212,11.004 -35.378,36.076 0.977,27.574 17.55,39.554 36.77,38.578 8.08,-0.277 14.208,-3.202 18.246,-7.241 v 5.431 h 24.375 z" /></g><path
           id="path30"
           style="fill:#ffffff;fill-opacity:1;fill-rule:nonzero;stroke:none"
           d="m 352.238,272.933 h 24.094 v -76.602 h -24.094 z m 24.094,8.078 h -24.094 v 18.664 h 24.094 z" /><g
           transform="translate(420.0627,228.504)"
           id="g32"><path
             id="path34"
             style="fill:#ffffff;fill-opacity:1;fill-rule:nonzero;stroke:none"
             d="m 0,0 c 0,-5.852 0.696,-8.638 3.76,-9.75 2.09,-0.697 3.901,-0.557 8.358,0.976 l 4.039,-21.31 c -7.243,-3.342 -18.943,-4.599 -27.16,-1.393 -9.611,3.899 -13.093,12.396 -13.093,27.018 V 22.703 H -36.63 v 21.726 h 12.534 V 71.171 H 0 V 44.429 H 15.6 V 22.703 H 0 Z" /></g><g
           transform="translate(480.9186,216.6642)"
           id="g36"><path
             id="path38"
             style="fill:#ffffff;fill-opacity:1;fill-rule:nonzero;stroke:none"
             d="m 0,0 c 8.217,0 14.486,3.899 16.157,12.396 0.14,0.557 0.278,3.202 0.278,3.759 0,13.092 -6.965,20.337 -15.879,20.337 C -6.965,36.908 -14.902,30.92 -14.902,18.384 -14.902,6.268 -8.496,0 0,0 m 16.991,-20.333 v 6.684 c -4.595,-4.735 -11.838,-7.661 -19.915,-7.661 -20.335,0 -36.77,12.536 -36.074,39.694 0.835,27.438 18.106,40.255 37.049,39.418 8.077,-0.42 14.763,-4.039 18.94,-8.498 v 6.965 h 24.096 v -76.602 z" /></g><path
           id="path40"
           style="fill:#ffffff;fill-opacity:1;fill-rule:nonzero;stroke:none"
           d="m 533.275,301.764 h 24.234 V 196.331 h -24.234 z" /><g
           transform="translate(594.4108,239.7834)"
           id="g42"><path
             id="path44"
             style="fill:#ffffff;fill-opacity:1;fill-rule:nonzero;stroke:none"
             d="m 0,0 v -21.586 h 21.448 c 9.751,-0.14 12.536,4.735 12.536,10.863 C 33.984,-5.011 30.362,0 20.335,0 Z M 0,38.025 V 21.034 h 21.728 c 6.128,0.416 9.749,3.482 9.749,8.634 0,5.015 -3.761,8.357 -10.585,8.357 z M -24.234,-43.453 V 59.891 h 41.505 c 26.046,0 37.187,-9.75 38.44,-24.512 C 56.966,26.742 52.368,16.019 43.595,12.256 54.32,7.385 59.611,-4.875 58.358,-16.711 56.547,-33.842 44.988,-43.453 22.425,-43.453 Z" /></g><path
           id="path46"
           style="fill:#ffffff;fill-opacity:1;fill-rule:nonzero;stroke:none"
           d="m 662.503,301.764 h 24.234 V 196.331 h -24.234 z" /><g
           transform="translate(737.1522,216.5241)"
           id="g48"><path
             id="path50"
             style="fill:#ffffff;fill-opacity:1;fill-rule:nonzero;stroke:none"
             d="m 0,0 c 9.33,0 17.828,5.988 17.828,18.248 0,11.7 -8.498,18.244 -17.828,18.244 -9.054,0 -17.271,-6.544 -17.271,-18.244 C -17.271,5.988 -9.054,0 0,0 m 0.278,-22.007 c -24.374,0 -41.645,16.019 -41.645,40.255 0,25.209 18.802,40.251 41.645,40.251 22.841,0 41.644,-15.042 41.644,-40.251 0,-24.236 -17.27,-40.255 -41.644,-40.255" /></g><g
           transform="translate(827.3892,216.5241)"
           id="g52"><path
             id="path54"
             style="fill:#ffffff;fill-opacity:1;fill-rule:nonzero;stroke:none"
             d="m 0,0 c 8.636,-0.556 17.55,4.319 17.55,18.384 0,12.677 -8.358,18.108 -15.879,18.108 -9.33,0 -16.157,-7.937 -16.157,-20.197 C -14.486,7.661 -9.192,0.556 0,0 m 4.597,-21.31 c -7.939,0 -15.46,3.066 -19.917,7.941 v -6.824 H -39.276 V 83.151 H -15.32 V 49.304 c 4.039,4.459 11.422,8.218 20.614,8.498 C 25.627,58.779 40.671,43.873 40.949,17.688 41.367,-9.33 25.211,-21.31 4.597,-21.31" /></g><g
           transform="translate(538.3225,391.5225)"
           id="g56"><path
             id="path58"
             style="fill:#ffffff;fill-opacity:1;fill-rule:nonzero;stroke:none"
             d="M 0,0 V 181.939 L 87.955,131.158 30.412,97.935 c -4.746,-2.741 -6.376,-8.829 -3.637,-13.572 1.768,-3.065 5.067,-4.968 8.61,-4.968 1.741,0 3.457,0.46 4.963,1.331 l 72.445,41.826 c 0.005,0.003 0.008,0.007 0.013,0.01 0.514,0.298 0.989,0.655 1.442,1.039 0.103,0.088 0.204,0.173 0.302,0.264 0.432,0.396 0.838,0.823 1.197,1.295 0.002,0.003 0.004,0.007 0.006,0.01 0.246,0.324 0.477,0.661 0.682,1.018 0.069,0.119 0.105,0.249 0.168,0.37 0.122,0.234 0.222,0.474 0.325,0.716 0.157,0.365 0.302,0.729 0.413,1.107 0.062,0.212 0.103,0.427 0.151,0.643 0.091,0.411 0.17,0.82 0.208,1.238 0.02,0.227 0.016,0.454 0.022,0.682 0.008,0.4 0.01,0.798 -0.031,1.199 -0.027,0.274 -0.085,0.543 -0.135,0.815 -0.048,0.257 -0.06,0.515 -0.128,0.769 -0.029,0.108 -0.084,0.202 -0.116,0.308 -0.079,0.261 -0.187,0.513 -0.289,0.77 -0.148,0.374 -0.301,0.741 -0.491,1.09 -0.04,0.075 -0.06,0.154 -0.102,0.228 -0.086,0.15 -0.204,0.272 -0.298,0.416 -0.212,0.328 -0.429,0.649 -0.678,0.949 -0.185,0.224 -0.388,0.425 -0.591,0.631 -0.239,0.241 -0.477,0.479 -0.742,0.695 -0.26,0.214 -0.537,0.4 -0.818,0.586 -0.174,0.115 -0.323,0.256 -0.505,0.361 L 0,204.886 V 350.427 L 87.955,299.648 30.412,266.425 c -4.746,-2.74 -6.376,-8.828 -3.637,-13.572 1.768,-3.064 5.067,-4.968 8.61,-4.968 1.741,0 3.457,0.461 4.963,1.331 l 72.445,41.827 c 0.005,0.003 0.008,0.007 0.013,0.01 0.514,0.297 0.989,0.654 1.442,1.039 0.103,0.087 0.204,0.172 0.302,0.263 0.432,0.397 0.838,0.823 1.197,1.295 0.002,0.004 0.004,0.007 0.006,0.011 0.246,0.324 0.477,0.661 0.682,1.018 0.068,0.117 0.101,0.243 0.163,0.361 0.133,0.254 0.24,0.515 0.351,0.779 0.146,0.349 0.289,0.696 0.393,1.054 0.069,0.239 0.112,0.482 0.164,0.725 0.08,0.384 0.158,0.763 0.193,1.149 0.024,0.264 0.017,0.527 0.02,0.792 0.003,0.364 0.008,0.724 -0.028,1.085 -0.029,0.295 -0.092,0.585 -0.148,0.878 -0.064,0.335 -0.126,0.667 -0.224,0.994 -0.085,0.282 -0.199,0.555 -0.31,0.833 -0.136,0.338 -0.275,0.671 -0.448,0.994 -0.051,0.095 -0.077,0.197 -0.131,0.291 -0.095,0.165 -0.224,0.3 -0.328,0.458 -0.191,0.293 -0.386,0.579 -0.609,0.852 -0.203,0.249 -0.424,0.476 -0.649,0.702 -0.223,0.225 -0.447,0.446 -0.694,0.651 -0.276,0.229 -0.57,0.429 -0.869,0.627 -0.167,0.11 -0.307,0.246 -0.483,0.348 L -4.968,376.24 c -0.181,0.105 -0.377,0.164 -0.563,0.256 -0.289,0.144 -0.576,0.283 -0.88,0.399 -0.32,0.123 -0.645,0.215 -0.974,0.304 -0.289,0.077 -0.576,0.152 -0.874,0.204 -0.366,0.063 -0.734,0.09 -1.105,0.111 -0.193,0.012 -0.376,0.058 -0.572,0.058 -0.1,0 -0.194,-0.027 -0.294,-0.03 -0.35,-0.01 -0.696,-0.057 -1.046,-0.105 -0.32,-0.044 -0.639,-0.083 -0.949,-0.157 -0.092,-0.022 -0.186,-0.021 -0.278,-0.046 -0.221,-0.059 -0.419,-0.164 -0.633,-0.237 -0.31,-0.107 -0.62,-0.208 -0.916,-0.344 -0.322,-0.146 -0.622,-0.324 -0.924,-0.503 -0.239,-0.141 -0.479,-0.276 -0.704,-0.436 -0.308,-0.219 -0.589,-0.466 -0.87,-0.719 -0.196,-0.176 -0.392,-0.346 -0.573,-0.537 -0.245,-0.259 -0.464,-0.539 -0.682,-0.826 -0.182,-0.238 -0.361,-0.473 -0.521,-0.728 -0.066,-0.105 -0.153,-0.192 -0.215,-0.3 -0.103,-0.179 -0.158,-0.37 -0.249,-0.553 -0.151,-0.302 -0.295,-0.604 -0.415,-0.922 -0.117,-0.311 -0.208,-0.622 -0.292,-0.938 -0.083,-0.308 -0.158,-0.616 -0.211,-0.934 -0.056,-0.345 -0.084,-0.687 -0.104,-1.033 -0.012,-0.198 -0.06,-0.386 -0.06,-0.588 V 5.605 L -38.324,-5.05 -229.186,105.144 v 220.393 l 90.278,52.124 c 4.054,-2.843 8.976,-4.526 14.292,-4.526 13.767,0 24.969,11.203 24.969,24.971 0,13.769 -11.202,24.97 -24.969,24.97 -13.767,0 -24.97,-11.201 -24.97,-24.97 0,-1.193 0.113,-2.357 0.275,-3.506 l -94.779,-54.722 c -3.064,-1.769 -4.968,-5.067 -4.968,-8.605 V 99.408 c 0,-3.539 1.904,-6.836 4.968,-8.605 L -43.295,-25.126 c 1.509,-0.872 3.227,-1.333 4.971,-1.333 1.744,0 3.463,0.461 4.968,1.331 l 28.213,16.291 c 0.847,0.489 1.557,1.113 2.198,1.789 0.033,0.033 0.062,0.069 0.094,0.102 0.311,0.337 0.609,0.678 0.867,1.05 C -0.754,-4.242 0,-2.215 0,0" /></g><g
           transform="translate(710.7356,722.795)"
           id="g60"><path
             id="path62"
             style="fill:#ffffff;fill-opacity:1;fill-rule:nonzero;stroke:none"
             d="m 0,0 c 0,3.539 -1.905,6.836 -4.968,8.605 l -200.798,115.93 c -3.066,1.771 -6.878,1.772 -9.939,0.001 l -28.211,-16.289 c -0.776,-0.448 -1.445,-1.018 -2.061,-1.637 -0.161,-0.154 -0.304,-0.321 -0.455,-0.485 -0.189,-0.219 -0.38,-0.432 -0.549,-0.666 -1.285,-1.675 -2.08,-3.743 -2.08,-6.012 v -344.788 l -97.892,56.519 v 141.307 l 70.447,40.882 c 4.746,2.741 6.376,8.829 3.637,13.572 -1.328,2.298 -3.471,3.942 -6.038,4.63 -2.564,0.686 -5.243,0.332 -7.541,-0.997 l -75.408,-43.762 c -2.555,-1.474 -4.168,-3.926 -4.722,-6.609 -0.033,-0.145 -0.049,-0.294 -0.074,-0.441 -0.071,-0.438 -0.123,-0.875 -0.134,-1.321 -0.005,-0.128 -0.038,-0.248 -0.038,-0.378 v -152.619 c 0,-3.539 1.904,-6.836 4.968,-8.605 l 117.76,-67.991 c 0.334,-0.194 0.682,-0.358 1.034,-0.511 0.032,-0.014 0.061,-0.032 0.094,-0.046 0.531,-0.223 1.084,-0.384 1.645,-0.512 0.141,-0.032 0.281,-0.058 0.424,-0.084 0.583,-0.106 1.172,-0.18 1.768,-0.18 0.001,0 0.003,0.001 0.004,0.001 0,0 0.001,-0.001 0.002,-0.001 0.004,0 0.007,0.001 0.011,0.001 0.591,0.002 1.17,0.073 1.741,0.177 0.16,0.028 0.318,0.059 0.475,0.095 0.544,0.126 1.079,0.282 1.591,0.496 0.074,0.03 0.14,0.072 0.212,0.104 0.457,0.203 0.892,0.444 1.312,0.713 0.125,0.081 0.249,0.161 0.37,0.247 0.929,0.653 1.743,1.465 2.408,2.411 0.073,0.104 0.142,0.208 0.211,0.315 0.089,0.138 0.191,0.266 0.274,0.409 0.103,0.179 0.158,0.371 0.249,0.553 0.151,0.302 0.295,0.604 0.415,0.923 0.117,0.31 0.208,0.622 0.292,0.938 0.083,0.308 0.158,0.615 0.211,0.934 0.057,0.345 0.084,0.686 0.104,1.032 0.012,0.199 0.06,0.387 0.06,0.588 V 93.804 l 18.452,10.654 190.865,-110.194 v -53.332 l -83.584,-48.258 c -3.063,-1.768 -4.968,-5.066 -4.968,-8.605 0,-3.539 1.905,-6.836 4.968,-8.605 l 83.584,-48.258 v -53.335 l -96.496,-55.712 c -4.117,2.991 -9.163,4.777 -14.63,4.777 -13.767,0 -24.97,-11.201 -24.97,-24.971 0,-13.768 11.203,-24.97 24.97,-24.97 13.77,0 24.972,11.202 24.972,24.97 0,1.051 -0.086,2.08 -0.212,3.097 l 101.27,58.468 c 3.063,1.769 4.968,5.067 4.968,8.606 v 64.807 c 0,0.119 -0.031,0.23 -0.035,0.349 -0.013,0.332 -0.055,0.656 -0.1,0.984 -0.045,0.33 -0.087,0.658 -0.164,0.978 -0.07,0.292 -0.17,0.571 -0.266,0.856 -0.11,0.322 -0.214,0.643 -0.355,0.95 -0.131,0.288 -0.294,0.558 -0.453,0.834 -0.157,0.27 -0.305,0.541 -0.486,0.793 -0.199,0.281 -0.428,0.536 -0.657,0.797 -0.195,0.22 -0.382,0.442 -0.595,0.644 -0.243,0.231 -0.511,0.436 -0.78,0.644 -0.256,0.198 -0.51,0.393 -0.785,0.566 -0.103,0.064 -0.186,0.149 -0.292,0.21 l -73.648,42.521 73.648,42.523 c 0.106,0.06 0.19,0.145 0.293,0.209 0.26,0.163 0.5,0.346 0.743,0.532 0.283,0.215 0.56,0.431 0.816,0.674 0.192,0.181 0.362,0.378 0.539,0.574 0.253,0.281 0.501,0.564 0.72,0.872 0.158,0.222 0.29,0.458 0.43,0.692 0.182,0.307 0.362,0.612 0.51,0.939 0.132,0.288 0.231,0.59 0.335,0.892 0.076,0.219 0.183,0.422 0.244,0.648 0.025,0.095 0.025,0.193 0.048,0.288 0.071,0.3 0.109,0.609 0.152,0.919 0.051,0.362 0.099,0.722 0.11,1.084 0.002,0.095 0.028,0.184 0.028,0.28 z" /></g></g></g></g></svg>