<?xml version="1.0" encoding="UTF-8" standalone="no"?>
<svg
   xmlns:dc="http://purl.org/dc/elements/1.1/"
   xmlns:cc="http://creativecommons.org/ns#"
   xmlns:rdf="http://www.w3.org/1999/02/22-rdf-syntax-ns#"
   xmlns:svg="http://www.w3.org/2000/svg"
   xmlns="http://www.w3.org/2000/svg"
   viewBox="0 0 1333.3333 1333.3333"
   height="1333.3333"
   width="1333.3333"
   xml:space="preserve"
   id="svg2"
   version="1.1"><metadata
     id="metadata8"><rdf:RDF><cc:Work
         rdf:about=""><dc:format>image/svg+xml</dc:format><dc:type
           rdf:resource="http://purl.org/dc/dcmitype/StillImage" /></cc:Work></rdf:RDF></metadata><defs
     id="defs6"><clipPath
       id="clipPath18"
       clipPathUnits="userSpaceOnUse"><path
         id="path16"
         d="M 0,1000 H 1000 V 0 H 0 Z" /></clipPath></defs><g
     transform="matrix(1.3333333,0,0,-1.3333333,0,1333.3333)"
     id="g10"><g
       id="g12"><g
         clip-path="url(#clipPath18)"
         id="g14"><g
           transform="translate(154.6656,415.2183)"
           id="g20"><path
             id="path22"
             style="fill:#ffffff;fill-opacity:1;fill-rule:nonzero;stroke:none"
             d="M 0,0 V 71.712 L 34.668,51.696 11.987,38.601 c -1.871,-1.08 -2.513,-3.479 -1.434,-5.349 0.697,-1.208 1.998,-1.958 3.394,-1.958 0.686,0 1.363,0.181 1.956,0.524 l 28.555,16.486 c 0.002,0.002 0.003,0.003 0.005,0.004 0.202,0.118 0.39,0.258 0.568,0.41 0.041,0.034 0.081,0.068 0.119,0.104 0.171,0.156 0.331,0.324 0.472,0.51 10e-4,0.002 0.002,0.003 0.003,0.004 0.096,0.128 0.187,0.261 0.268,0.401 0.027,0.047 0.042,0.099 0.067,0.146 0.048,0.092 0.087,0.187 0.128,0.283 0.061,0.143 0.119,0.287 0.162,0.436 0.025,0.083 0.041,0.168 0.06,0.253 0.036,0.162 0.067,0.323 0.082,0.488 0.008,0.09 0.006,0.179 0.008,0.269 0.004,0.158 0.004,0.314 -0.012,0.473 -0.01,0.108 -0.033,0.213 -0.053,0.321 -0.019,0.101 -0.024,0.203 -0.05,0.303 -0.012,0.042 -0.033,0.08 -0.046,0.121 -0.031,0.103 -0.074,0.203 -0.114,0.304 -0.058,0.147 -0.119,0.292 -0.194,0.43 -0.015,0.029 -0.023,0.06 -0.04,0.089 -0.034,0.059 -0.08,0.107 -0.117,0.164 -0.084,0.13 -0.169,0.256 -0.267,0.374 -0.073,0.089 -0.153,0.168 -0.234,0.249 -0.094,0.095 -0.188,0.189 -0.292,0.274 -0.102,0.084 -0.212,0.158 -0.322,0.231 -0.069,0.045 -0.128,0.101 -0.199,0.142 L 0,80.756 v 57.366 L 34.668,118.107 11.987,105.012 c -1.871,-1.08 -2.513,-3.479 -1.434,-5.349 0.697,-1.208 1.998,-1.958 3.394,-1.958 0.686,0 1.363,0.181 1.956,0.524 l 28.555,16.486 c 0.002,0.002 0.003,0.003 0.005,0.004 0.202,0.117 0.39,0.258 0.568,0.41 0.041,0.034 0.081,0.068 0.119,0.104 0.171,0.156 0.331,0.324 0.472,0.51 10e-4,0.002 0.002,0.003 0.003,0.004 0.096,0.128 0.187,0.261 0.268,0.401 0.027,0.047 0.04,0.096 0.065,0.143 0.052,0.1 0.094,0.203 0.138,0.307 0.057,0.138 0.114,0.274 0.155,0.415 0.027,0.095 0.044,0.19 0.064,0.286 0.032,0.151 0.063,0.301 0.076,0.453 0.01,0.104 0.007,0.208 0.008,0.312 0.002,0.144 0.004,0.286 -0.011,0.428 -0.011,0.116 -0.036,0.23 -0.058,0.346 -0.025,0.132 -0.05,0.263 -0.088,0.392 -0.034,0.111 -0.079,0.219 -0.123,0.328 -0.053,0.133 -0.108,0.264 -0.176,0.392 -0.02,0.037 -0.03,0.077 -0.052,0.115 -0.037,0.065 -0.088,0.118 -0.129,0.18 -0.075,0.116 -0.152,0.228 -0.24,0.336 -0.08,0.098 -0.167,0.187 -0.256,0.277 -0.088,0.088 -0.176,0.175 -0.273,0.256 -0.109,0.091 -0.225,0.169 -0.343,0.247 -0.066,0.044 -0.121,0.097 -0.19,0.137 l -46.418,26.798 c -0.071,0.041 -0.149,0.065 -0.222,0.101 -0.114,0.057 -0.227,0.112 -0.347,0.157 -0.126,0.049 -0.254,0.085 -0.384,0.12 -0.114,0.03 -0.227,0.06 -0.344,0.08 -0.145,0.025 -0.29,0.036 -0.436,0.044 -0.076,0.005 -0.148,0.023 -0.225,0.023 -0.04,0 -0.077,-0.01 -0.116,-0.011 -0.138,-0.005 -0.275,-0.023 -0.412,-0.042 -0.127,-0.017 -0.252,-0.033 -0.375,-0.062 -0.036,-0.009 -0.073,-0.008 -0.109,-0.018 -0.087,-0.023 -0.165,-0.065 -0.25,-0.094 -0.122,-0.042 -0.244,-0.082 -0.361,-0.135 -0.127,-0.058 -0.245,-0.128 -0.364,-0.198 -0.094,-0.056 -0.188,-0.109 -0.277,-0.172 -0.122,-0.086 -0.233,-0.184 -0.343,-0.284 -0.077,-0.069 -0.155,-0.136 -0.226,-0.211 -0.097,-0.102 -0.183,-0.213 -0.269,-0.326 -0.072,-0.093 -0.142,-0.186 -0.205,-0.287 -0.026,-0.041 -0.06,-0.075 -0.085,-0.118 -0.041,-0.07 -0.062,-0.146 -0.098,-0.218 -0.06,-0.119 -0.116,-0.238 -0.164,-0.363 -0.046,-0.123 -0.082,-0.246 -0.115,-0.37 -0.032,-0.122 -0.062,-0.243 -0.083,-0.368 -0.022,-0.136 -0.033,-0.271 -0.041,-0.407 -0.005,-0.078 -0.023,-0.153 -0.023,-0.232 V 2.209 l -7.273,-4.199 -75.23,43.433 v 86.868 l 35.584,20.545 c 1.598,-1.12 3.538,-1.784 5.633,-1.784 5.426,0 9.842,4.416 9.842,9.843 0,5.427 -4.416,9.842 -9.842,9.842 -5.426,0 -9.842,-4.415 -9.842,-9.842 0,-0.47 0.045,-0.929 0.109,-1.382 l -37.358,-21.569 c -1.207,-0.697 -1.958,-1.997 -1.958,-3.392 v -91.39 c 0,-1.395 0.751,-2.695 1.958,-3.392 l 79.144,-45.694 c 0.595,-0.343 1.272,-0.525 1.96,-0.525 0.687,0 1.364,0.182 1.958,0.525 l 11.12,6.421 c 0.334,0.193 0.613,0.439 0.866,0.705 0.013,0.013 0.025,0.027 0.037,0.04 0.123,0.133 0.24,0.267 0.342,0.414 C -0.297,-1.672 0,-0.873 0,0" /></g><g
           transform="translate(222.6227,545.7904)"
           id="g24"><path
             id="path26"
             style="fill:#ffffff;fill-opacity:1;fill-rule:nonzero;stroke:none"
             d="m 0,0 c 0,1.395 -0.751,2.695 -1.958,3.392 l -79.145,45.694 c -1.209,0.698 -2.711,0.698 -3.918,0 l -11.119,-6.42 c -0.306,-0.177 -0.57,-0.401 -0.812,-0.645 -0.064,-0.061 -0.121,-0.127 -0.18,-0.192 -0.074,-0.086 -0.15,-0.17 -0.216,-0.262 -0.507,-0.66 -0.82,-1.475 -0.82,-2.37 V -96.702 l -38.584,22.277 v 55.697 l 27.766,16.114 c 1.871,1.08 2.513,3.479 1.434,5.349 -0.524,0.906 -1.368,1.554 -2.38,1.825 -1.011,0.27 -2.066,0.131 -2.972,-0.393 l -29.723,-17.249 c -1.007,-0.581 -1.643,-1.547 -1.861,-2.605 -0.013,-0.057 -0.019,-0.116 -0.029,-0.174 -0.028,-0.173 -0.048,-0.345 -0.053,-0.52 -0.002,-0.051 -0.015,-0.098 -0.015,-0.149 v -60.156 c 0,-1.394 0.751,-2.694 1.958,-3.391 l 46.416,-26.799 c 0.132,-0.076 0.269,-0.141 0.407,-0.201 0.013,-0.006 0.024,-0.013 0.037,-0.019 0.21,-0.088 0.428,-0.151 0.649,-0.201 0.055,-0.013 0.111,-0.023 0.167,-0.034 0.23,-0.041 0.462,-0.07 0.697,-0.07 0,0 0.001,0 0.001,0 0.001,0 0.001,0 0.001,0 0.002,0 0.003,0 0.004,0 0.233,0 0.462,0.029 0.687,0.069 0.063,0.012 0.125,0.024 0.187,0.038 0.214,0.05 0.425,0.111 0.627,0.195 0.029,0.012 0.055,0.029 0.084,0.042 0.18,0.08 0.351,0.175 0.517,0.281 0.049,0.031 0.098,0.063 0.146,0.097 0.366,0.257 0.687,0.577 0.949,0.95 0.028,0.041 0.056,0.082 0.083,0.124 0.035,0.055 0.075,0.105 0.108,0.162 0.041,0.07 0.062,0.146 0.098,0.218 0.06,0.119 0.116,0.238 0.164,0.363 0.046,0.123 0.081,0.246 0.115,0.37 0.032,0.121 0.062,0.243 0.083,0.368 0.022,0.136 0.033,0.271 0.041,0.407 0.005,0.078 0.023,0.152 0.023,0.232 V 36.973 l 7.273,4.199 75.231,-43.433 v -21.021 l -32.945,-19.021 c -1.208,-0.697 -1.958,-1.997 -1.958,-3.392 0,-1.394 0.75,-2.694 1.958,-3.391 l 32.945,-19.021 v -21.022 l -38.035,-21.959 c -1.623,1.178 -3.612,1.883 -5.766,1.883 -5.427,0 -9.842,-4.416 -9.842,-9.843 0,-5.427 4.415,-9.842 9.842,-9.842 5.427,0 9.843,4.415 9.843,9.842 0,0.414 -0.034,0.82 -0.084,1.221 l 39.916,23.045 C -0.751,-94.085 0,-92.785 0,-91.39 v 25.544 c 0,0.047 -0.012,0.091 -0.014,0.137 -0.005,0.131 -0.021,0.259 -0.039,0.388 -0.018,0.131 -0.035,0.26 -0.065,0.386 -0.027,0.115 -0.067,0.225 -0.105,0.337 -0.043,0.127 -0.084,0.254 -0.14,0.375 -0.051,0.113 -0.116,0.22 -0.178,0.328 -0.062,0.107 -0.121,0.214 -0.192,0.313 -0.078,0.111 -0.169,0.211 -0.259,0.314 -0.076,0.087 -0.15,0.174 -0.234,0.254 -0.096,0.091 -0.202,0.172 -0.308,0.254 -0.101,0.078 -0.201,0.155 -0.309,0.223 -0.041,0.025 -0.073,0.058 -0.115,0.083 l -29.029,16.759 29.029,16.761 c 0.041,0.024 0.075,0.057 0.115,0.082 0.103,0.065 0.198,0.137 0.293,0.21 0.112,0.085 0.221,0.17 0.322,0.266 0.075,0.071 0.143,0.149 0.212,0.226 0.1,0.111 0.198,0.222 0.284,0.344 0.062,0.087 0.114,0.18 0.17,0.273 0.071,0.121 0.142,0.241 0.201,0.37 0.052,0.113 0.091,0.232 0.132,0.351 0.029,0.087 0.072,0.166 0.096,0.256 0.01,0.037 0.01,0.075 0.019,0.113 0.028,0.118 0.043,0.24 0.06,0.362 0.02,0.143 0.038,0.285 0.043,0.428 10e-4,0.037 0.011,0.072 0.011,0.11 z" /></g><g
           transform="translate(319.7079,500.7881)"
           id="g28"><path
             id="path30"
             style="fill:#ffffff;fill-opacity:1;fill-rule:nonzero;stroke:none"
             d="M 0,0 C 0,16.655 -6.584,27.499 -20.01,27.499 H -35.372 V -27.496 H -20.01 C -6.584,-27.496 0,-16.911 0,0 M 21.689,0 C 21.559,-29.562 6.843,-47.768 -25.303,-47.894 h -32.662 v 95.792 h 32.662 C 6.843,47.768 21.559,29.436 21.689,0" /></g><path
           id="path32"
           style="fill:#ffffff;fill-opacity:1;fill-rule:nonzero;stroke:none"
           d="m 350.552,523.898 h 22.333 v -71.004 h -22.333 z m 22.333,7.487 h -22.333 v 17.3 h 22.333 z" /><g
           transform="translate(418.4521,475.4852)"
           id="g34"><path
             id="path36"
             style="fill:#ffffff;fill-opacity:1;fill-rule:nonzero;stroke:none"
             d="M 0,0 C 9.296,0.13 14.33,6.196 14.33,14.202 14.33,25.433 7.747,30.597 0,30.983 -6.326,31.373 -13.813,27.24 -14.33,15.364 -14.846,4.779 -8.005,-0.13 0,0 m 37.311,-10.329 c 0,-13.297 -1.807,-22.205 -12.136,-29.562 -8.005,-5.424 -19.495,-6.586 -30.983,-6.07 -7.877,0.39 -18.076,2.712 -27.629,8.262 l 9.295,17.561 c 8.908,-5.035 17.301,-7.747 27.242,-6.716 8.648,1.035 11.618,6.07 11.618,10.719 v 3.098 c -3.356,-3.618 -10.715,-6.07 -18.204,-6.07 -15.233,0 -33.565,10.199 -32.791,33.439 0.905,25.559 16.267,36.664 34.082,35.758 7.489,-0.256 13.17,-2.968 16.913,-6.711 v 5.034 h 22.593 z" /></g><path
           id="path38"
           style="fill:#ffffff;fill-opacity:1;fill-rule:nonzero;stroke:none"
           d="m 466.206,523.898 h 22.333 v -71.004 h -22.333 z m 22.333,7.487 h -22.333 v 17.3 h 22.333 z" /><g
           transform="translate(529.0742,482.7162)"
           id="g40"><path
             id="path42"
             style="fill:#ffffff;fill-opacity:1;fill-rule:nonzero;stroke:none"
             d="m 0,0 c 0,-5.424 0.646,-8.007 3.486,-9.038 1.936,-0.645 3.615,-0.516 7.746,0.905 l 3.744,-19.752 c -6.714,-3.098 -17.558,-4.263 -25.175,-1.291 -8.908,3.613 -12.136,11.49 -12.136,25.043 v 25.177 h -11.618 v 20.138 h 11.618 V 65.969 H 0 V 41.182 H 14.46 V 21.044 l -14.46,0 z" /></g><g
           transform="translate(585.4825,471.7417)"
           id="g44"><path
             id="path46"
             style="fill:#ffffff;fill-opacity:1;fill-rule:nonzero;stroke:none"
             d="m 0,0 c 7.617,0 13.427,3.614 14.976,11.49 0.13,0.516 0.258,2.968 0.258,3.484 0,12.136 -6.456,18.851 -14.718,18.851 C -6.456,34.211 -13.813,28.661 -13.813,17.041 -13.813,5.81 -7.875,0 0,0 m 15.749,-18.847 v 6.196 c -4.259,-4.39 -10.972,-7.102 -18.459,-7.102 -18.849,0 -34.083,11.62 -33.438,36.794 0.774,25.432 16.783,37.312 34.341,36.537 7.487,-0.39 13.685,-3.744 17.556,-7.877 v 6.456 h 22.335 v -71.004 z" /></g><path
           id="path48"
           style="fill:#ffffff;fill-opacity:1;fill-rule:nonzero;stroke:none"
           d="m 634.012,550.622 h 22.463 v -97.728 h -22.463 z" /><g
           transform="translate(690.6804,493.1713)"
           id="g50"><path
             id="path52"
             style="fill:#ffffff;fill-opacity:1;fill-rule:nonzero;stroke:none"
             d="m 0,0 v -20.009 h 19.881 c 9.037,-0.129 11.62,4.389 11.62,10.07 C 31.501,-4.645 28.143,0 18.849,0 Z M 0,35.246 V 19.497 h 20.14 c 5.68,0.386 9.036,3.228 9.036,8.002 0,4.649 -3.485,7.747 -9.811,7.747 z m -22.463,-75.523 v 95.791 h 38.472 c 24.142,0 34.469,-9.037 35.63,-22.72 C 52.802,24.787 48.541,14.848 40.409,11.36 50.35,6.845 55.255,-4.519 54.093,-15.49 52.415,-31.369 41.7,-40.277 20.786,-40.277 Z" /></g><path
           id="path54"
           style="fill:#ffffff;fill-opacity:1;fill-rule:nonzero;stroke:none"
           d="m 753.796,550.622 h 22.463 v -97.728 h -22.463 z" /><g
           transform="translate(822.9899,471.6118)"
           id="g56"><path
             id="path58"
             style="fill:#ffffff;fill-opacity:1;fill-rule:nonzero;stroke:none"
             d="M 0,0 C 8.648,0 16.525,5.55 16.525,16.914 16.525,27.759 8.648,33.825 0,33.825 -8.392,33.825 -16.009,27.759 -16.009,16.914 -16.009,5.55 -8.392,0 0,0 m 0.258,-20.398 c -22.593,0 -38.602,14.848 -38.602,37.312 0,23.367 17.428,37.309 38.602,37.309 21.172,0 38.6,-13.942 38.6,-37.309 0,-22.464 -16.007,-37.312 -38.6,-37.312" /></g><g
           transform="translate(906.6321,471.6118)"
           id="g60"><path
             id="path62"
             style="fill:#ffffff;fill-opacity:1;fill-rule:nonzero;stroke:none"
             d="m 0,0 c 8.005,-0.516 16.267,4.003 16.267,17.041 0,11.75 -7.747,16.784 -14.718,16.784 -8.648,0 -14.976,-7.357 -14.976,-18.721 C -13.427,7.101 -8.52,0.516 0,0 m 4.261,-19.753 c -7.359,0 -14.33,2.842 -18.461,7.361 v -6.325 H -36.405 V 77.074 H -14.2 V 45.701 c 3.743,4.133 10.586,7.617 19.107,7.877 C 23.754,54.483 37.698,40.667 37.956,16.395 38.344,-8.648 23.368,-19.753 4.261,-19.753" /></g></g></g></g></svg>