<?xml version="1.0" encoding="UTF-8" standalone="no"?>
<svg
   xmlns:dc="http://purl.org/dc/elements/1.1/"
   xmlns:cc="http://creativecommons.org/ns#"
   xmlns:rdf="http://www.w3.org/1999/02/22-rdf-syntax-ns#"
   xmlns:svg="http://www.w3.org/2000/svg"
   xmlns="http://www.w3.org/2000/svg"
   viewBox="0 0 1333.3333 1333.3333"
   height="1333.3333"
   width="1333.3333"
   xml:space="preserve"
   id="svg2"
   version="1.1"><metadata
     id="metadata8"><rdf:RDF><cc:Work
         rdf:about=""><dc:format>image/svg+xml</dc:format><dc:type
           rdf:resource="http://purl.org/dc/dcmitype/StillImage" /></cc:Work></rdf:RDF></metadata><defs
     id="defs6"><clipPath
       id="clipPath18"
       clipPathUnits="userSpaceOnUse"><path
         id="path16"
         d="M 0,1000 H 1000 V 0 H 0 Z" /></clipPath><linearGradient
       id="linearGradient72"
       spreadMethod="pad"
       gradientTransform="matrix(366.78445,0,0,-366.78445,289.26443,589.83136)"
       gradientUnits="userSpaceOnUse"
       y2="0"
       x2="1"
       y1="0"
       x1="0"><stop
         id="stop68"
         offset="0"
         style="stop-opacity:1;stop-color:#3f3cd7" /><stop
         id="stop70"
         offset="1"
         style="stop-opacity:1;stop-color:#11a9e6" /></linearGradient><linearGradient
       id="linearGradient92"
       spreadMethod="pad"
       gradientTransform="matrix(366.82416,0,0,-366.82416,343.91144,622.22467)"
       gradientUnits="userSpaceOnUse"
       y2="0"
       x2="1"
       y1="0"
       x1="0"><stop
         id="stop88"
         offset="0"
         style="stop-opacity:1;stop-color:#3f3cd7" /><stop
         id="stop90"
         offset="1"
         style="stop-opacity:1;stop-color:#11a9e6" /></linearGradient></defs><g
     transform="matrix(1.3333333,0,0,-1.3333333,0,1333.3333)"
     id="g10"><g
       id="g12"><g
         clip-path="url(#clipPath18)"
         id="g14"><g
           transform="translate(194.189,248.0008)"
           id="g20"><path
             id="path22"
             style="fill:#0d123a;fill-opacity:1;fill-rule:nonzero;stroke:none"
             d="m 0,0 c 0,17.968 -7.103,29.668 -21.588,29.668 h -16.573 v -59.331 h 16.573 C -7.103,-29.663 0,-18.244 0,0 M 23.399,0 C 23.259,-31.893 7.383,-51.534 -27.298,-51.67 H -62.535 V 51.674 h 35.237 C 7.383,51.534 23.259,31.757 23.399,0" /></g><path
           id="path24"
           style="fill:#0d123a;fill-opacity:1;fill-rule:nonzero;stroke:none"
           d="m 227.465,272.933 h 24.094 v -76.602 h -24.094 z m 24.093,8.078 h -24.094 v 18.664 h 24.094 z" /><g
           transform="translate(300.7186,220.7029)"
           id="g26"><path
             id="path28"
             style="fill:#0d123a;fill-opacity:1;fill-rule:nonzero;stroke:none"
             d="M 0,0 C 10.029,0.14 15.46,6.684 15.46,15.322 15.46,27.438 8.358,33.01 0,33.426 -6.824,33.846 -14.902,29.387 -15.46,16.575 -16.017,5.155 -8.636,-0.14 0,0 m 40.253,-11.143 c 0,-14.346 -1.95,-23.956 -13.093,-31.893 -8.636,-5.852 -21.032,-7.105 -33.426,-6.549 -8.498,0.421 -19.501,2.926 -29.808,8.914 l 10.029,18.945 c 9.61,-5.432 18.664,-8.358 29.389,-7.245 9.33,1.117 12.534,6.548 12.534,11.564 v 3.342 c -3.62,-3.903 -11.559,-6.549 -19.638,-6.549 -16.435,0 -36.212,11.004 -35.378,36.076 0.977,27.574 17.55,39.554 36.77,38.578 8.08,-0.277 14.208,-3.202 18.246,-7.241 v 5.431 h 24.375 z" /></g><path
           id="path30"
           style="fill:#0d123a;fill-opacity:1;fill-rule:nonzero;stroke:none"
           d="m 352.238,272.933 h 24.094 v -76.602 h -24.094 z m 24.094,8.078 h -24.094 v 18.664 h 24.094 z" /><g
           transform="translate(420.0627,228.504)"
           id="g32"><path
             id="path34"
             style="fill:#0d123a;fill-opacity:1;fill-rule:nonzero;stroke:none"
             d="m 0,0 c 0,-5.852 0.696,-8.638 3.76,-9.75 2.09,-0.697 3.901,-0.557 8.358,0.976 l 4.039,-21.31 c -7.243,-3.342 -18.943,-4.599 -27.16,-1.393 -9.611,3.899 -13.093,12.396 -13.093,27.018 V 22.703 H -36.63 v 21.726 h 12.534 V 71.171 H 0 V 44.429 H 15.6 V 22.703 H 0 Z" /></g><g
           transform="translate(480.9186,216.6642)"
           id="g36"><path
             id="path38"
             style="fill:#0d123a;fill-opacity:1;fill-rule:nonzero;stroke:none"
             d="m 0,0 c 8.217,0 14.486,3.899 16.157,12.396 0.14,0.557 0.278,3.202 0.278,3.759 0,13.092 -6.965,20.337 -15.879,20.337 C -6.965,36.908 -14.902,30.92 -14.902,18.384 -14.902,6.268 -8.496,0 0,0 m 16.991,-20.333 v 6.684 c -4.595,-4.735 -11.838,-7.661 -19.915,-7.661 -20.335,0 -36.77,12.536 -36.074,39.694 0.835,27.438 18.106,40.255 37.049,39.418 8.077,-0.42 14.763,-4.039 18.94,-8.498 v 6.965 h 24.096 v -76.602 z" /></g><path
           id="path40"
           style="fill:#0d123a;fill-opacity:1;fill-rule:nonzero;stroke:none"
           d="m 533.275,301.764 h 24.234 V 196.331 h -24.234 z" /><g
           transform="translate(594.4108,239.7834)"
           id="g42"><path
             id="path44"
             style="fill:#0d123a;fill-opacity:1;fill-rule:nonzero;stroke:none"
             d="m 0,0 v -21.586 h 21.448 c 9.751,-0.14 12.536,4.735 12.536,10.863 C 33.984,-5.011 30.362,0 20.335,0 Z M 0,38.025 V 21.034 h 21.728 c 6.128,0.416 9.749,3.482 9.749,8.634 0,5.015 -3.761,8.357 -10.585,8.357 z M -24.234,-43.453 V 59.891 h 41.505 c 26.046,0 37.187,-9.75 38.44,-24.512 C 56.966,26.742 52.368,16.019 43.595,12.256 54.32,7.385 59.611,-4.875 58.358,-16.711 56.547,-33.842 44.988,-43.453 22.425,-43.453 Z" /></g><path
           id="path46"
           style="fill:#0d123a;fill-opacity:1;fill-rule:nonzero;stroke:none"
           d="m 662.503,301.764 h 24.234 V 196.331 h -24.234 z" /><g
           transform="translate(737.1522,216.5241)"
           id="g48"><path
             id="path50"
             style="fill:#0d123a;fill-opacity:1;fill-rule:nonzero;stroke:none"
             d="m 0,0 c 9.33,0 17.828,5.988 17.828,18.248 0,11.7 -8.498,18.244 -17.828,18.244 -9.054,0 -17.271,-6.544 -17.271,-18.244 C -17.271,5.988 -9.054,0 0,0 m 0.278,-22.007 c -24.374,0 -41.645,16.019 -41.645,40.255 0,25.209 18.802,40.251 41.645,40.251 22.841,0 41.644,-15.042 41.644,-40.251 0,-24.236 -17.27,-40.255 -41.644,-40.255" /></g><g
           transform="translate(827.3892,216.5241)"
           id="g52"><path
             id="path54"
             style="fill:#0d123a;fill-opacity:1;fill-rule:nonzero;stroke:none"
             d="m 0,0 c 8.636,-0.556 17.55,4.319 17.55,18.384 0,12.677 -8.358,18.108 -15.879,18.108 -9.33,0 -16.157,-7.937 -16.157,-20.197 C -14.486,7.661 -9.192,0.556 0,0 m 4.597,-21.31 c -7.939,0 -15.46,3.066 -19.917,7.941 v -6.824 H -39.276 V 83.151 H -15.32 V 49.304 c 4.039,4.459 11.422,8.218 20.614,8.498 C 25.627,58.779 40.671,43.873 40.949,17.688 41.367,-9.33 25.211,-21.31 4.597,-21.31" /></g></g></g><g
       id="g56"><g
         id="g58"><g
           id="g64"><g
             id="g66"><path
               id="path74"
               style="fill:url(#linearGradient72);stroke:none"
               d="m 388.736,789.628 c 0,-1.192 0.113,-2.357 0.276,-3.505 v 0 L 294.232,731.4 c -3.063,-1.768 -4.968,-5.066 -4.968,-8.605 v 0 -231.865 c 0,-3.539 1.905,-6.836 4.968,-8.605 v 0 L 495.028,366.396 c 1.508,-0.872 3.226,-1.332 4.971,-1.332 v 0 c 1.744,0 3.462,0.46 4.968,1.331 v 0 l 28.213,16.29 c 0.847,0.49 1.556,1.114 2.198,1.79 v 0 c 0.033,0.032 0.061,0.068 0.093,0.101 v 0 c 0.312,0.337 0.61,0.679 0.867,1.051 v 0 c 1.23,1.654 1.984,3.681 1.984,5.895 v 0 181.939 l 87.956,-50.781 -57.544,-33.223 c -4.746,-2.741 -6.376,-8.828 -3.637,-13.571 v 0 c 1.769,-3.066 5.067,-4.968 8.611,-4.968 v 0 c 1.74,0 3.457,0.46 4.962,1.33 v 0 l 72.445,41.827 c 0.005,0.003 0.009,0.007 0.014,0.009 v 0 c 0.513,0.298 0.988,0.656 1.442,1.04 v 0 c 0.103,0.087 0.203,0.173 0.302,0.263 v 0 c 0.432,0.397 0.838,0.823 1.196,1.296 v 0 c 0.002,0.002 0.004,0.006 0.007,0.01 v 0 c 0.246,0.324 0.476,0.661 0.682,1.018 v 0 c 0.068,0.118 0.104,0.249 0.167,0.37 v 0 c 0.123,0.233 0.223,0.474 0.325,0.716 v 0 c 0.157,0.364 0.303,0.729 0.414,1.106 v 0 c 0.062,0.212 0.102,0.428 0.15,0.644 v 0 c 0.092,0.41 0.171,0.819 0.208,1.238 v 0 c 0.02,0.227 0.017,0.453 0.022,0.681 v 0 c 0.008,0.401 0.01,0.798 -0.03,1.2 v 0 c -0.028,0.273 -0.086,0.543 -0.136,0.814 v 0 c -0.048,0.257 -0.06,0.515 -0.127,0.77 v 0 c -0.029,0.107 -0.084,0.201 -0.116,0.308 v 0 c -0.08,0.26 -0.187,0.513 -0.289,0.769 v 0 c -0.148,0.375 -0.302,0.741 -0.492,1.091 v 0 c -0.04,0.074 -0.059,0.154 -0.101,0.227 v 0 c -0.087,0.15 -0.205,0.272 -0.298,0.416 v 0 c -0.213,0.328 -0.429,0.649 -0.678,0.949 v 0 c -0.185,0.225 -0.389,0.426 -0.592,0.632 v 0 c -0.239,0.24 -0.477,0.478 -0.741,0.695 v 0 c -0.26,0.214 -0.538,0.399 -0.819,0.586 v 0 c -0.174,0.115 -0.323,0.256 -0.505,0.361 v 0 l -112.798,65.124 v 145.541 l 87.956,-50.779 -57.544,-33.222 c -4.746,-2.741 -6.376,-8.829 -3.637,-13.572 v 0 c 1.769,-3.065 5.067,-4.968 8.611,-4.968 v 0 c 1.74,0 3.457,0.46 4.962,1.331 v 0 l 72.445,41.826 c 0.005,0.003 0.009,0.008 0.014,0.01 v 0 c 0.513,0.297 0.988,0.655 1.442,1.039 v 0 c 0.103,0.087 0.203,0.173 0.302,0.264 v 0 c 0.432,0.396 0.838,0.822 1.196,1.295 v 0 c 0.002,0.003 0.004,0.007 0.007,0.01 v 0 c 0.246,0.325 0.476,0.661 0.682,1.018 v 0 c 0.068,0.117 0.1,0.243 0.163,0.361 v 0 c 0.132,0.255 0.24,0.516 0.35,0.78 v 0 c 0.147,0.349 0.289,0.695 0.393,1.054 v 0 c 0.07,0.238 0.112,0.481 0.164,0.725 v 0 c 0.08,0.383 0.159,0.763 0.193,1.148 v 0 c 0.025,0.264 0.017,0.527 0.021,0.792 v 0 c 0.003,0.364 0.008,0.725 -0.028,1.085 v 0 c -0.029,0.295 -0.092,0.585 -0.148,0.879 v 0 c -0.065,0.335 -0.126,0.667 -0.224,0.994 v 0 c -0.085,0.281 -0.2,0.555 -0.311,0.832 v 0 c -0.136,0.339 -0.275,0.672 -0.447,0.994 v 0 c -0.051,0.095 -0.077,0.197 -0.131,0.291 v 0 c -0.096,0.165 -0.225,0.301 -0.328,0.459 v 0 c -0.192,0.293 -0.387,0.578 -0.61,0.852 v 0 c -0.203,0.248 -0.423,0.475 -0.648,0.702 v 0 c -0.223,0.225 -0.447,0.445 -0.695,0.651 v 0 c -0.275,0.229 -0.569,0.429 -0.868,0.626 v 0 c -0.168,0.111 -0.308,0.247 -0.484,0.348 v 0 l -117.766,67.989 c -0.181,0.104 -0.377,0.163 -0.563,0.256 v 0 c -0.288,0.144 -0.575,0.283 -0.879,0.399 v 0 c -0.321,0.123 -0.646,0.215 -0.975,0.303 v 0 c -0.289,0.077 -0.575,0.153 -0.874,0.204 v 0 c -0.366,0.063 -0.733,0.091 -1.104,0.111 v 0 c -0.194,0.012 -0.376,0.059 -0.573,0.059 v 0 c -0.1,0 -0.193,-0.027 -0.293,-0.03 v 0 c -0.35,-0.011 -0.697,-0.057 -1.047,-0.106 v 0 c -0.32,-0.044 -0.639,-0.083 -0.948,-0.157 v 0 c -0.093,-0.021 -0.187,-0.021 -0.278,-0.045 v 0 c -0.221,-0.06 -0.419,-0.165 -0.633,-0.238 v 0 c -0.311,-0.106 -0.621,-0.208 -0.916,-0.344 v 0 c -0.323,-0.146 -0.622,-0.324 -0.925,-0.502 v 0 c -0.238,-0.142 -0.478,-0.276 -0.703,-0.436 v 0 c -0.308,-0.219 -0.59,-0.467 -0.871,-0.72 v 0 c -0.195,-0.175 -0.392,-0.345 -0.573,-0.536 v 0 c -0.245,-0.259 -0.464,-0.54 -0.681,-0.826 v 0 c -0.182,-0.238 -0.361,-0.474 -0.521,-0.728 v 0 c -0.067,-0.106 -0.153,-0.192 -0.216,-0.3 v 0 c -0.103,-0.179 -0.158,-0.371 -0.249,-0.554 v 0 c -0.151,-0.301 -0.294,-0.603 -0.415,-0.922 v 0 c -0.117,-0.31 -0.208,-0.622 -0.291,-0.938 v 0 c -0.083,-0.308 -0.159,-0.615 -0.211,-0.934 v 0 c -0.057,-0.345 -0.085,-0.686 -0.105,-1.032 v 0 c -0.012,-0.198 -0.059,-0.386 -0.059,-0.588 v 0 -362.032 L 499.999,386.473 309.136,496.667 v 220.392 l 90.279,52.124 c 4.053,-2.842 8.976,-4.525 14.291,-4.525 v 0 c 13.767,0 24.97,11.202 24.97,24.97 v 0 c 0,13.77 -11.203,24.971 -24.97,24.971 v 0 c -13.767,0 -24.97,-11.201 -24.97,-24.971" /></g></g></g></g><g
       id="g76"><g
         id="g78"><g
           id="g84"><g
             id="g86"><path
               id="path94"
               style="fill:url(#linearGradient92);stroke:none"
               d="M 495.031,847.331 466.82,831.043 c -0.777,-0.449 -1.445,-1.019 -2.061,-1.638 v 0 c -0.161,-0.154 -0.305,-0.321 -0.455,-0.485 v 0 c -0.189,-0.219 -0.38,-0.432 -0.549,-0.666 v 0 c -1.286,-1.674 -2.08,-3.743 -2.08,-6.012 v 0 -344.788 l -97.892,56.519 v 141.308 l 70.446,40.881 c 4.746,2.741 6.377,8.828 3.637,13.572 v 0 c -1.327,2.298 -3.47,3.942 -6.038,4.63 v 0 c -2.564,0.686 -5.242,0.332 -7.54,-0.997 v 0 L 348.88,689.605 c -2.555,-1.475 -4.169,-3.927 -4.723,-6.609 v 0 c -0.032,-0.145 -0.048,-0.294 -0.074,-0.441 v 0 c -0.07,-0.439 -0.122,-0.875 -0.134,-1.321 v 0 c -0.004,-0.127 -0.037,-0.248 -0.037,-0.378 v 0 -152.619 c 0,-3.539 1.904,-6.836 4.968,-8.605 v 0 l 117.76,-67.991 c 0.334,-0.194 0.681,-0.358 1.034,-0.511 v 0 c 0.032,-0.014 0.06,-0.032 0.093,-0.045 v 0 c 0.532,-0.224 1.084,-0.386 1.646,-0.513 v 0 c 0.14,-0.032 0.281,-0.058 0.423,-0.084 v 0 c 0.583,-0.106 1.173,-0.179 1.769,-0.179 v 0 c 10e-4,0 0.002,0 0.003,0 v 0 c 10e-4,0 0.002,0 0.003,0 v 0 c 0.003,0 0.007,10e-4 0.011,10e-4 v 0 c 0.59,0 1.17,0.073 1.74,0.176 v 0 c 0.161,0.029 0.318,0.059 0.475,0.095 v 0 c 0.545,0.126 1.08,0.282 1.592,0.495 v 0 c 0.073,0.031 0.14,0.073 0.212,0.106 v 0 c 0.456,0.202 0.891,0.443 1.311,0.712 v 0 c 0.126,0.081 0.25,0.161 0.371,0.247 v 0 c 0.929,0.653 1.742,1.464 2.408,2.411 v 0 c 0.072,0.104 0.142,0.208 0.21,0.315 v 0 c 0.09,0.139 0.192,0.266 0.275,0.41 v 0 c 0.103,0.179 0.158,0.37 0.249,0.552 v 0 c 0.151,0.303 0.294,0.604 0.415,0.923 v 0 c 0.117,0.31 0.208,0.622 0.292,0.938 v 0 c 0.082,0.308 0.158,0.615 0.21,0.934 v 0 c 0.057,0.345 0.085,0.686 0.105,1.032 v 0 c 0.012,0.199 0.06,0.387 0.06,0.589 v 0 356.355 l 18.452,10.653 190.865,-110.194 V 663.727 L 607.28,615.469 c -3.063,-1.768 -4.968,-5.066 -4.968,-8.604 v 0 c 0,-3.539 1.905,-6.837 4.968,-8.606 v 0 l 83.584,-48.258 v -53.334 l -96.497,-55.713 c -4.116,2.991 -9.163,4.777 -14.629,4.777 v 0 c -13.768,0 -24.971,-11.201 -24.971,-24.971 v 0 c 0,-13.768 11.203,-24.97 24.971,-24.97 v 0 c 13.77,0 24.972,11.202 24.972,24.97 v 0 c 0,1.051 -0.086,2.08 -0.213,3.097 v 0 l 101.27,58.468 c 3.064,1.769 4.968,5.066 4.968,8.605 v 0 64.808 c 0,0.119 -0.03,0.23 -0.035,0.349 v 0 c -0.012,0.332 -0.055,0.657 -0.1,0.984 v 0 c -0.044,0.33 -0.087,0.658 -0.163,0.978 v 0 c -0.071,0.291 -0.171,0.571 -0.267,0.856 v 0 c -0.11,0.323 -0.214,0.643 -0.354,0.95 v 0 c -0.132,0.288 -0.295,0.559 -0.454,0.834 v 0 c -0.157,0.269 -0.305,0.541 -0.485,0.793 v 0 c -0.199,0.281 -0.429,0.536 -0.658,0.797 v 0 c -0.194,0.22 -0.382,0.442 -0.595,0.644 v 0 c -0.243,0.231 -0.51,0.436 -0.779,0.644 v 0 c -0.257,0.198 -0.511,0.393 -0.786,0.566 v 0 c -0.103,0.064 -0.185,0.149 -0.292,0.21 v 0 l -73.647,42.522 73.647,42.522 c 0.107,0.06 0.191,0.145 0.294,0.21 v 0 c 0.259,0.162 0.5,0.345 0.742,0.531 v 0 c 0.284,0.215 0.561,0.432 0.817,0.674 v 0 c 0.191,0.181 0.362,0.378 0.539,0.574 v 0 c 0.253,0.282 0.5,0.563 0.72,0.872 v 0 c 0.158,0.222 0.289,0.458 0.43,0.692 v 0 c 0.181,0.307 0.362,0.612 0.51,0.939 v 0 c 0.132,0.289 0.231,0.59 0.335,0.892 v 0 c 0.076,0.219 0.183,0.422 0.243,0.648 v 0 c 0.026,0.095 0.025,0.192 0.049,0.289 v 0 c 0.071,0.299 0.109,0.608 0.152,0.918 v 0 c 0.05,0.362 0.098,0.721 0.109,1.084 v 0 c 0.003,0.095 0.028,0.185 0.028,0.28 v 0 64.805 c 0,3.539 -1.904,6.837 -4.968,8.605 v 0 L 504.969,847.329 c -1.533,0.887 -3.254,1.33 -4.973,1.33 v 0 c -1.718,0 -3.436,-0.443 -4.965,-1.328" /></g></g></g></g></g></svg>