<?xml version="1.0" encoding="UTF-8"?>
<svg id="_레이어_1" data-name="레이어_1" xmlns="http://www.w3.org/2000/svg" version="1.1" viewBox="0 0 1200 1200">
  <!-- Generator: Adobe Illustrator 29.6.1, SVG Export Plug-In . SVG Version: 2.1.1 Build 9)  -->
  <defs>
    <style>
      .st0 {
        fill: #24333f;
      }

      .st1 {
        fill: #fff;
      }

      .st2 {
        fill: #d90b31;
      }
    </style>
  </defs>
  <rect class="st0" y="0" width="1200" height="1200"/>
  <path class="st1" d="M1001.1,653.3c-30.1-42.5-70.7-72.9-121.6-91.2,46.4-23.8,79.8-60.1,100.3-109.1,11.6-27.5,17.4-57.5,17.4-87.3.1-69.9-25.9-128.9-78.2-176.9-52.1-47.9-115.1-71.9-189-71.9h-80.9c-52.1,0-94.4,42.3-94.4,94.4v60.5h125.5c32.6,0,60.5,9.8,83.5,29.5,25.1,21.6,39.6,54.3,38.4,87.4-1,28.3-11.1,53-30.2,74-23.4,25.8-57.7,39-92.5,39h-180.1V117h-198.4s-147.5,155-147.5,155h147.5v806.9h436.8c90.7,0,164.8-25.8,222.3-77.5,57.5-51.7,86.2-118.1,86.2-199.5s-15.1-106.1-45.3-148.6ZM807,883.6c-27.4,26.9-61.1,40.3-101.3,40.3h-206.1v-275.5h201.9c41.2,0,75.8,13.3,104.1,40,28.3,26.7,42.5,59.6,42.5,98.8s-13.7,69.5-41,96.4Z"/>
  <path class="st2" d="M1007.6,192.5"/>
</svg>