<?xml version="1.0" encoding="UTF-8"?>
<svg id="_레이어_2" data-name="레이어 2" xmlns="http://www.w3.org/2000/svg" viewBox="0 0 432.69 100.26">
  <defs>
    <style>
      .cls-1 {
        fill: #24333f;
      }

      .cls-2 {
        fill: #d90b31;
      }
    </style>
  </defs>
  <g id="_레이어_1-2" data-name="레이어 1">
    <g>
      <path class="cls-1" d="M142.82,92.88c.78,0,.9.61.9,1.71s-.12,1.68-.9,1.68h-24.05v-3.4h24.05ZM135.96,75.48h4.01v11.36c0,1.39-.64,2.21-2.03,2.21h-12.08c-.73,0-1.57-.58-2.18-1.22-.61-.61-1.45-1.63-1.45-2.15v-10.19h4.01v3.4h9.73v-3.4ZM126.23,85.04c0,.49.17.67.67.67h9.06v-3.49h-9.73v2.82Z"/>
      <path class="cls-1" d="M165.98,84.69c0,.44.23.67.64.67h6.45c.67,0,.78.47.78,1.54s-.12,1.6-.78,1.6h-7.26c-.75,0-1.83-.73-2.47-1.37-.61-.64-1.22-1.54-1.22-2.12v-5.11h6.54v-2.15h-6.54v-3.14h8.95c.84,0,1.37.41,1.37,1.31v7.12h-6.45v1.66ZM184.77,96.98c.64,0,.76.67.76,1.66,0,1.07-.12,1.63-.76,1.63h-13.56c-.75,0-1.8-.7-2.41-1.34-.64-.61-1.22-1.51-1.22-2.06v-5.9h3.95v5.37c0,.44.23.64.67.64h12.58ZM181.34,73.8h3.8v17.57c0,.64-.67.78-1.92.78s-1.89-.15-1.89-.78v-8.28h-2.29v7.99c0,.64-.64.78-1.86.78s-1.86-.15-1.86-.78v-17.14h3.72v5.81h2.29v-5.95Z"/>
      <path class="cls-1" d="M209.19,79.49v9.06c0,.44.23.67.64.67h9.61c.67,0,.78.61.78,1.68s-.12,1.71-.78,1.71h-10.57c-.76,0-1.83-.73-2.47-1.36-.61-.64-1.22-1.54-1.22-2.12v-13.04h12.63c.67,0,.78.61.78,1.68s-.12,1.71-.78,1.71h-8.63ZM226.35,98.08c0,.67-.73.84-2.03.84-1.22,0-1.98-.14-1.98-.81v-24.02h4.01v23.99Z"/>
      <path class="cls-1" d="M270.26,92.88c.78,0,.9.61.9,1.71s-.12,1.68-.9,1.68h-24.05v-3.4h24.05ZM258.75,82.4c-1.54,2.44-5.63,5.14-8.16,6.25-.73.32-1.16-.23-1.71-1.05-.67-.99-.76-1.54-.17-1.83,3.08-1.57,5.72-3.4,6.88-5.26.78-1.25.87-2.35.87-3.49v-1.66h4.18v1.77c0,1.19.09,2.12.87,3.34,1.39,1.95,4.53,3.98,6.86,5.08.67.32.58.78.03,1.74-.55.99-.81,1.37-1.57,1.07-2.76-1.07-6.45-3.49-8.07-5.98Z"/>
      <path class="cls-1" d="M313.03,92.88c.78,0,.9.61.9,1.71s-.12,1.68-.9,1.68h-24.05v-3.4h24.05ZM308.64,81.09c.78,0,.9.52.9,1.63s-.12,1.6-.9,1.6h-12.17v1.63c0,.41.15.52.47.52h12.43c.78,0,.9.52.9,1.63s-.12,1.6-.9,1.6h-13.21c-.73,0-1.66-.75-2.29-1.42-.58-.58-1.25-1.42-1.25-2.03v-10.43h16.32c.78,0,.9.52.9,1.63s-.12,1.6-.9,1.6h-12.46v2.06h12.17Z"/>
    </g>
    <path class="cls-1" d="M46.67,30.58c-1.66-2.34-3.89-4.01-6.7-5.02,2.55-1.31,4.39-3.31,5.53-6.01.64-1.52.96-3.17.96-4.81,0-3.85-1.43-7.1-4.3-9.74-2.87-2.64-6.34-3.96-10.41-3.96h-4.45c-2.87,0-5.2,2.33-5.2,5.2v3.33h6.91c1.8,0,3.33.54,4.6,1.63,1.38,1.19,2.18,2.99,2.12,4.81-.06,1.56-.61,2.92-1.66,4.08-1.29,1.42-3.18,2.15-5.09,2.15h-9.92V1.04h-10.93S0,9.58,0,9.58h8.12v44.44h24.05c4.99,0,9.07-1.42,12.24-4.27,3.17-2.84,4.75-6.51,4.75-10.99,0-3.11-.83-5.84-2.49-8.18ZM35.98,43.26c-1.51,1.48-3.37,2.22-5.58,2.22h-11.35v-15.17h11.12c2.27,0,4.18.73,5.73,2.2,1.56,1.47,2.34,3.28,2.34,5.44s-.75,3.83-2.26,5.31Z"/>
    <path class="cls-1" d="M219.19,1.04v53.2h-5.64l-32.66-34.71v34.48h-10.66V.81h5.6l32.66,34.63V1.04h10.69Z"/>
    <path class="cls-2" d="M348.77,50.69c-4.12-2.91-6.33-7.03-6.64-12.36h11.54c.26,2.63,1.39,4.55,3.4,5.77s4.22,1.83,6.64,1.83,4.4-.51,6.08-1.54c1.69-1.03,2.53-2.52,2.53-4.48,0-.9-.19-1.7-.58-2.41-.39-.71-.86-1.31-1.41-1.81-.55-.5-1.4-1.02-2.53-1.54-1.13-.53-2.11-.93-2.93-1.22-.82-.28-2.02-.69-3.59-1.23-3.06-1.06-5.56-2.01-7.49-2.88-1.93-.86-3.77-1.94-5.5-3.22-1.74-1.29-3.01-2.79-3.82-4.52-.81-1.73-1.22-3.75-1.22-6.06,0-4.74,1.79-8.42,5.37-11.06,3.58-2.64,8.33-3.96,14.25-3.96,5.53,0,10.19,1.32,13.96,3.96,3.77,2.64,5.81,6.6,6.12,11.87h-11.24c-.31-2.32-1.31-4.07-2.99-5.25-1.69-1.19-3.66-1.78-5.93-1.78s-4.07.48-5.73,1.45c-1.66.96-2.49,2.42-2.49,4.38,0,.75.1,1.41.31,1.99s.62,1.12,1.26,1.62c.63.5,1.15.89,1.54,1.18s1.18.65,2.34,1.1c1.16.45,1.95.74,2.37.87.43.13,1.37.44,2.84.93,2.57.85,4.61,1.55,6.12,2.11,1.5.55,3.16,1.31,4.96,2.28,1.8.96,3.16,1.98,4.07,3.03.91,1.06,1.7,2.4,2.35,4.04.66,1.63.98,3.48.98,5.54,0,4.89-1.85,8.74-5.54,11.54-3.69,2.8-8.51,4.21-14.46,4.21s-10.82-1.46-14.94-4.36Z"/>
    <path class="cls-2" d="M432.69,10.62h-16.76v43.4h-11.39V10.62h-16.83V1.04h44.98v9.57Z"/>
    <polygon class="cls-1" points="137.4 .73 132.65 .73 106.01 54.02 117.86 54.02 135.02 16.96 152.18 54.02 164.03 54.02 137.4 .73"/>
    <path class="cls-1" d="M90.54,34.25c3.37-1.21,6.06-3.22,8.07-6.02,2.01-2.81,3.01-6.1,3.01-9.88,0-4.99-1.66-9.12-4.98-12.39-3.32-3.27-7.4-4.9-12.24-4.9h-6.85c-2.87,0-5.2,2.33-5.2,5.2v3.72h9.42c2.41,0,4.48.77,6.2,2.29,1.71,1.52,2.74,3.75,2.76,6.04.02,2.41-.87,4.42-2.66,6.03-1.78,1.6-3.95,2.39-6.53,2.39h-12.24V1.04h-10.85v52.97h10.85v-18.73h10.35l12.16,18.73h12.36l-13.63-19.77Z"/>
    <path class="cls-1" d="M243.5,43.75h12.81c4.25,0,8.41-1.51,11.51-4.41,3.45-3.23,5.18-7.17,5.18-11.81s-1.61-8.29-4.83-11.43c-3.22-3.14-7.09-4.71-11.62-4.71h-10v-5.15c0-2.87,2.33-5.2,5.2-5.2h4.8c7.65,0,14.2,2.59,19.65,7.78,5.46,5.19,8.19,11.42,8.19,18.71s-2.73,13.53-8.19,18.75c-5.46,5.21-12.01,7.79-19.65,7.74h-24.44V1.04h11.39v42.7Z"/>
    <polygon class="cls-2" points="295.35 54.02 333.84 54.02 333.84 44.44 306.74 44.44 306.74 31.82 332.26 31.82 332.26 22.78 306.74 22.78 306.74 10.62 333.84 10.62 333.84 1.04 295.35 1.04 295.35 54.02"/>
  </g>
</svg>