<svg xmlns="http://www.w3.org/2000/svg" xml:space="preserve" width="1000px" height="171.445px" x="0px" y="0px" viewBox="0 0 1000 171.445"><g fill="#5C3723"><path d="M852.813 0c-10.254 0-15.693 5.854-15.693 10.073V159.59c0 4.307 5.439 10.244 15.693 10.244 10.273 0 15.732-5.938 15.732-10.244V10.073C868.545 5.996 863.516 0 852.813 0zM986.68 134.99c-11.338 10.635-27.871 12.314-38.877 11.68-16.934-.947-31.475-12.031-31.025-27.314 9.561 6.533 22.188 8.945 31.436 8.945 28.291 0 51.787-13.965 51.787-38.56.029-17.974-16.504-38.54-51.787-38.54-44.141 0-63.906 31.88-63.906 60.127 0 29.316 19.258 60.117 64.072 60.117 24.033 0 41.348-9.932 43.809-23.438 1.092-5.839-2.521-11.298-5.509-13.017zm-38.467-57.051c10.83 0 20.381 3.818 20.381 12.52 0 7.949-9.014 13.877-20.498 13.877-12.109 0-23.682-6.709-27.188-10.176 5.401-11.479 16.738-16.221 27.305-16.221zM65.928 51.201c-14.39 0-23.105 2.754-34.507 11.797v-1.592c0-4.307-5.439-10.205-15.688-10.205C5.464 51.201 0 57.1 0 61.406v98.359c0 4.219 5.464 10.127 15.732 10.127 10.249 0 15.688-5.908 15.688-10.127v-41.787c0-26.743 10.337-40.039 29.097-40.039 12.92 0 17.153 10.854 17.153 21.65v60.176c0 4.043 4.961 10.127 15.62 10.127 10.752 0 15.801-6.084 15.801-10.127v-59.688c.001-34.232-17.67-48.876-43.163-48.876zM309.619 51.201h-21.87V28.623c0-4.253-5.435-10.151-15.625-10.151-10.327 0-15.811 5.898-15.811 10.151v84.6c0 14.141 0 47.285 34.146 55.869 3.145.518 5.767.771 8.047.771 7.114 0 11.172-2.324 14.39-8.32 3.364-6.016 2.236-11.895 1.631-14.092a58.71 58.71 0 0 1-4.219.166c-10.366 0-16.675-3.271-19.819-10.264-2.739-6.23-2.739-14.629-2.739-24.326V75.659h18.945c10.366 0 17.305-8.799 17.305-17.036-.001-4.824-2.311-7.422-14.381-7.422zM674.189 51.201c-17.041 0-45.859 11.182-45.859 55.537v52.852c0 4.307 5.449 10.273 15.742 10.273 10.215 0 15.703-5.967 15.703-10.273v-47.324c0-27.646 5.996-39.277 34.766-39.277.596-2.021 1.719-7.676-1.641-13.765-4.043-7.422-11.162-8.023-18.711-8.023zM240.552 89.741c.015-17.954-16.514-38.54-51.792-38.54-44.146 0-63.906 31.88-63.906 60.127 0 29.316 19.282 60.117 64.102 60.117 24.004 0 41.289-9.932 43.794-23.438 1.099-5.84-2.559-11.289-5.532-13.018-11.304 10.635-27.842 12.314-38.887 11.68-16.904-.947-31.465-12.031-30.986-27.314 9.541 6.533 22.144 8.945 31.416 8.945 28.28.001 51.791-13.964 51.791-38.559zm-79.097 4.439c5.4-11.499 16.724-16.24 27.305-16.24 10.84 0 20.371 3.818 20.371 12.52 0 7.949-9.009 13.877-20.498 13.877-12.1-.001-23.653-6.71-27.178-10.157zM432.715 51.201c-11.807.044-21.143 3.374-28.086 9.058-6.953-5.684-16.313-9.014-28.115-9.058-28.55.073-42.979 19.365-42.979 45.205v63.877c0 3.984 5.181 9.609 14.956 9.609 9.683 0 14.893-5.625 14.893-9.609V95.947c0-10.728 4.575-18.008 13.13-18.008 8.589 0 13.193 7.28 13.193 18.008v64.336c0 3.984 5.181 9.609 14.873 9.609h.078c9.712 0 14.893-5.625 14.893-9.609V95.947c0-10.728 4.595-18.008 13.164-18.008s13.164 7.28 13.164 18.008v64.336c0 3.984 5.151 9.609 14.863 9.609 9.751 0 14.985-5.625 14.985-9.609V96.406c.001-25.84-14.462-45.132-43.012-45.205zM604.98 122.588v-15.537c0-38.438-27.715-55.85-53.438-55.85-35.474 0-60.054 28.12-60.054 61.934 0 36.064 23.125 58.311 52.007 58.311 21.104 0 33.145-8.408 40.918-16.006 2.178 3.809 4.072 6.475 5.879 8.76 3.008 3.574 6.318 5.283 10.186 5.283 2.109 0 4.355-.518 6.729-1.543 4.678-2.021 7.666-4.99 8.652-8.691.996-3.809-.244-7.441-1.758-9.561-5.341-7.979-9.121-19.151-9.121-27.1zm-31.503-12.432c-1.035 19.316-11.797 36.025-30.264 34.307-14.326-1.318-22.813-16.65-20.156-35.547 2.646-18.945 14.492-32.207 29.648-30.977 14.824.821 21.816 13.296 20.772 32.217zM767.92 51.201c-10.82 0-20.41 2.48-28.672 6.787V10.073c0-4.077-5-10.044-15.742-10.044-10.254 0-15.674 5.825-15.674 10.044v103.062c0 36.064 23.125 58.311 52.021 58.311 40.869 0 61.504-31.436 61.504-64.395 0-35.796-21.543-55.85-53.437-55.85zm21.934 58.955c-1.064 19.316-11.826 36.025-30.264 34.307-14.326-1.318-22.822-16.65-20.166-35.547 2.617-18.945 14.473-32.207 29.639-30.977 14.843.821 21.826 13.296 20.791 32.217z"/></g></svg>