<svg xmlns="http://www.w3.org/2000/svg" width="89.377998mm" height="82.899002mm" viewBox="0 0 89.377998 82.899002"><path d="M25.268 14.622c-2.837 0-4.99-2.877-4.99-6.422 0-3.56 2.153-6.433 4.99-6.433 2.843 0 5 2.874 5 6.433 0 3.545-2.157 6.422-5 6.422m0-14.622c-6.139 0-9.82 3.673-9.82 8.2 0 4.526 3.681 8.188 9.82 8.188 6.147 0 9.824-3.662 9.824-8.188 0-4.527-3.677-8.2-9.824-8.2M52.447.607H35.275v1.81h6.144v13.307h4.871V2.416h6.157zM71.174.607H54.002v1.81h6.143v13.307h4.875V2.416h6.154zM79.045 2.383h8.107V.595H75.019c-1.09.042-2.289.458-2.289 2.42v10.272c0 1.962 1.199 2.383 2.29 2.437h12.132v-1.792h-8.107c-1.033-.066-1.463-.503-1.463-1.697V8.141h9.435V6.366h-9.435v-2.29c0-1.203.43-1.635 1.463-1.693M8.536 13.902c-1.024-.058-1.463-.472-1.463-1.667V.607H2.216v12.688c0 1.954 1.2 2.375 2.291 2.429H15.54v-1.822z" style="fill:#e31d1a;fill-opacity:1;fill-rule:nonzero;stroke:none;stroke-width:.352334"/><path d="M29.267 31.478v11.845c0 .455.043.884.13 1.29a5.058 5.058 0 0 0 1.027 2.148c.246.305.529.583.847.831.32.246.672.464 1.054.655.382.19.795.354 1.24.49.45.131.92.231 1.41.299.491.067 1.004.1 1.543.1.534 0 1.046-.033 1.537-.1.49-.068.96-.168 1.407-.3a8.08 8.08 0 0 0 1.242-.489c.383-.19.735-.41 1.055-.655.32-.248.601-.526.848-.831a5.35 5.35 0 0 0 .634-.997c.176-.362.307-.745.394-1.151.087-.406.13-.835.13-1.29V31.478h-4.086v12.404c0 .425-.076.835-.24 1.225-.162.377-.391.71-.68 1.002-.288.287-.622.516-1.008.67-.19.085-.39.148-.595.19a3.207 3.207 0 0 1-1.267 0 2.862 2.862 0 0 1-.591-.19 2.799 2.799 0 0 1-.543-.285 3.335 3.335 0 0 1-.468-.385 3.506 3.506 0 0 1-.688-1.002 2.876 2.876 0 0 1-.188-.6 3.195 3.195 0 0 1-.06-.625V31.478zm-17.715.072c-.192 0-.36.037-.504.108a.944.944 0 0 0-.36.315c-.096.137-.17.29-.218.458a1.93 1.93 0 0 0-.075.545V47.09c0 .199.026.38.075.545a1.6 1.6 0 0 0 .218.457c.097.144.217.25.36.32.144.07.312.104.504.104h6.283a6.738 6.738 0 0 0 2.933-.669 7.869 7.869 0 0 0 2.395-1.818c.342-.379.648-.794.917-1.242a8.915 8.915 0 0 0 1.143-3.042c.098-.552.148-1.12.148-1.708 0-.658-.045-1.282-.136-1.873a9.246 9.246 0 0 0-.414-1.672c-.18-.518-.401-1-.66-1.444a6.998 6.998 0 0 0-.893-1.214 6.437 6.437 0 0 0-1.094-.972c-.398-.28-.83-.52-1.294-.72a7.334 7.334 0 0 0-1.455-.442 8.292 8.292 0 0 0-1.59-.149zm53.632 0 5.925 10.251v6.714h4.345v-6.67l5.587-10.295h-3.177l-4.08 7.87-4.252-7.87zm-17.602.013v2.03h5.168v14.919h4.081V33.594h5.183v-2.031zM15.699 33.57h1.626c.255 0 .505.038.75.117.245.078.485.197.722.36.24.157.466.348.678.57.212.222.411.476.596.759.187.282.354.592.503.932.148.34.277.709.386 1.107.11.396.192.81.247 1.242a10.794 10.794 0 0 1 0 2.65c-.055.42-.136.825-.247 1.22a8.45 8.45 0 0 1-.386 1.102 7.125 7.125 0 0 1-.503.96 5.519 5.519 0 0 1-.596.79 4.337 4.337 0 0 1-.678.606c-.237.172-.477.3-.722.385a2.27 2.27 0 0 1-.75.127l-1.626-.021a1.3 1.3 0 0 1-.552-.11.888.888 0 0 1-.376-.324 1.601 1.601 0 0 1-.216-.579 4.542 4.542 0 0 1-.073-.874v-9.134c0-.343.024-.635.073-.878.048-.242.12-.435.216-.58a.873.873 0 0 1 .376-.32c.156-.071.34-.107.552-.107zm-3.388 21.166c-.232 0-.457.046-.688.109-.237.08-.44.22-.62.43-.183.197-.325.483-.444.836-.109.35-.164.813-.164 1.347v14.219h4.077v-8.484h7.913V61.22h-7.913V58.63c0-.34.026-.632.075-.877.05-.245.123-.444.218-.594a.883.883 0 0 1 .374-.334c.155-.074.341-.11.556-.11H22.5v-1.977zm38.34 0c-.222 0-.448.046-.68.109-.228.08-.435.22-.618.43-.184.197-.327.483-.44.836-.115.35-.172.813-.172 1.347v11.496c0 .561.057 1.016.173 1.362.112.343.255.625.44.83.182.203.39.341.617.415.232.077.458.116.68.116h10.202v-1.975h-6.81a1.3 1.3 0 0 1-.56-.112.912.912 0 0 1-.381-.335 1.593 1.593 0 0 1-.22-.587 4.679 4.679 0 0 1-.072-.887v-4.588h7.92V61.22h-7.92V58.63c0-.34.024-.632.072-.877.048-.245.122-.444.22-.594a.906.906 0 0 1 .38-.334c.158-.074.345-.11.562-.11h6.809v-1.977zm18.531 0a2.66 2.66 0 0 0-.69.109c-.232.08-.435.22-.615.43-.179.197-.329.483-.442.836-.112.35-.174.813-.174 1.347v11.496c0 .561.062 1.016.174 1.362.113.343.263.625.442.83.18.203.383.341.616.415.23.077.46.116.69.116h10.193v-1.975h-6.81c-.216 0-.401-.038-.558-.112a.943.943 0 0 1-.384-.335 1.682 1.682 0 0 1-.217-.587 4.555 4.555 0 0 1-.076-.887v-4.588h7.927V61.22h-7.927V58.63c0-.34.027-.632.076-.877.05-.245.122-.444.217-.594.1-.15.228-.26.384-.334.157-.074.342-.11.558-.11h6.81v-1.977zm-38.158.016c-.223 0-.45.034-.684.104a1.515 1.515 0 0 0-.617.416c-.181.2-.33.477-.443.829-.108.36-.168.804-.168 1.357v14.255H33.2v-6.986h1.502c.439 0 .889.04 1.332.127.447.08.86.23 1.239.46a2.9 2.9 0 0 1 .538.41c.164.157.313.334.448.53.137.203.247.436.332.7.085.262.144.555.18.878.043.503.09.93.13 1.28.036.364.07.678.106.97.036.284.068.563.104.81.031.254.068.531.116.82h4.352l-.523-3.289a17.761 17.761 0 0 0-.364-1.643 6.07 6.07 0 0 0-.629-1.485 3.697 3.697 0 0 0-.443-.591 3.125 3.125 0 0 0-.532-.46 1.773 1.773 0 0 0-.638-.283 2.47 2.47 0 0 0-.765-.046c.317-.023.613-.071.889-.146.276-.076.532-.179.771-.313.238-.127.454-.273.65-.439.195-.165.37-.351.524-.558.156-.205.292-.423.41-.655.117-.232.216-.48.299-.743a6.012 6.012 0 0 0 .231-1.683c0-.34-.027-.683-.07-1.045a4.387 4.387 0 0 0-.266-1.056 3.838 3.838 0 0 0-.582-.971 3.309 3.309 0 0 0-1.002-.804 5.43 5.43 0 0 0-1.503-.545c-.6-.143-1.309-.205-2.13-.205zm3.39 1.976h1.779c.306 0 .585.018.839.054a3.028 3.028 0 0 1 1.236.44c.164.104.308.222.432.355.125.131.231.274.319.428.087.154.156.32.208.495.097.348.149.724.149 1.118 0 .28-.02.54-.06.78-.04.24-.101.459-.182.658a2.26 2.26 0 0 1-.305.534 2.032 2.032 0 0 1-.43.413c-.16.119-.342.223-.546.312-.204.09-.43.163-.678.222-.495.119-1.077.177-1.745.177H33.2v-4.072c0-.346.023-.641.07-.886.046-.245.117-.44.211-.585a.88.88 0 0 1 .38-.335c.155-.073.34-.108.553-.108z" style="fill:#fff;fill-opacity:1;fill-rule:evenodd;stroke:#fff;stroke-width:.696;stroke-miterlimit:4;stroke-dasharray:none;stroke-opacity:1"/><path d="M75.454 41.846v6.67H71.11v-6.714L65.184 31.55h4.348l4.253 7.87 4.079-7.87h3.177zm3.922 14.867h-6.81c-.431 0-.742.147-.942.445-.189.301-.292.792-.292 1.471v2.593h7.926v1.972h-7.926v4.588c0 .688.103 1.185.292 1.474.2.298.51.447.942.447h6.81v1.975H69.183c-.23 0-.46-.039-.69-.115a1.382 1.382 0 0 1-.616-.416c-.179-.205-.329-.487-.442-.83-.112-.347-.174-.8-.174-1.362V57.459c0-.535.062-.997.174-1.347.113-.354.263-.64.442-.836.18-.21.383-.35.615-.43.231-.063.462-.11.69-.11h10.194zm-17.362-23.12h-5.183v14.918h-4.08V33.593h-5.169v-2.03h14.432zm-1.161 23.12h-6.81c-.433 0-.748.147-.941.445-.197.301-.292.792-.292 1.471v2.593h7.92v1.972h-7.92v4.588c0 .688.095 1.185.292 1.474.193.298.508.447.942.447h6.809v1.975H50.65a2.16 2.16 0 0 1-.68-.115 1.425 1.425 0 0 1-.618-.416c-.183-.205-.327-.487-.44-.83-.115-.347-.172-.8-.172-1.362V57.459c0-.535.057-.997.173-1.347.112-.354.256-.64.44-.836.182-.21.39-.35.617-.43a2.64 2.64 0 0 1 .68-.11h10.202zm-17.089-13.39c0 .91-.17 1.716-.523 2.442a5.2 5.2 0 0 1-1.482 1.827c-.64.491-1.41.873-2.297 1.144-.895.264-1.875.4-2.944.4a10.43 10.43 0 0 1-2.953-.4c-.89-.27-1.652-.653-2.294-1.144a5.206 5.206 0 0 1-1.481-1.827c-.352-.726-.523-1.532-.523-2.442V31.478h4.084v12.405c0 .424.077.834.248 1.224.173.376.402.71.687 1.002.294.287.619.516 1.012.67.38.17.79.252 1.22.252.437 0 .852-.082 1.233-.251.386-.155.72-.384 1.007-.671.29-.292.52-.626.68-1.002.165-.39.24-.8.24-1.224V31.478h4.086zm-4.537 28.39c-.048-.29-.085-.566-.116-.82-.036-.247-.068-.526-.104-.81-.035-.292-.07-.606-.107-.97-.04-.349-.086-.778-.129-1.28-.071-.646-.239-1.17-.513-1.579a3.14 3.14 0 0 0-.985-.939 3.589 3.589 0 0 0-1.239-.46 6.99 6.99 0 0 0-1.332-.127H33.2v6.986h-4.087V57.459c0-.553.059-.997.167-1.357.113-.352.262-.63.443-.829.182-.202.39-.331.617-.416.235-.07.461-.104.684-.104h6.882c.82 0 1.53.062 2.13.205a5.433 5.433 0 0 1 1.503.545c.413.22.741.49 1.002.804.25.312.444.63.582.971.129.346.225.688.266 1.056.043.362.07.706.07 1.045 0 .59-.078 1.159-.231 1.683a4.51 4.51 0 0 1-.71 1.398 3.503 3.503 0 0 1-1.173.997c-.478.268-1.026.413-1.66.46.551-.048 1.023.057 1.403.329.384.261.709.613.975 1.05.262.44.478.938.629 1.485.15.553.268 1.094.363 1.643l.524 3.29zM24.78 43.347c-.394 1.02-.932 1.924-1.616 2.682a7.852 7.852 0 0 1-2.395 1.818c-.916.44-1.895.67-2.934.67h-6.282c-.384 0-.67-.137-.864-.425a1.707 1.707 0 0 1-.292-1.001V32.976c0-.39.1-.728.292-1.003.193-.278.48-.422.864-.422h6.282c1.11 0 2.118.199 3.046.59.928.4 1.727.954 2.388 1.692.67.728 1.193 1.622 1.553 2.658.37 1.05.55 2.228.55 3.545a9.226 9.226 0 0 1-.592 3.31m-2.278 13.367h-6.806c-.43 0-.743.147-.93.445-.19.301-.293.792-.293 1.471v2.593h7.912v1.972h-7.912v8.484h-4.076V57.459c0-.535.054-.997.163-1.347.12-.354.262-.64.444-.836.18-.21.383-.35.62-.43a2.63 2.63 0 0 1 .688-.11h10.19ZM9.938 20.286c-3.9 0-6.093.706-7.665 2.276C.702 24.137 0 26.342 0 30.252v52.647h79.438c3.906 0 6.097-.693 7.673-2.278 1.565-1.574 2.267-3.774 2.267-7.683V20.286ZM38.7 57.578c-.248-.266-.577-.473-.987-.627-.401-.151-.909-.222-1.52-.222h-1.78c-.424 0-.74.139-.932.443-.19.291-.28.778-.28 1.471v4.073h2.229c1.335 0 2.328-.236 2.97-.712.657-.469.976-1.263.976-2.385 0-.394-.052-.77-.149-1.118a2.217 2.217 0 0 0-.527-.923m-18.629-22.2c-.37-.568-.793-1.016-1.273-1.33-.475-.326-.964-.476-1.473-.476H15.7c-.424 0-.742.14-.93.426-.19.29-.288.772-.288 1.457v9.135c0 .68.097 1.167.289 1.452.187.288.505.435.929.435l1.625.021c.51 0 .998-.168 1.473-.512.48-.344.903-.806 1.273-1.396a7.733 7.733 0 0 0 .889-2.062 9.251 9.251 0 0 0 .328-2.524c0-.93-.107-1.796-.328-2.588-.217-.796-.516-1.476-.889-2.039" style="fill:#e31d1a;fill-opacity:1;fill-rule:nonzero;stroke:none;stroke-width:.352334"/></svg>