<svg xmlns="http://www.w3.org/2000/svg" width="134.61992mm" height="24.9174mm" viewBox="0 0 134.61992 24.917402"><g style="font-style:italic;font-weight:700;font-size:25.4px;font-family:SamsungGothicRoundOTF;fill:#003cdc;stroke-width:10.5833;stroke-linecap:square"><path d="m12.268 12.573 1.778-2.413c-1.32-.635-2.667-1.6-3.657-2.896-.991-1.244-1.651-2.768-1.651-4.572V.61H5.436v2.133c0 1.829-.635 3.455-1.651 4.852C2.769 9.017 1.422 10.135 0 10.947l1.981 2.312c1.143-.686 2.26-1.55 3.175-2.54.89-.94 1.6-1.981 2.032-2.972 1.042 1.93 2.642 3.505 5.08 4.826zm6.503-4.496h3.683V5.41H18.77V.076h-3.15v13.411h3.15zM5.436 24.13H18.77v-9.728H5.436zm10.185-7.061v4.42H8.56v-4.42zM35.433 12.98l1.778-2.464c-1.346-.686-2.692-1.6-3.632-2.82-.99-1.194-1.6-2.667-1.6-4.572V.61h-3.353v2.565c0 1.727-.584 3.251-1.524 4.572-.94 1.346-2.337 2.515-3.886 3.53l1.955 2.363c1.22-.737 2.312-1.702 3.226-2.642.89-.94 1.575-1.93 1.956-2.845.406.813 1.092 1.702 1.981 2.54.89.89 1.981 1.677 3.099 2.286zm4.369.634h3.15V.076h-3.15v4.217h-4.445v2.794h4.445zm2.768 5.284c0-1.626-.66-2.998-1.752-3.988-1.118-.99-2.667-1.575-4.496-1.575-1.829 0-3.353.584-4.445 1.575-1.118.99-1.753 2.362-1.753 3.988 0 1.701.635 3.073 1.753 4.064 1.092.94 2.616 1.498 4.445 1.498 1.829 0 3.378-.559 4.496-1.498 1.092-.991 1.752-2.363 1.752-4.064zm-3.098 0c0 1.752-1.321 2.92-3.15 2.92s-3.099-1.168-3.099-2.92c0-1.728 1.27-2.896 3.099-2.896.914 0 1.676.305 2.26.813a2.87 2.87 0 0 1 .89 2.083zM57.48 16.002l1.854-2.438c-1.905-1.143-3.225-2.388-4.064-3.81C54.381 8.33 54 6.73 54 4.724v-.457h4.344V1.626h-12.04v2.641h4.42v.508c0 2.007-.381 3.658-1.22 5.156-.838 1.524-2.184 2.845-4.038 4.09l2.007 2.464c2.032-1.448 4.013-3.48 4.953-5.792.482.991 1.193 1.982 2.082 2.896.89.914 1.93 1.778 2.972 2.413zm6.452-6.426h3.734V6.934h-3.734V.076h-3.124v21.31h3.124zM80.112 13.462l1.778-2.464c-1.448-.787-2.794-1.803-3.734-3.099-.99-1.295-1.575-2.819-1.575-4.622V.94h-3.302v2.387c0 1.702-.635 3.302-1.626 4.725-1.016 1.448-2.387 2.692-3.835 3.607l1.981 2.311c2.362-1.499 4.293-3.658 5.207-5.588.407.889 1.118 1.829 2.032 2.718.89.914 1.956 1.752 3.074 2.362zm6.477-4.851h3.683V5.944h-3.683V.076h-3.125v16.51h3.125zM73.254 23.647h14.122v-2.692H76.403v-5.512h-3.15zM108.153 5.461c0-1.651-.711-2.997-1.905-3.937S103.454.051 101.625.051c-1.752 0-3.403.533-4.597 1.448-1.194.94-1.956 2.311-1.956 3.962 0 1.803.813 3.15 2.032 4.039 1.22.889 2.87 1.32 4.521 1.32 1.626 0 3.252-.431 4.496-1.346 1.22-.889 2.032-2.21 2.032-4.013zm-3.073 0c0 .813-.381 1.499-.99 1.981-.61.508-1.474.788-2.465.788-2.108 0-3.48-1.143-3.48-2.769 0-1.626 1.423-2.769 3.48-2.769 2.007 0 3.455 1.143 3.455 2.769zm-5.03 13.386h3.125v-4.369h8.839v-2.616H91.237v2.616h8.814zm-2.489-2.464h-3.175v7.595h14.402v-2.642H97.561zM129.26 8.788c.915-.889 1.5-1.98 1.5-3.48 0-3.555-3.176-5.308-6.529-5.308-3.276 0-6.553 1.753-6.553 5.309 0 1.524.584 2.59 1.499 3.48.076.101.178.177.28.253v3.175h-5.614v2.617h20.777v-2.617h-5.563V8.992zm1.423 11.405c0-1.448-.711-2.642-1.854-3.48-1.194-.813-2.769-1.295-4.598-1.295-1.752 0-3.352.457-4.546 1.27-1.194.838-1.93 2.057-1.93 3.505 0 1.55.787 2.743 2.006 3.53 1.22.788 2.845 1.194 4.47 1.194 1.6 0 3.2-.406 4.42-1.193 1.22-.813 2.032-1.982 2.032-3.531zm-2.997-14.884c0 1.828-1.753 2.667-3.455 2.667-2.108 0-3.48-1.042-3.48-2.667 0-1.626 1.423-2.667 3.48-2.667 1.728 0 3.455.838 3.455 2.667zm-.051 14.884c0 .61-.381 1.168-.99 1.55-.61.38-1.474.609-2.414.609-2.032 0-3.429-.914-3.429-2.159 0-1.295 1.397-2.159 3.43-2.159.94 0 1.803.229 2.412.61.61.38.99.914.99 1.549zm-1.88-9.728c.051 0 .127 0 .204-.026v1.778h-3.404V10.44c.05.026.102.026.152.026.99.203 2.007.203 3.048 0z"/></g></svg>