<svg xmlns="http://www.w3.org/2000/svg" viewBox="77.27 86.5 140.53 26.52"><path d="M103.755 99.167c.009.194.015.387.016.579v.011c0 6.133-4.162 11.294-9.815 12.808a13.366 13.366 0 0 1-3.7.448c-6.706-.132-12.19-5.247-12.907-11.798-.03-.281-.051-.566-.063-.853a14.035 14.035 0 0 1-.016-.577v-.028c0-7.321 5.932-13.257 13.25-13.257 6.242 0 11.474 4.317 12.88 10.127.196.819.318 1.668.355 2.54Zm-6.241-6.063c-.775-.215-1.348-.399-1.518-.755-.08-.169-.031-.338.08-.418.119-.087.28-.058.468.034.278.134.617.334.878.366.76.092.621-1.071-.744-1.746-.803-.399-1.589-.563-2.653-.523a5.663 5.663 0 0 1-1.096-.05c-.498-.077-1.107-.288-1.518-.374-.315-.066-.494-.058-.569.047-.069.099-.047.246.145.488.384.485.989 1.024.68 2.285-.767 3.127.283 4.558 1.352 4.793.6.133 1.152-.008 1.489-.358.32-.335.458-.902.15-1.382-.472-.736-.639-1.376-.217-1.642.385-.243.933-.019 1.35.913.666 1.494 1.533 1.89 2.4.828.71-.87.682-2.131-.677-2.506Zm-2.412 8.161c-3.594-2.154-5.376-3.006-6.831-4.045-2.41-1.719-2.791-3-2.864-3.892-.132-1.595 1.075-3.031 2.303-3.708.095-.058.257-.19.186-.372-.071-.183-.291-.148-.373-.13-2.747.583-5.417 3.004-5.002 6.234.165 1.28.979 3.442 5.192 5.924 1.437.846 2.678 1.487 4.625 2.603 2.638 1.509 3.852 3.452 2.218 5.573-.124.148-.23.301-.186.435.051.155.254.182.445.096 1.253-.577 2.289-1.444 2.782-2.248.868-1.416 1.301-4.192-2.495-6.47Zm-4.204 8.603a10.42 10.42 0 0 1-1.204-.418c-.509-.222-.968-.465-1.17-.666-.133-.133-.154-.284-.048-.439.608-.873.779-1.219.949-1.63.36-.87.004-.954-.556-.793-.608.174-1.09.352-1.463.492-.523.195-.846.315-1.036.222-.199-.096-.235-.441-.307-1.012-.05-.407-.135-.87-.244-1.323-.225-.907-.613-.733-.934-.362-.399.485-.619 1.085-.784 1.4-.089.168-.19.224-.314.197-.277-.059-.642-.487-1.04-.996-.582-.744-.842-1.316-1.145-1.351-.644-.075-.357 1.448.247 2.704a8.033 8.033 0 0 0 3.035 3.407c1.746 1.106 4.328 1.508 5.914 1.285.501-.071.6-.573.1-.717ZM120.927 102.634v-9.606c0-.314-.037-.572-.093-.775-.074-.204-.203-.388-.369-.592-.111-.129-.13-.258-.074-.369a.304.304 0 0 1 .277-.148h3.159v11.49h-2.9Zm-8.941-9.329c0-.314-.018-.554-.055-.738-.056-.204-.167-.388-.333-.592-.111-.129-.148-.258-.092-.369a.286.286 0 0 1 .277-.166h3.196v2.457c0 .609.129 1.145.406 1.625.277.499.628.924 1.034 1.293.444.37.924.684 1.46.961.535.277 1.071.498 1.607.683l-.795 1.496c-.129.222-.406.277-.849.185-.462-.092-1.09-.388-1.884-.887-.462-.277-.887-.609-1.312-.96a6.457 6.457 0 0 1-1.034-1.108 9.575 9.575 0 0 1-2.513 2.438c-.277.185-.572.351-.868.517-.314.166-.591.314-.868.406a2.461 2.461 0 0 1-.702.185c-.185.019-.314-.018-.369-.129l-.85-1.607c.609-.24 1.201-.517 1.755-.85a7.768 7.768 0 0 0 1.441-1.09 5.02 5.02 0 0 0 .997-1.348c.24-.499.351-1.035.351-1.626v-.776Zm1.552 15a10.1 10.1 0 0 1-1.423-.093c-.388-.055-.72-.184-.942-.351a1.409 1.409 0 0 1-.535-.683c-.111-.277-.167-.665-.167-1.127v-2.863a1.42 1.42 0 0 0-.092-.499c-.055-.148-.166-.295-.296-.462-.11-.129-.147-.258-.092-.369a.286.286 0 0 1 .277-.166h3.14v3.768c0 .333.056.536.204.628.129.093.332.129.646.129h9.883v2.088h-10.603ZM130.255 92.511c0-.314-.018-.573-.055-.776a1.779 1.779 0 0 0-.333-.591c-.129-.129-.148-.258-.092-.369a.303.303 0 0 1 .277-.148h3.159v2.069h4.193v2.032h-1.94c.277.314.517.683.684 1.071.166.407.24.85.24 1.312a4.23 4.23 0 0 1-.314 1.607 3.594 3.594 0 0 1-.924 1.311c-.406.37-.905.665-1.496.868a6.436 6.436 0 0 1-2.051.314c-.757 0-1.44-.11-2.031-.314a4.247 4.247 0 0 1-1.497-.868 3.898 3.898 0 0 1-.942-1.311 4.23 4.23 0 0 1-.314-1.607c0-.481.074-.924.24-1.312.148-.388.37-.757.647-1.071h-1.94v-2.032h4.489v-.185Zm8.645 10.381v-9.864c0-.314-.037-.572-.092-.775-.056-.185-.185-.388-.351-.592-.13-.129-.148-.258-.093-.369a.306.306 0 0 1 .277-.148h3.159v4.36h2.106v2.087H141.8v5.301h-2.9Zm3.122 3.325v2.088h-10.326a7.795 7.795 0 0 1-1.423-.111 2.213 2.213 0 0 1-.997-.369c-.259-.167-.443-.407-.573-.721-.11-.295-.166-.683-.166-1.145v-2.032a1.42 1.42 0 0 0-.092-.499c-.056-.148-.167-.295-.296-.462-.111-.129-.148-.258-.092-.369a.286.286 0 0 1 .277-.166h3.14v3.029c0 .333.074.536.203.628.13.093.333.129.647.129h9.698Zm-10.419-7.037c.647 0 1.146-.204 1.478-.647.37-.425.536-.924.536-1.515 0-.628-.166-1.163-.536-1.588-.332-.425-.831-.628-1.478-.628-.646 0-1.145.203-1.496.628s-.517.96-.517 1.588c0 .591.166 1.09.517 1.515.351.443.85.647 1.496.647ZM146.511 102.745c0-.185-.037-.351-.093-.499-.055-.148-.166-.296-.295-.462-.111-.129-.148-.258-.093-.369a.288.288 0 0 1 .277-.167h13.134c.148 0 .259.037.333.074.055.056.092.167.092.333v6.742h-11.324c-.646 0-1.145-.185-1.496-.536-.351-.35-.535-.812-.535-1.385v-3.731Zm10.529-8.83c.018-.259-.13-.388-.444-.388h-9.956v-2.013h10.88c.517 0 .942.037 1.274.11.315.074.573.204.758.388.166.185.277.425.332.721.037.314.037.683 0 1.127l-.351 3.694h2.494v2.032h-17.604v-2.032h12.284l.333-3.639Zm-.019 12.543v-3.27h-7.666v2.734a.48.48 0 0 0 .166.388.58.58 0 0 0 .407.148h7.093ZM178.578 105.294c0 .554-.148 1.053-.462 1.496-.314.443-.775.813-1.367 1.108-.591.314-1.311.536-2.161.702-.85.167-1.81.259-2.881.259-1.09 0-2.069-.074-2.919-.24-.85-.166-1.57-.388-2.161-.702-.591-.314-1.035-.684-1.349-1.127a2.518 2.518 0 0 1-.462-1.496c0-1.09.555-1.94 1.681-2.549v-2.18h-3.602V98.57h17.604v1.995h-3.602v2.198c.554.314.979.665 1.256 1.09.277.425.425.905.425 1.441Zm-.092-11.047c0 .499-.129.961-.388 1.386-.277.425-.684.794-1.238 1.108-.554.333-1.256.573-2.106.739-.849.185-1.865.277-3.047.277-1.183 0-2.199-.092-3.048-.277-.85-.166-1.552-.406-2.088-.739-.554-.314-.96-.683-1.219-1.108a2.48 2.48 0 0 1-.406-1.386c0-.48.129-.923.406-1.348.259-.425.665-.794 1.219-1.108.536-.314 1.238-.554 2.088-.739.849-.185 1.865-.277 3.048-.277 1.182 0 2.198.092 3.047.277.85.185 1.552.425 2.106.739.554.314.961.683 1.238 1.108.259.425.388.868.388 1.348Zm-2.789 11.047c0-1.053-1.33-1.589-3.99-1.589-2.679 0-4.009.536-4.009 1.589 0 .572.333.979.998 1.237.665.259 1.662.388 3.011.388 1.348 0 2.346-.129 3.01-.388.647-.258.98-.665.98-1.237Zm-7.87-11.047c0 .518.333.906.979 1.164.647.277 1.626.407 2.901.407 1.274 0 2.253-.13 2.9-.407.646-.258.979-.646.979-1.164 0-.48-.333-.849-1.016-1.126-.684-.277-1.626-.407-2.863-.407-1.238 0-2.18.13-2.864.407-.683.277-1.016.646-1.016 1.126Zm3.88 7.482c.849 0 1.644.055 2.364.166v-1.33h-4.747v1.33a15.7 15.7 0 0 1 2.383-.166ZM183.159 91.514h13.67v2.013h-10.382v1.441h10.326v2.013h-10.326v.758c0 .277.056.462.167.554.11.092.314.148.591.148h9.864v2.032h-10.548c-1.071 0-1.847-.204-2.346-.591-.48-.388-.72-1.072-.72-2.032v-4.434c0-.314-.037-.572-.093-.776-.073-.203-.203-.387-.369-.591-.111-.129-.148-.258-.092-.369.037-.111.129-.166.258-.166Zm15.812 10.326v2.087h-7.296v4.599h-2.993v-4.599h-7.315v-2.087h17.604ZM200.468 93.933v-2.087h10.233v2.087h-3.565V97c0 1.016.185 1.902.536 2.697.351.794.85 1.514 1.515 2.179.351.333.738.647 1.163.961.407.314.832.591 1.256.831l-1.071 1.644c-.055.093-.185.13-.351.093-.166-.019-.388-.111-.628-.24-.24-.148-.517-.351-.831-.573-.296-.259-.591-.517-.905-.813a6.184 6.184 0 0 1-.573-.609c-.203-.222-.388-.462-.573-.702a5.058 5.058 0 0 1-.517-.758 3.913 3.913 0 0 1-.369-.739 7.317 7.317 0 0 1-.425.85c-.166.296-.37.591-.573.887-.221.277-.443.554-.683.831-.24.277-.499.517-.739.739-.684.628-1.256 1.09-1.737 1.404-.48.314-.794.369-.923.203l-1.293-1.589c.48-.314.923-.628 1.311-.96.407-.314.795-.665 1.183-1.053.775-.757 1.33-1.57 1.699-2.401.351-.832.517-1.792.517-2.864v-3.085h-3.657Zm12.025 14.593V93.047a2.99 2.99 0 0 0-.092-.776c-.056-.185-.185-.388-.351-.591-.111-.129-.148-.259-.093-.37a.288.288 0 0 1 .277-.166h3.159v5.837h2.402v2.125h-2.402v9.42h-2.9Z" style="fill-rule:nonzero;fill:#0046ff"/></svg>