<svg xmlns="http://www.w3.org/2000/svg" width="300" height="30"><g fill="#0e1a44"><path d="M17.036 13.804H9.848c.391-.883 3.105-7.143 3.69-8.478.552 1.343 3.137 7.599 3.498 8.478M12.109 1.183.002 28.93H3.49l5.164-12.146s9.035-.048 9.512-.037l5.059 12.183h3.673L15.216 1.183H12.11zM54.595 1.183S45.693 21.67 45.03 23.21c-.672-1.54-9.57-22.027-9.57-22.027h-4.424V28.93h3.3V6.477l9.856 22.453h1.628s8.521-19.704 9.702-22.427V28.93h3.299V1.183h-4.227zM129.623 1.183V28.93h19.555v-3.074h-16.249v-9.713h14.766v-3.08h-14.766v-8.81h15.63v-3.07h-18.936z" style="fill:#015699;fill-opacity:1"/><path d="M161.743 2.903h5.782c3.002 0 6.51 1.428 6.51 5.434 0 3.952-3.278 5.353-6.346 5.353h-6.35V2.903h.404zm-2.215-1.582v27.276h1.812V15.274h6.464c3.889 0 8.05-1.82 8.05-6.937 0-6.33-6.044-7.016-8.646-7.016h-7.68zM182.263 15.075l4.843-11.433.371-.869c.323.793 4.814 11.801 5.022 12.302h-10.236zm15.853 13.522h2.059L188.703 1.322h-2.178l-11.903 27.275h1.862s4.997-11.736 5.094-11.97h11.585c.095.234 4.953 11.97 4.953 11.97M203.033 14.96c0 8.447 5.803 14.347 14.112 14.347 4.038 0 7.305-1.511 9.703-4.504l.123-.16-1.504-1.14-.12.151c-2.29 3.008-5.846 4.073-8.202 4.073-7.238 0-12.293-5.248-12.293-12.768 0-7.52 5.055-12.77 12.293-12.77 2.981 0 5.694 1.276 7.439 3.505l.128.161 1.507-1.267-.13-.149c-2.21-2.54-5.214-3.828-8.944-3.828-8.309 0-14.112 5.898-14.112 14.348M234.43 1.32v27.276h1.815V1.321h-1.816zM245.82 28.597V15.274h13.209v-1.583H245.82V2.903h14.203V1.322h-16.022v27.275h1.819zM269.533 28.598V1.322h-1.82v27.276h1.82zM276.02 14.96c0 8.447 5.8 14.347 14.108 14.347 4.048 0 7.312-1.511 9.707-4.504l.128-.16-1.517-1.14-.113.151c-2.291 3.008-5.851 4.073-8.205 4.073-7.238 0-12.297-5.248-12.297-12.768 0-7.52 5.059-12.77 12.297-12.77 2.981 0 5.695 1.276 7.442 3.505l.124.156 1.515-1.262-.13-.149c-2.21-2.54-5.222-3.828-8.951-3.828-8.308 0-14.109 5.898-14.109 14.348" style="fill:#021b55;fill-opacity:1"/><path d="M90.906 15.058c0 6.765-4.537 11.483-11.029 11.483-6.495 0-11.034-4.718-11.034-11.483 0-6.757 4.539-11.487 11.034-11.487 6.492 0 11.029 4.73 11.029 11.487m13.785-2.042V4.207h9.052c5.35 0 5.925 3.08 5.925 4.396 0 1.326-.575 4.413-5.925 4.413h-9.052zM65.55 15.058c0 8.569 5.886 14.556 14.327 14.556 8.08 0 13.812-5.488 14.292-13.472h7.255v12.787h3.3V16.142h8.178l7.581 12.787h3.778l-7.917-13.058c4.342-.744 6.655-3.212 6.655-7.214 0-4.958-3.36-7.474-9.984-7.474h-11.591v11.88h-7.336C93.243 5.572 87.638.5 79.878.5 71.435.5 65.55 6.49 65.55 15.058" style="fill:#015699;fill-opacity:1"/></g></svg>