<svg xmlns="http://www.w3.org/2000/svg" width="512" height="175.84801" viewBox="0 0 135.46666 46.526453"><defs><clipPath id="a"><path stroke-linecap="round" d="M-552.47 341.09h841.89v-595.28h-841.89Z"/></clipPath><clipPath id="b"><path stroke-linecap="round" d="M-469.51 297.64h841.89v-595.28h-841.89Z"/></clipPath><clipPath id="c"><path stroke-linecap="round" d="M-268.43 267.95h841.89v-595.28h-841.89Z"/></clipPath><clipPath id="d"><path stroke-linecap="round" d="M-332.43 297.64h841.89v-595.28h-841.89Z"/></clipPath><clipPath id="e"><path stroke-linecap="round" d="M-271.24 338h841.89v-595.28h-841.89Z"/></clipPath><clipPath id="f"><path stroke-linecap="round" d="M-552.48 272.18h841.89V-323.1h-841.89Z"/></clipPath><clipPath id="g"><path stroke-linecap="round" d="M-405.4 297.64h841.89v-595.28H-405.4Z"/></clipPath></defs><g style="fill:#e40520;fill-opacity:1"><g clip-path="url(#a)" style="fill:#e40520;fill-opacity:1" transform="matrix(.35194 0 0 -.35194 114.15 38.589)"><path d="M0 0c-2.887 0-4.614 3.055-4.614 6.006v13.149H116.53V6.006c0-2.951-1.724-6.006-4.614-6.006Z" style="opacity:1;fill:#e40520;fill-opacity:1;fill-rule:nonzero;stroke:none;stroke-width:1;stroke-linecap:butt;stroke-linejoin:miter;stroke-miterlimit:4;stroke-dasharray:none;stroke-dashoffset:0" transform="translate(-55.96 -9.58)" vector-effect="non-scaling-stroke"/></g><g clip-path="url(#b)" style="fill:#e40520;fill-opacity:1" transform="matrix(.35194 0 0 -.35194 84.878 23.257)"><path d="M0 0h4.315C6.04.004 6.844.267 7.907 1.165c.23.214 6.607 6.572 9.043 9.003 1.423 1.423 1.81 2.299 1.81 4.084v113.163c0 2.886-3.053 4.613-6.004 4.613H.014Z" style="opacity:1;fill:#e40520;fill-opacity:1;fill-rule:nonzero;stroke:none;stroke-width:1;stroke-linecap:butt;stroke-linejoin:miter;stroke-miterlimit:4;stroke-dasharray:none;stroke-dashoffset:0" transform="translate(-9.38 -66.01)" vector-effect="non-scaling-stroke"/></g><g clip-path="url(#c)" style="fill:#e40520;fill-opacity:1" transform="matrix(.35194 0 0 -.35194 13.93 12.783)"><path d="M0 0c-9.532 0-17.287-7.754-17.287-17.285 0-4.616 1.798-8.958 5.064-12.222A17.164 17.164 0 0 1-.002-34.569c9.534 0 17.289 7.754 17.289 17.284 0 4.618-1.798 8.958-5.062 12.224A17.18 17.18 0 0 1 0 0m-.005-53.609c-9.7 0-18.822 3.776-25.681 10.638-6.862 6.861-10.641 15.984-10.641 25.686 0 20.03 16.295 36.327 36.325 36.327 9.705 0 18.829-3.778 25.689-10.64 6.861-6.861 10.64-15.982 10.638-25.687 0-20.029-16.296-36.324-36.327-36.324z" style="opacity:1;fill:#e40520;fill-opacity:1;fill-rule:nonzero;stroke:none;stroke-width:1;stroke-linecap:butt;stroke-linejoin:miter;stroke-miterlimit:4;stroke-dasharray:none;stroke-dashoffset:0" transform="translate(0 17.28)" vector-effect="non-scaling-stroke"/></g><g clip-path="url(#d)" style="fill:#e40520;fill-opacity:1" transform="matrix(.35194 0 0 -.35194 36.513 23.257)"><path d="M0 0h4.316C6.04.004 6.844.267 7.91 1.165c.227.214 6.604 6.572 9.04 9.003 1.424 1.423 1.812 2.299 1.812 4.084v113.163c0 2.886-3.055 4.613-6.006 4.613H.014Z" style="opacity:1;fill:#e40520;fill-opacity:1;fill-rule:nonzero;stroke:none;stroke-width:1;stroke-linecap:butt;stroke-linejoin:miter;stroke-miterlimit:4;stroke-dasharray:none;stroke-dashoffset:0" transform="translate(-9.38 -66.01)" vector-effect="non-scaling-stroke"/></g><g clip-path="url(#e)" style="fill:#e40520;fill-opacity:1" transform="matrix(.35194 0 0 -.35194 14.926 37.496)"><path d="M0 0v-13.15c0-2.951 1.726-6.005 4.613-6.005h25.176l-.004-32.154h4.317c1.722.004 2.528.267 3.592 1.165.227.214 6.607 6.573 9.042 9.003 1.422 1.423 1.811 2.299 1.811 4.084v17.902H80.21c2.89 0 4.614 3.054 4.614 6.005V0Z" style="opacity:1;fill:#e40520;fill-opacity:1;fill-rule:nonzero;stroke:none;stroke-width:1;stroke-linecap:butt;stroke-linejoin:miter;stroke-miterlimit:4;stroke-dasharray:none;stroke-dashoffset:0" transform="translate(-42.41 25.65)" vector-effect="non-scaling-stroke"/></g><g clip-path="url(#f)" style="fill:#e40520;fill-opacity:1" transform="matrix(.35194 0 0 -.35194 114.15 14.276)"><path d="M538.393 344.891h28.413v-43.556h-28.413zm45.285-33.439c1.414 1.415 1.801 2.288 1.801 4.065v29.374h17.73c2.89 0 4.615 3.055 4.615 6.006v12.757H497.136v-12.757c0-2.951 1.725-6.006 4.612-6.006h32.347c-1.716-.004-2.519-.265-3.578-1.159-.228-.212-6.571-6.54-8.996-8.958-1.413-1.415-1.8-2.288-1.8-4.064v-29.375h-22.585v-12.788c0-2.952 1.725-6.005 4.612-6.005h101.461c2.89 0 4.615 3.053 4.615 6.005v12.788h-36.719c1.715.005 2.519.265 3.578 1.159.225.214 6.573 6.54 8.995 8.958" style="opacity:1;fill:#e40520;fill-opacity:1;fill-rule:nonzero;stroke:none;stroke-width:1;stroke-linecap:butt;stroke-linejoin:miter;stroke-miterlimit:4;stroke-dasharray:none;stroke-dashoffset:0" transform="translate(-552.48 -323.1)" vector-effect="non-scaling-stroke"/></g><g clip-path="url(#g)" style="fill:#e40520;fill-opacity:1" transform="matrix(.35194 0 0 -.35194 62.258 23.257)"><path d="M0 0v62.35h20.347L20.359 0Zm65.929 81.112H53.187l-.005-40.566H39.116v16.137c0 3.06-.667 4.565-3.103 7.001-4.174 4.164-15.105 15.062-15.495 15.431-1.824 1.537-3.205 1.987-6.158 1.997h-33.121V5.666c0-3.061.666-4.564 3.103-7.001C-11.484-5.499-.554-16.396-.164-16.766c1.825-1.538 3.206-1.986 6.159-1.997h33.121v40.565H53.18l-.007-72.718h4.315c1.725.004 2.529.267 3.591 1.165.231.214 6.608 6.572 9.044 9.003 1.423 1.423 1.81 2.299 1.81 4.084V76.499c0 2.886-3.053 4.613-6.004 4.613" style="opacity:1;fill:#e40520;fill-opacity:1;fill-rule:nonzero;stroke:none;stroke-width:1;stroke-linecap:butt;stroke-linejoin:miter;stroke-miterlimit:4;stroke-dasharray:none;stroke-dashoffset:0" transform="translate(-26.59 -15.1)" vector-effect="non-scaling-stroke"/></g></g></svg>