<svg width="1186" height="255" xmlns="http://www.w3.org/2000/svg" version="1.1" xml:space="preserve">
 <metadata id="metadata8">image/svg+xml</metadata>
 <defs id="defs6">
  <clipPath clipPathUnits="userSpaceOnUse" id="clipPath18">
   <path d="m-56.0058,1396.75003l1000,0l0,-1000l-1000,0l0,1000z" id="path16"/>
  </clipPath>
 </defs>
 <g>
  <title>Layer 1</title>
  <g id="g10" transform="matrix(1.33333 0 0 -1.33333 0 1333.33)">
   <g id="g12">
    <g id="g14" clip-path="url(#clipPath18)">
     <g id="g20">
      <path fill-rule="nonzero" fill="#000000" d="m98.6598,818.68082l0,71.712l34.668,-20.016l-22.681,-13.095c-1.871,-1.08 -2.513,-3.479 -1.434,-5.349c0.697,-1.208 1.998,-1.958 3.394,-1.958c0.686,0 1.363,0.181 1.956,0.524l28.555,16.486c0.002,0.002 0.003,0.003 0.005,0.004c0.202,0.117 0.39,0.258 0.568,0.41c0.041,0.034 0.081,0.068 0.119,0.104c0.171,0.156 0.331,0.324 0.472,0.51c0.001,0.002 0.002,0.003 0.003,0.004c0.096,0.128 0.187,0.261 0.268,0.401c0.027,0.047 0.042,0.099 0.067,0.146c0.048,0.092 0.087,0.187 0.128,0.283c0.061,0.143 0.119,0.287 0.162,0.436c0.025,0.083 0.041,0.168 0.06,0.253c0.036,0.162 0.067,0.323 0.082,0.488c0.008,0.09 0.006,0.179 0.008,0.269c0.004,0.158 0.004,0.314 -0.012,0.473c-0.01,0.108 -0.033,0.213 -0.053,0.321c-0.019,0.101 -0.024,0.203 -0.05,0.303c-0.012,0.042 -0.033,0.08 -0.046,0.121c-0.031,0.103 -0.074,0.203 -0.114,0.304c-0.058,0.147 -0.119,0.292 -0.194,0.43c-0.015,0.029 -0.023,0.06 -0.04,0.089c-0.034,0.059 -0.08,0.107 -0.117,0.164c-0.084,0.13 -0.169,0.256 -0.267,0.374c-0.073,0.089 -0.153,0.168 -0.234,0.249c-0.094,0.095 -0.188,0.189 -0.292,0.274c-0.102,0.084 -0.212,0.158 -0.322,0.231c-0.069,0.045 -0.128,0.101 -0.199,0.142l-44.46,25.669l0,57.366l34.668,-20.015l-22.681,-13.095c-1.871,-1.08 -2.513,-3.479 -1.434,-5.349c0.697,-1.208 1.998,-1.958 3.394,-1.958c0.686,0 1.363,0.181 1.956,0.524l28.555,16.486c0.002,0.002 0.003,0.003 0.005,0.004c0.202,0.117 0.39,0.258 0.568,0.41c0.041,0.034 0.081,0.068 0.119,0.104c0.171,0.156 0.331,0.324 0.472,0.51c0.001,0.002 0.002,0.003 0.003,0.004c0.096,0.128 0.187,0.261 0.268,0.401c0.027,0.047 0.04,0.096 0.065,0.143c0.052,0.1 0.094,0.203 0.138,0.307c0.057,0.138 0.114,0.274 0.155,0.415c0.027,0.095 0.044,0.19 0.064,0.286c0.032,0.151 0.063,0.301 0.076,0.453c0.01,0.104 0.007,0.208 0.008,0.312c0.002,0.144 0.004,0.286 -0.011,0.428c-0.011,0.116 -0.036,0.23 -0.058,0.346c-0.025,0.132 -0.05,0.263 -0.088,0.392c-0.034,0.111 -0.079,0.219 -0.123,0.328c-0.053,0.133 -0.108,0.264 -0.176,0.392c-0.02,0.037 -0.03,0.077 -0.052,0.115c-0.037,0.065 -0.088,0.118 -0.129,0.18c-0.075,0.116 -0.152,0.228 -0.24,0.336c-0.08,0.098 -0.167,0.187 -0.256,0.277c-0.088,0.088 -0.176,0.175 -0.273,0.256c-0.109,0.09 -0.225,0.169 -0.343,0.247c-0.066,0.044 -0.121,0.097 -0.19,0.137l-46.418,26.798c-0.071,0.041 -0.149,0.065 -0.222,0.101c-0.114,0.057 -0.227,0.112 -0.347,0.157c-0.126,0.049 -0.254,0.085 -0.384,0.12c-0.114,0.03 -0.227,0.06 -0.344,0.08c-0.145,0.025 -0.29,0.036 -0.436,0.044c-0.076,0.005 -0.148,0.023 -0.225,0.023c-0.04,0 -0.077,-0.01 -0.116,-0.011c-0.138,-0.005 -0.275,-0.023 -0.412,-0.042c-0.127,-0.017 -0.252,-0.033 -0.375,-0.062c-0.036,-0.009 -0.073,-0.008 -0.109,-0.018c-0.087,-0.023 -0.165,-0.065 -0.25,-0.094c-0.122,-0.042 -0.244,-0.082 -0.361,-0.135c-0.127,-0.058 -0.245,-0.128 -0.364,-0.198c-0.094,-0.056 -0.188,-0.109 -0.277,-0.172c-0.122,-0.086 -0.233,-0.184 -0.343,-0.284c-0.077,-0.069 -0.155,-0.136 -0.226,-0.211c-0.097,-0.102 -0.183,-0.213 -0.269,-0.326c-0.072,-0.093 -0.142,-0.186 -0.205,-0.287c-0.026,-0.041 -0.06,-0.075 -0.085,-0.118c-0.041,-0.07 -0.062,-0.146 -0.098,-0.218c-0.06,-0.119 -0.116,-0.238 -0.164,-0.363c-0.046,-0.123 -0.082,-0.246 -0.115,-0.37c-0.032,-0.122 -0.062,-0.243 -0.083,-0.368c-0.022,-0.136 -0.033,-0.271 -0.041,-0.407c-0.005,-0.078 -0.023,-0.153 -0.023,-0.232l0,-142.696l-7.273,-4.199l-75.23,43.433l0,86.868l35.584,20.545c1.598,-1.12 3.538,-1.784 5.633,-1.784c5.426,0 9.842,4.416 9.842,9.843c0,5.427 -4.416,9.842 -9.842,9.842c-5.426,0 -9.842,-4.415 -9.842,-9.842c0,-0.47 0.045,-0.929 0.109,-1.382l-37.358,-21.569c-1.207,-0.697 -1.958,-1.997 -1.958,-3.392l0,-91.39c0,-1.395 0.751,-2.695 1.958,-3.392l79.144,-45.694c0.595,-0.343 1.272,-0.525 1.96,-0.525c0.687,0 1.364,0.182 1.958,0.525l11.12,6.421c0.334,0.193 0.613,0.439 0.866,0.705c0.013,0.013 0.025,0.027 0.037,0.04c0.123,0.133 0.24,0.267 0.342,0.414c0.485,0.652 0.782,1.451 0.782,2.324" id="path22"/>
     </g>
     <g id="g24">
      <path fill-rule="nonzero" fill="#000000" d="m166.61689,949.25296c0,1.395 -0.751,2.695 -1.958,3.392l-79.145,45.694c-1.209,0.698 -2.711,0.698 -3.918,0l-11.119,-6.42c-0.306,-0.177 -0.57,-0.401 -0.812,-0.645c-0.064,-0.061 -0.121,-0.127 -0.18,-0.192c-0.074,-0.086 -0.15,-0.17 -0.216,-0.262c-0.507,-0.66 -0.82,-1.475 -0.82,-2.37l0,-135.899l-38.584,22.277l0,55.697l27.766,16.114c1.871,1.08 2.513,3.479 1.434,5.349c-0.524,0.906 -1.368,1.554 -2.38,1.825c-1.011,0.27 -2.066,0.131 -2.972,-0.393l-29.723,-17.249c-1.007,-0.581 -1.643,-1.547 -1.861,-2.605c-0.013,-0.057 -0.019,-0.116 -0.029,-0.174c-0.028,-0.173 -0.048,-0.345 -0.053,-0.52c-0.002,-0.051 -0.015,-0.098 -0.015,-0.149l0,-60.156c0,-1.394 0.751,-2.694 1.958,-3.391l46.416,-26.799c0.132,-0.076 0.269,-0.141 0.407,-0.201c0.013,-0.006 0.024,-0.013 0.037,-0.019c0.21,-0.088 0.428,-0.151 0.649,-0.201c0.055,-0.013 0.111,-0.023 0.167,-0.034c0.23,-0.041 0.462,-0.07 0.697,-0.07c0,0 0.001,0 0.001,0c0.001,0 0.001,0 0.001,0c0.002,0 0.003,0 0.004,0c0.233,0 0.462,0.029 0.687,0.069c0.063,0.012 0.125,0.024 0.187,0.038c0.214,0.05 0.425,0.111 0.627,0.195c0.029,0.012 0.055,0.029 0.084,0.042c0.18,0.08 0.351,0.175 0.517,0.281c0.049,0.031 0.098,0.063 0.146,0.097c0.366,0.257 0.687,0.577 0.949,0.95c0.028,0.041 0.056,0.082 0.083,0.124c0.035,0.055 0.075,0.105 0.108,0.162c0.041,0.07 0.062,0.146 0.098,0.218c0.06,0.119 0.116,0.238 0.164,0.363c0.046,0.123 0.081,0.246 0.115,0.37c0.032,0.121 0.062,0.243 0.083,0.368c0.022,0.136 0.033,0.271 0.041,0.407c0.005,0.078 0.023,0.152 0.023,0.232l0,140.458l7.273,4.199l75.231,-43.433l0,-21.021l-32.945,-19.021c-1.208,-0.697 -1.958,-1.997 -1.958,-3.392c0,-1.394 0.75,-2.694 1.958,-3.391l32.945,-19.021l0,-21.022l-38.035,-21.959c-1.623,1.178 -3.612,1.883 -5.766,1.883c-5.427,0 -9.842,-4.416 -9.842,-9.843c0,-5.427 4.415,-9.842 9.842,-9.842c5.427,0 9.843,4.415 9.843,9.842c0,0.414 -0.034,0.82 -0.084,1.221l39.916,23.045c1.207,0.697 1.958,1.997 1.958,3.392l0,25.544c0,0.047 -0.012,0.091 -0.014,0.137c-0.005,0.131 -0.021,0.259 -0.039,0.388c-0.018,0.131 -0.035,0.26 -0.065,0.386c-0.027,0.115 -0.067,0.225 -0.105,0.337c-0.043,0.127 -0.084,0.254 -0.14,0.375c-0.051,0.113 -0.116,0.22 -0.178,0.328c-0.062,0.107 -0.121,0.213 -0.192,0.313c-0.078,0.111 -0.169,0.211 -0.259,0.314c-0.076,0.087 -0.15,0.174 -0.234,0.254c-0.096,0.091 -0.202,0.172 -0.308,0.254c-0.101,0.078 -0.201,0.155 -0.309,0.223c-0.041,0.025 -0.073,0.058 -0.115,0.083l-29.029,16.759l29.029,16.761c0.041,0.024 0.075,0.057 0.115,0.082c0.103,0.065 0.198,0.137 0.293,0.21c0.112,0.085 0.221,0.17 0.322,0.266c0.075,0.071 0.143,0.149 0.212,0.226c0.1,0.111 0.198,0.222 0.284,0.344c0.062,0.087 0.114,0.18 0.17,0.273c0.071,0.121 0.142,0.241 0.201,0.37c0.052,0.113 0.091,0.232 0.132,0.351c0.029,0.087 0.072,0.166 0.096,0.256c0.01,0.037 0.01,0.075 0.019,0.113c0.028,0.118 0.043,0.24 0.06,0.362c0.02,0.143 0.038,0.285 0.043,0.428c0.001,0.037 0.011,0.072 0.011,0.11l0,25.543z" id="path26"/>
     </g>
     <g id="g28">
      <path fill-rule="nonzero" fill="#000000" d="m263.70208,904.25064c0,16.655 -6.584,27.499 -20.01,27.499l-15.362,0l0,-54.995l15.362,0c13.426,0 20.01,10.585 20.01,27.496m21.689,0c-0.13,-29.562 -14.846,-47.768 -46.992,-47.894l-32.662,0l0,95.792l32.662,0c32.146,-0.13 46.862,-18.462 46.992,-47.898" id="path30"/>
     </g>
     <path fill-rule="nonzero" fill="#000000" d="m294.5462,927.36103l22.333,0l0,-71.004l-22.333,0l0,71.004zm22.333,7.487l-22.333,0l0,17.3l22.333,0l0,-17.3z" id="path32"/>
     <g id="g34">
      <path fill-rule="nonzero" fill="#000000" d="m362.44628,878.94763c9.296,0.13 14.33,6.196 14.33,14.202c0,11.231 -6.583,16.395 -14.33,16.781c-6.326,0.39 -13.813,-3.743 -14.33,-15.619c-0.516,-10.585 6.325,-15.494 14.33,-15.364m37.311,-10.329c0,-13.297 -1.807,-22.205 -12.136,-29.562c-8.005,-5.424 -19.495,-6.586 -30.983,-6.07c-7.877,0.39 -18.076,2.712 -27.629,8.263l9.295,17.56c8.908,-5.035 17.301,-7.747 27.242,-6.716c8.648,1.035 11.618,6.07 11.618,10.719l0,3.098c-3.356,-3.618 -10.715,-6.07 -18.204,-6.07c-15.233,0 -33.565,10.199 -32.791,33.439c0.905,25.559 16.267,36.664 34.082,35.758c7.489,-0.256 13.17,-2.968 16.913,-6.711l0,5.034l22.593,0l0,-58.742z" id="path36"/>
     </g>
     <path fill-rule="nonzero" fill="#000000" d="m410.2002,927.36103l22.333,0l0,-71.004l-22.333,0l0,71.004zm22.333,7.487l-22.333,0l0,17.3l22.333,0l0,-17.3z" id="path38"/>
     <g id="g40">
      <path fill-rule="nonzero" fill="#000000" d="m473.06842,886.17874c0,-5.424 0.646,-8.006 3.486,-9.038c1.936,-0.645 3.615,-0.516 7.746,0.905l3.744,-19.752c-6.714,-3.098 -17.558,-4.263 -25.175,-1.291c-8.908,3.613 -12.136,11.49 -12.136,25.043l0,25.177l-11.618,0l0,20.138l11.618,0l0,24.788l22.335,0l0,-24.788l14.46,0l0,-20.138l-14.46,0l0,-21.044z" id="path42"/>
     </g>
     <g id="g44">
      <path fill-rule="nonzero" fill="#000000" d="m529.47668,875.20422c7.617,0 13.427,3.614 14.976,11.49c0.13,0.516 0.258,2.968 0.258,3.484c0,12.136 -6.456,18.851 -14.718,18.851c-6.972,0.386 -14.329,-5.164 -14.329,-16.784c0,-11.231 5.938,-17.041 13.813,-17.041m15.749,-18.847l0,6.196c-4.259,-4.39 -10.972,-7.102 -18.459,-7.102c-18.849,0 -34.083,11.62 -33.438,36.794c0.774,25.432 16.783,37.312 34.341,36.537c7.487,-0.39 13.685,-3.744 17.556,-7.877l0,6.456l22.335,0l0,-71.004l-22.335,0z" id="path46"/>
     </g>
     <path fill-rule="nonzero" fill="#000000" d="m578.0062,954.08503l22.463,0l0,-97.728l-22.463,0l0,97.728z" id="path48"/>
     <g id="g50">
      <path fill-rule="nonzero" fill="#000000" d="m634.67462,896.63373l0,-20.009l19.881,0c9.037,-0.129 11.62,4.389 11.62,10.07c0,5.294 -3.358,9.939 -12.652,9.939l-18.849,0zm0,35.246l0,-15.749l20.14,0c5.68,0.386 9.036,3.228 9.036,8.002c0,4.649 -3.485,7.747 -9.811,7.747l-19.365,0zm-22.463,-75.523l0,95.791l38.472,0c24.142,0 34.469,-9.037 35.63,-22.72c1.163,-8.007 -3.098,-17.946 -11.23,-21.434c9.941,-4.515 14.846,-15.879 13.684,-26.85c-1.678,-15.879 -12.393,-24.787 -33.307,-24.787l-43.249,0z" id="path52"/>
     </g>
     <path fill-rule="nonzero" fill="#000000" d="m697.7902,954.08503l22.463,0l0,-97.728l-22.463,0l0,97.728z" id="path54"/>
     <g id="g56">
      <path fill-rule="nonzero" fill="#000000" d="m766.98413,875.07434c8.648,0 16.525,5.55 16.525,16.914c0,10.845 -7.877,16.911 -16.525,16.911c-8.392,0 -16.009,-6.066 -16.009,-16.911c0,-11.364 7.617,-16.914 16.009,-16.914m0.258,-20.398c-22.593,0 -38.602,14.848 -38.602,37.312c0,23.367 17.428,37.309 38.602,37.309c21.172,0 38.6,-13.942 38.6,-37.309c0,-22.464 -16.007,-37.312 -38.6,-37.312" id="path58"/>
     </g>
     <g id="g60">
      <path fill-rule="nonzero" fill="#000000" d="m850.62628,875.07434c8.005,-0.516 16.267,4.003 16.267,17.041c0,11.749 -7.747,16.784 -14.718,16.784c-8.648,0 -14.976,-7.357 -14.976,-18.721c0,-8.003 4.907,-14.588 13.427,-15.104m4.261,-19.753c-7.359,0 -14.33,2.842 -18.461,7.361l0,-6.325l-22.205,0l0,95.791l22.205,0l0,-31.373c3.743,4.133 10.586,7.617 19.107,7.877c18.847,0.905 32.791,-12.911 33.049,-37.183c0.388,-25.043 -14.588,-36.148 -33.695,-36.148" id="path62"/>
     </g>
    </g>
   </g>
  </g>
 </g>
</svg>