<svg width="888" height="191" xmlns="http://www.w3.org/2000/svg" version="1.1">
 <defs>
  <linearGradient y2="0.5" x2="0.99999" y1="0.5" x1="0.00001" id="linear0">
   <stop stop-color="rgb(24.705882%,23.529412%,84.313725%)" offset="0"/>
   <stop stop-color="rgb(6.666667%,66.27451%,90.196078%)" offset="1"/>
  </linearGradient>
  <linearGradient y2="0.5" x2="0.99999" y1="0.5" x1="-0.00001" id="linear1">
   <stop stop-color="rgb(24.705882%,23.529412%,84.313725%)" offset="0"/>
   <stop stop-color="rgb(6.666667%,66.27451%,90.196078%)" offset="1"/>
  </linearGradient>
 </defs>
 <g>
  <title>Layer 1</title>
  <g id="surface1">
   <path id="svg_1" fill="url(#linear0)" fill-rule="nonzero" d="m39.21875,23.26953c0,0.47266 0.04297,0.9336 0.10937,1.38672l-37.36718,21.57031c-1.21094,0.69922 -1.96094,2 -1.96094,3.39454l0,91.41406c0,1.39453 0.75,2.69531 1.96094,3.39062l79.16406,45.70703c0.59375,0.34375 1.26953,0.52344 1.95703,0.52344c0.6875,0 1.36719,-0.17969 1.96094,-0.52344l11.12109,-6.42187c0.33594,-0.19531 0.61328,-0.44141 0.86719,-0.70703c0.01172,-0.01172 0.02344,-0.02735 0.03906,-0.03906c0.1211,-0.13282 0.23828,-0.26954 0.33985,-0.41407c0.48437,-0.65234 0.78125,-1.45312 0.78125,-2.32422l0,-71.73046l34.67578,20.01953l-22.6836,13.09765c-1.87109,1.08203 -2.51562,3.48047 -1.43359,5.35157c0.69531,1.21093 1.99609,1.95703 3.39453,1.95703c0.68359,0 1.36328,-0.17969 1.95703,-0.52344l28.5586,-16.49219c0.0039,0 0.0039,0 0.00781,0c0.19922,-0.11719 0.38672,-0.25781 0.5664,-0.41015c0.03907,-0.03516 0.08204,-0.07032 0.1211,-0.10547c0.16797,-0.15625 0.32812,-0.32422 0.47265,-0.50782c0,-0.0039 0,-0.0039 0,-0.00781c0.09766,-0.125 0.1875,-0.25781 0.26954,-0.39844c0.02734,-0.04687 0.03906,-0.10156 0.0664,-0.14843c0.04688,-0.08985 0.08594,-0.1836 0.12891,-0.28125c0.05859,-0.14453 0.11719,-0.28907 0.16015,-0.4336c0.02735,-0.08593 0.04297,-0.17187 0.0586,-0.2539c0.03906,-0.16407 0.07031,-0.32422 0.08203,-0.48828c0.01172,-0.08985 0.00781,-0.17969 0.01172,-0.26954c0.0039,-0.16015 0.0039,-0.3164 -0.01172,-0.47265c-0.01172,-0.10938 -0.03516,-0.21485 -0.05469,-0.32422c-0.01953,-0.09766 -0.02344,-0.19922 -0.05078,-0.30078c-0.01172,-0.04297 -0.03125,-0.07813 -0.04687,-0.1211c-0.02735,-0.10156 -0.07422,-0.20312 -0.11329,-0.30468c-0.05859,-0.14844 -0.11718,-0.29297 -0.1914,-0.42969c-0.01563,-0.02734 -0.02344,-0.0625 -0.04297,-0.08984c-0.03125,-0.0586 -0.07813,-0.10547 -0.11719,-0.16407c-0.08203,-0.1289 -0.16797,-0.2539 -0.26562,-0.375c-0.07422,-0.08593 -0.15235,-0.16797 -0.23438,-0.24609c-0.09375,-0.09766 -0.1875,-0.19141 -0.29297,-0.27734c-0.10156,-0.08204 -0.21093,-0.15625 -0.32031,-0.23047c-0.07031,-0.04297 -0.12891,-0.10157 -0.19922,-0.14063l-44.47265,-25.67578l0,-57.37891l34.67578,20.01954l-22.6836,13.09765c-1.87109,1.07813 -2.51562,3.48047 -1.43359,5.35156c0.69531,1.20704 1.99609,1.95704 3.39453,1.95704c0.68359,0 1.36328,-0.17969 1.95703,-0.52344l28.5586,-16.49219c0.0039,0 0.0039,0 0.00781,-0.00391c0.19922,-0.11718 0.38672,-0.25781 0.5664,-0.41015c0.03907,-0.03125 0.08204,-0.06641 0.1211,-0.10156c0.16797,-0.15625 0.32812,-0.32422 0.47265,-0.51172c0,0 0,-0.00391 0,-0.00391c0.09766,-0.12891 0.1875,-0.26172 0.26954,-0.40234c0.02734,-0.04297 0.03906,-0.09375 0.0664,-0.14063c0.05078,-0.10156 0.09375,-0.20312 0.13672,-0.30859c0.05859,-0.13672 0.11328,-0.27344 0.15234,-0.41406c0.03125,-0.09375 0.04688,-0.19141 0.06641,-0.28516c0.03125,-0.15234 0.0625,-0.30078 0.07422,-0.45313c0.01172,-0.10546 0.00781,-0.20703 0.00781,-0.3125c0.00391,-0.14453 0.00391,-0.28906 -0.00781,-0.42968c-0.01172,-0.11719 -0.03906,-0.23047 -0.05859,-0.34375c-0.02735,-0.13282 -0.05079,-0.26563 -0.08985,-0.39453c-0.03125,-0.10938 -0.07812,-0.21875 -0.12109,-0.32813c-0.05469,-0.13281 -0.10938,-0.26172 -0.17969,-0.39062c-0.01953,-0.03907 -0.02734,-0.07813 -0.05078,-0.11329c-0.03516,-0.0664 -0.08594,-0.12109 -0.12891,-0.18359c-0.07422,-0.11328 -0.15234,-0.22656 -0.23828,-0.33594c-0.08203,-0.09765 -0.16797,-0.1875 -0.25781,-0.27343c-0.08594,-0.08985 -0.17578,-0.17969 -0.27344,-0.25782c-0.10937,-0.09375 -0.22265,-0.17187 -0.33984,-0.25c-0.06641,-0.04297 -0.125,-0.09375 -0.19141,-0.13672l-46.42969,-26.80468c-0.07031,-0.03907 -0.14843,-0.0625 -0.22265,-0.09766c-0.11328,-0.05859 -0.22656,-0.11328 -0.34766,-0.16016c-0.125,-0.04687 -0.2539,-0.08203 -0.38281,-0.11718c-0.11328,-0.03125 -0.22656,-0.0625 -0.34375,-0.08203c-0.14453,-0.02344 -0.28906,-0.03516 -0.4375,-0.04297c-0.07422,-0.00391 -0.14844,-0.02344 -0.22656,-0.02344c-0.03907,0 -0.07422,0.01172 -0.11328,0.01172c-0.14063,0.0039 -0.27344,0.02344 -0.41407,0.04297c-0.125,0.01562 -0.25,0.03125 -0.375,0.05859c-0.03515,0.01172 -0.07422,0.00781 -0.10547,0.01953c-0.08984,0.02344 -0.16796,0.06641 -0.2539,0.09375c-0.1211,0.04297 -0.24219,0.08203 -0.35938,0.13672c-0.125,0.05859 -0.24609,0.125 -0.36328,0.19922c-0.09375,0.05469 -0.1914,0.10937 -0.27734,0.17187c-0.1211,0.08594 -0.23438,0.1836 -0.34375,0.28125c-0.07813,0.07032 -0.15625,0.13672 -0.22656,0.21094c-0.09766,0.10156 -0.1836,0.21485 -0.26954,0.32813c-0.07031,0.09375 -0.14062,0.1875 -0.20312,0.28515c-0.02734,0.04297 -0.0625,0.07813 -0.08594,0.11719c-0.04297,0.07031 -0.0625,0.14844 -0.09765,0.21875c-0.0625,0.12109 -0.11719,0.23828 -0.16407,0.36328c-0.04687,0.125 -0.08203,0.2461 -0.11328,0.3711c-0.03515,0.12109 -0.0625,0.24218 -0.08594,0.36718c-0.01953,0.13672 -0.03125,0.26953 -0.03906,0.40625c-0.0039,0.08203 -0.02344,0.15235 -0.02344,0.23438l0,142.73047l-7.27734,4.19922l-75.24609,-43.44141l0,-86.89063l35.58984,-20.55078c1.60156,1.1211 3.53906,1.78516 5.63672,1.78516c5.42578,0 9.84375,-4.41797 9.84375,-9.84766c0,-5.42578 -4.41797,-9.84375 -9.84375,-9.84375c-5.42969,0 -9.84375,4.41797 -9.84375,9.84375"/>
   <path id="svg_2" fill="url(#linear1)" fill-rule="nonzero" d="m81.125,0.52344l-11.125,6.42187c-0.30469,0.17579 -0.56641,0.39844 -0.80859,0.64454c-0.06641,0.05859 -0.1211,0.125 -0.17969,0.1914c-0.07422,0.08594 -0.15235,0.17188 -0.21875,0.26172c-0.50391,0.66016 -0.82031,1.47656 -0.82031,2.37109l0,135.9336l-38.59375,-22.28516l0,-55.71094l27.77343,-16.11718c1.8711,-1.07813 2.51563,-3.48047 1.4336,-5.34766c-0.51953,-0.90625 -1.36719,-1.55469 -2.37891,-1.82812c-1.01172,-0.26954 -2.06641,-0.12891 -2.97266,0.39453l-29.73046,17.2539c-1.00782,0.57813 -1.64454,1.54688 -1.86329,2.60547c-0.01171,0.05469 -0.01562,0.11328 -0.02734,0.17188c-0.02734,0.17578 -0.04687,0.34765 -0.05078,0.51953c-0.00391,0.05469 -0.01563,0.10156 -0.01563,0.15234l0,60.16797c0,1.39844 0.75,2.69531 1.95704,3.39453l46.42578,26.80469c0.13281,0.07812 0.26953,0.14062 0.41015,0.20312c0.01172,0.00391 0.02344,0.01172 0.03516,0.01563c0.21094,0.08984 0.42969,0.15234 0.64844,0.20312c0.05859,0.01172 0.11328,0.02344 0.16797,0.03125c0.23046,0.04297 0.46484,0.07422 0.69921,0.07422c0,0 0.00391,-0.0039 0.00391,-0.0039c0.23438,0 0.46094,-0.02735 0.6875,-0.07032c0.0625,-0.00781 0.125,-0.01953 0.1875,-0.03515c0.21484,-0.05078 0.42578,-0.10938 0.62891,-0.19531c0.02734,-0.01172 0.05468,-0.02735 0.08203,-0.03907c0.17969,-0.08203 0.35156,-0.17578 0.51562,-0.28515c0.05078,-0.03125 0.10157,-0.0625 0.14844,-0.09375c0.36719,-0.25782 0.6875,-0.57813 0.94922,-0.95313c0.02734,-0.03906 0.05469,-0.08203 0.08203,-0.125c0.03516,-0.05469 0.07422,-0.10156 0.10938,-0.16015c0.03906,-0.07032 0.0625,-0.14454 0.09765,-0.21875c0.0586,-0.11719 0.11719,-0.23829 0.16406,-0.36329c0.04297,-0.12109 0.08204,-0.24609 0.11329,-0.36718c0.03125,-0.125 0.0625,-0.24219 0.08593,-0.3711c0.01953,-0.13672 0.03125,-0.26953 0.03907,-0.40625c0.0039,-0.07812 0.02343,-0.15234 0.02343,-0.23047l0,-140.49609l7.27344,-4.19922l75.25,43.44531l0,21.02735l-32.95312,19.02344c-1.20704,0.69921 -1.95704,2 -1.95704,3.39453c0,1.39453 0.75,2.69531 1.95704,3.39062l32.95312,19.02735l0,21.02734l-38.04297,21.96484c-1.625,-1.17968 -3.61328,-1.88672 -5.76953,-1.88672c-5.42578,0 -9.84375,4.41797 -9.84375,9.84766c0,5.42578 4.41797,9.84375 9.84375,9.84375c5.42969,0 9.84766,-4.41797 9.84766,-9.84375c0,-0.41406 -0.03516,-0.82031 -0.08594,-1.22266l39.92578,-23.05078c1.20703,-0.69531 1.96094,-1.99609 1.96094,-3.39062l0,-25.55078c0,-0.04688 -0.01172,-0.09375 -0.01563,-0.14063c-0.0039,-0.1289 -0.01953,-0.25781 -0.03906,-0.38672c-0.01562,-0.1289 -0.03516,-0.25781 -0.0625,-0.38672c-0.03125,-0.11328 -0.07031,-0.22265 -0.10547,-0.33593c-0.04297,-0.125 -0.08594,-0.25391 -0.14062,-0.375c-0.05469,-0.11328 -0.11719,-0.21875 -0.17969,-0.32813c-0.0625,-0.10547 -0.12109,-0.21484 -0.19141,-0.3125c-0.07812,-0.10937 -0.16797,-0.21094 -0.25781,-0.3125c-0.07812,-0.08984 -0.15234,-0.17578 -0.23437,-0.25781c-0.09766,-0.08984 -0.20313,-0.16797 -0.3086,-0.25c-0.10156,-0.07813 -0.20312,-0.15625 -0.30859,-0.22266c-0.04297,-0.02734 -0.07422,-0.0625 -0.11719,-0.08593l-29.03516,-16.76172l29.03516,-16.76563c0.04297,-0.02344 0.07422,-0.05859 0.11719,-0.08203c0.10156,-0.06641 0.19531,-0.13672 0.29297,-0.21094c0.10937,-0.08593 0.21875,-0.16797 0.32031,-0.26562c0.07422,-0.07031 0.14453,-0.14844 0.21484,-0.22656c0.09766,-0.10938 0.19532,-0.22266 0.28125,-0.34375c0.0625,-0.08594 0.11328,-0.17969 0.17188,-0.27344c0.07031,-0.1211 0.14062,-0.23828 0.19922,-0.36719c0.05078,-0.11719 0.08984,-0.23437 0.13281,-0.35547c0.03125,-0.08594 0.07422,-0.16406 0.09375,-0.2539c0.01172,-0.03907 0.01172,-0.07422 0.01953,-0.11329c0.03125,-0.11718 0.04297,-0.23828 0.0625,-0.36328c0.01953,-0.14062 0.03906,-0.28125 0.04297,-0.42578c0,-0.03906 0.01172,-0.07422 0.01172,-0.10937l0,-25.55078c0,-1.39454 -0.75391,-2.69532 -1.96094,-3.39454l-79.16406,-45.70312c-0.60547,-0.35156 -1.28125,-0.52344 -1.96094,-0.52344c-0.67578,0 -1.35547,0.17188 -1.95703,0.52344"/>
   <path id="svg_3" fill="rgb(5.098039%,7.058824%,22.745098%)" fill-rule="nonzero" d="m263.27734,94.63281c0,-16.65625 -6.58593,-27.5039 -20.01562,-27.5039l-15.36719,0l0,55.00781l15.36719,0c13.42969,0 20.01562,-10.58594 20.01562,-27.50391m21.69141,0c-0.12891,29.57032 -14.84766,47.78125 -47.00391,47.90625l-32.66797,0l0,-95.8164l32.66797,0c32.15625,0.13281 46.875,18.46875 47.00391,47.91015"/>
   <path id="svg_4" fill="rgb(5.098039%,7.058824%,22.745098%)" fill-rule="nonzero" d="m294.12891,71.51953l22.33593,0l0,71.01953l-22.33593,0l0,-71.01953zm22.33593,-7.49218l-22.33593,0l0,-17.30079l22.33593,0l0,17.30079zm0,0"/>
   <path id="svg_5" fill="rgb(5.098039%,7.058824%,22.745098%)" fill-rule="nonzero" d="m362.04687,119.94531c9.29688,-0.13281 14.33204,-6.19921 14.33204,-14.20703c0,-11.23437 -6.58594,-16.39843 -14.33204,-16.78515c-6.32812,-0.39063 -13.8164,3.74218 -14.33593,15.62109c-0.51563,10.58984 6.32812,15.5 14.33593,15.37109m37.32032,10.32813c0,13.30078 -1.8086,22.21094 -12.14063,29.57031c-8.00781,5.42578 -19.5,6.58985 -30.99219,6.07422c-7.8789,-0.39062 -18.07812,-2.71484 -27.63281,-8.26562l9.29688,-17.56641c8.91015,5.03516 17.30468,7.75 27.24609,6.71875c8.65234,-1.03516 11.62109,-6.07031 11.62109,-10.72266l0,-3.09765c-3.35546,3.61718 -10.71484,6.07031 -18.20703,6.07031c-15.23828,0 -33.57422,-10.19922 -32.80078,-33.44531c0.90625,-25.56641 16.27344,-36.67578 34.08985,-35.76953c7.49218,0.25781 13.17578,2.96875 16.91796,6.71484l0,-5.03516l22.60157,0l0,58.75391zm0,0"/>
   <path id="svg_6" fill="rgb(5.098039%,7.058824%,22.745098%)" fill-rule="nonzero" d="m409.8125,71.51953l22.33594,0l0,71.01953l-22.33594,0l0,-71.01953zm22.33594,-7.49218l-22.33594,0l0,-17.30079l22.33594,0l0,17.30079zm0,0"/>
   <path id="svg_7" fill="rgb(5.098039%,7.058824%,22.745098%)" fill-rule="nonzero" d="m472.69531,112.71094c0,5.42578 0.64453,8.00781 3.48828,9.03906c1.9336,0.64453 3.61328,0.51563 7.7461,-0.90625l3.74609,19.75781c-6.71875,3.10157 -17.5625,4.26563 -25.18359,1.29297c-8.91016,-3.61328 -12.13672,-11.49218 -12.13672,-25.05078l0,-25.18359l-11.6211,0l0,-20.14063l11.6211,0l0,-24.79687l22.33984,0l0,24.79687l14.46485,0l0,20.14063l-14.46485,0l0,21.05078zm0,0"/>
   <path id="svg_8" fill="rgb(5.098039%,7.058824%,22.745098%)" fill-rule="nonzero" d="m529.11719,123.6875c7.61718,0 13.42968,-3.61328 14.98047,-11.49219c0.1289,-0.51562 0.25781,-2.96875 0.25781,-3.48437c0,-12.14063 -6.45703,-18.85547 -14.72266,-18.85547c-6.97265,-0.38672 -14.33203,5.16406 -14.33203,16.78906c0,11.23047 5.9375,17.04297 13.81641,17.04297m15.7539,18.85156l0,-6.19531c-4.26172,4.39063 -10.97656,7.10156 -18.46484,7.10156c-18.85156,0 -34.08984,-11.62109 -33.44531,-36.80078c0.77343,-25.4414 16.78515,-37.32422 34.34765,-36.54687c7.48828,0.39062 13.69141,3.74219 17.5625,7.8789l0,-6.45703l22.33985,0l0,71.01953l-22.33985,0zm0,0"/>
   <path id="svg_9" fill="rgb(5.098039%,7.058824%,22.745098%)" fill-rule="nonzero" d="m577.66016,44.78906l22.46875,0l0,97.75l-22.46875,0l0,-97.75zm0,0"/>
   <path id="svg_10" fill="rgb(5.098039%,7.058824%,22.745098%)" fill-rule="nonzero" d="m634.33984,102.25391l0,20.01172l19.88672,0c9.03906,0.1289 11.625,-4.38672 11.625,-10.07032c0,-5.29687 -3.35937,-9.9414 -12.65625,-9.9414l-18.85547,0zm0,-35.25391l0,15.75l20.14844,0c5.67969,-0.38672 9.03516,-3.22656 9.03516,-8.0039c0,-4.64844 -3.48438,-7.7461 -9.8125,-7.7461l-19.3711,0zm-22.46875,75.53906l0,-95.8125l38.48438,0c24.14844,0 34.47656,9.03907 35.63672,22.72266c1.16406,8.01172 -3.09766,17.95313 -11.23047,21.44141c9.9414,4.51562 14.84765,15.88281 13.6875,26.85547c-1.67969,15.88281 -12.39844,24.79296 -33.31641,24.79296l-43.26172,0zm0,0"/>
   <path id="svg_11" fill="rgb(5.098039%,7.058824%,22.745098%)" fill-rule="nonzero" d="m697.47266,44.78906l22.46875,0l0,97.75l-22.46875,0l0,-97.75zm0,0"/>
   <path id="svg_12" fill="rgb(5.098039%,7.058824%,22.745098%)" fill-rule="nonzero" d="m766.68359,123.81641c8.65235,0 16.53125,-5.55078 16.53125,-16.91797c0,-10.84766 -7.8789,-16.91406 -16.53125,-16.91406c-8.39453,0 -16.01172,6.0664 -16.01172,16.91406c0,11.36719 7.61719,16.91797 16.01172,16.91797m0.25782,20.40625c-22.59766,0 -38.60938,-14.85156 -38.60938,-37.32422c0,-23.37109 17.42969,-37.31641 38.60938,-37.31641c21.17968,0 38.60937,13.94532 38.60937,37.31641c0,22.47266 -16.01172,37.32422 -38.60937,37.32422"/>
   <path id="svg_13" fill="rgb(5.098039%,7.058824%,22.745098%)" fill-rule="nonzero" d="m850.34766,123.81641c8.00781,0.51562 16.26953,-4.00391 16.26953,-17.04297c0,-11.75391 -7.7461,-16.78906 -14.72266,-16.78906c-8.64844,0 -14.97656,7.35937 -14.97656,18.72656c0,8.00391 4.90625,14.58984 13.42969,15.10547m4.26171,19.75781c-7.35937,0 -14.33203,-2.83984 -18.46484,-7.35937l0,6.32421l-22.21094,0l0,-95.8164l22.21094,0l0,31.38281c3.74219,-4.13281 10.58594,-7.61719 19.10938,-7.87891c18.85156,-0.90625 32.80078,12.91407 33.05859,37.19141c0.38672,25.05078 -14.58984,36.15625 -33.70313,36.15625"/>
  </g>
 </g>
</svg>