<svg width="1000" height="908" xmlns="http://www.w3.org/2000/svg" version="1.1" xml:space="preserve">
 <metadata id="metadata8">image/svg+xml</metadata>
 <defs id="defs6">
  <clipPath clipPathUnits="userSpaceOnUse" id="clipPath18">
   <path d="m-126.00001,1150.00001l1000,0l0,-1000l-1000,0l0,1000z" id="path16"/>
  </clipPath>
  <linearGradient x1="0" y1="0.5" x2="1" y2="0.5" spreadMethod="pad" id="linearGradient72">
   <stop stop-color="#3f3cd7" offset="0" id="stop68"/>
   <stop stop-color="#11a9e6" offset="1" id="stop70"/>
  </linearGradient>
  <linearGradient x1="0" y1="0.5" x2="1" y2="0.5" spreadMethod="pad" id="linearGradient92">
   <stop stop-color="#3f3cd7" offset="0" id="stop88"/>
   <stop stop-color="#11a9e6" offset="1" id="stop90"/>
  </linearGradient>
 </defs>
 <g>
  <title>Layer 1</title>
  <g id="g10" transform="matrix(1.33333 0 0 -1.33333 0 1333.33)">
   <g id="g12">
    <g id="g14" clip-path="url(#clipPath18)">
     <g id="g20">
      <path fill-rule="nonzero" fill="#0d123a" d="m68.18899,398.00081c0,17.968 -7.103,29.668 -21.588,29.668l-16.573,0l0,-59.331l16.573,0c14.485,0 21.588,11.419 21.588,29.663m23.399,0c-0.14,-31.893 -16.016,-51.534 -50.697,-51.67l-35.237,0l0,103.344l35.237,0c34.681,-0.14 50.557,-19.917 50.697,-51.674" id="path22"/>
     </g>
     <path fill-rule="nonzero" fill="#0d123a" d="m101.46499,422.93301l24.094,0l0,-76.602l-24.094,0l0,76.602zm24.093,8.078l-24.094,0l0,18.664l24.094,0l0,-18.664z" id="path24"/>
     <g id="g26">
      <path fill-rule="nonzero" fill="#0d123a" d="m174.71859,370.70291c10.029,0.14 15.46,6.684 15.46,15.322c0,12.116 -7.102,17.688 -15.46,18.104c-6.824,0.42 -14.902,-4.039 -15.46,-16.851c-0.557,-11.42 6.824,-16.715 15.46,-16.575m40.253,-11.143c0,-14.346 -1.95,-23.956 -13.093,-31.893c-8.636,-5.852 -21.032,-7.105 -33.426,-6.549c-8.498,0.421 -19.501,2.926 -29.808,8.914l10.029,18.945c9.61,-5.432 18.664,-8.358 29.389,-7.245c9.33,1.117 12.534,6.548 12.534,11.564l0,3.342c-3.62,-3.903 -11.559,-6.549 -19.638,-6.549c-16.435,0 -36.212,11.004 -35.378,36.076c0.977,27.574 17.55,39.554 36.77,38.578c8.08,-0.277 14.208,-3.202 18.246,-7.241l0,5.431l24.375,0l0,-63.373z" id="path28"/>
     </g>
     <path fill-rule="nonzero" fill="#0d123a" d="m226.23799,422.93301l24.094,0l0,-76.602l-24.094,0l0,76.602zm24.094,8.078l-24.094,0l0,18.664l24.094,0l0,-18.664z" id="path30"/>
     <g id="g32">
      <path fill-rule="nonzero" fill="#0d123a" d="m294.0627,378.50401c0,-5.852 0.696,-8.638 3.76,-9.75c2.09,-0.697 3.901,-0.557 8.358,0.976l4.039,-21.31c-7.243,-3.342 -18.943,-4.599 -27.16,-1.393c-9.611,3.899 -13.093,12.396 -13.093,27.018l0,27.162l-12.534,0l0,21.726l12.534,0l0,26.742l24.096,0l0,-26.742l15.6,0l0,-21.726l-15.6,0l0,-22.703z" id="path34"/>
     </g>
     <g id="g36">
      <path fill-rule="nonzero" fill="#0d123a" d="m354.9186,366.66421c8.217,0 14.486,3.899 16.157,12.396c0.14,0.557 0.278,3.202 0.278,3.759c0,13.092 -6.965,20.337 -15.879,20.337c-7.521,0.416 -15.458,-5.572 -15.458,-18.108c0,-12.116 6.406,-18.384 14.902,-18.384m16.991,-20.333l0,6.684c-4.595,-4.735 -11.838,-7.661 -19.915,-7.661c-20.335,0 -36.77,12.536 -36.074,39.694c0.835,27.438 18.106,40.255 37.049,39.418c8.077,-0.42 14.763,-4.039 18.94,-8.498l0,6.965l24.096,0l0,-76.602l-24.096,0z" id="path38"/>
     </g>
     <path fill-rule="nonzero" fill="#0d123a" d="m407.27499,451.76401l24.234,0l0,-105.433l-24.234,0l0,105.433z" id="path40"/>
     <g id="g42">
      <path fill-rule="nonzero" fill="#0d123a" d="m468.41082,389.78341l0,-21.586l21.448,0c9.751,-0.14 12.536,4.735 12.536,10.863c0,5.712 -3.622,10.723 -13.649,10.723l-20.335,0zm0,38.025l0,-16.991l21.728,0c6.128,0.416 9.749,3.482 9.749,8.634c0,5.015 -3.761,8.357 -10.585,8.357l-20.892,0zm-24.234,-81.478l0,103.344l41.505,0c26.046,0 37.187,-9.75 38.44,-24.512c1.255,-8.637 -3.343,-19.36 -12.116,-23.123c10.725,-4.871 16.016,-17.131 14.763,-28.967c-1.811,-17.131 -13.37,-26.742 -35.933,-26.742l-46.659,0z" id="path44"/>
     </g>
     <path fill-rule="nonzero" fill="#0d123a" d="m536.50299,451.76401l24.234,0l0,-105.433l-24.234,0l0,105.433z" id="path46"/>
     <g id="g48">
      <path fill-rule="nonzero" fill="#0d123a" d="m611.15221,366.52411c9.33,0 17.828,5.988 17.828,18.248c0,11.7 -8.498,18.244 -17.828,18.244c-9.054,0 -17.271,-6.544 -17.271,-18.244c0,-12.26 8.217,-18.248 17.271,-18.248m0.278,-22.007c-24.374,0 -41.645,16.019 -41.645,40.255c0,25.209 18.802,40.251 41.645,40.251c22.841,0 41.644,-15.042 41.644,-40.251c0,-24.236 -17.27,-40.255 -41.644,-40.255" id="path50"/>
     </g>
     <g id="g52">
      <path fill-rule="nonzero" fill="#0d123a" d="m701.38921,366.52411c8.636,-0.556 17.55,4.319 17.55,18.384c0,12.677 -8.358,18.108 -15.879,18.108c-9.33,0 -16.157,-7.937 -16.157,-20.197c0,-8.634 5.294,-15.739 14.486,-16.295m4.597,-21.31c-7.939,0 -15.46,3.066 -19.917,7.941l0,-6.824l-23.956,0l0,103.344l23.956,0l0,-33.847c4.039,4.459 11.422,8.218 20.614,8.498c20.333,0.977 35.377,-13.929 35.655,-40.114c0.418,-27.018 -15.738,-38.998 -36.352,-38.998" id="path54"/>
     </g>
    </g>
   </g>
   <g id="g56">
    <g id="g58">
     <g id="g64">
      <g id="g66">
       <path fill="url(#linearGradient72)" d="m262.73599,939.62801c0,-1.192 0.113,-2.357 0.276,-3.505l0,0l-94.78,-54.723c-3.063,-1.768 -4.968,-5.066 -4.968,-8.605l0,0l0,-231.865c0,-3.539 1.905,-6.836 4.968,-8.605l0,0l200.796,-115.929c1.508,-0.872 3.226,-1.332 4.971,-1.332l0,0c1.744,0 3.462,0.46 4.968,1.331l0,0l28.213,16.29c0.847,0.49 1.556,1.114 2.198,1.79l0,0c0.033,0.032 0.061,0.068 0.093,0.101l0,0c0.312,0.337 0.61,0.679 0.867,1.051l0,0c1.23,1.654 1.984,3.681 1.984,5.895l0,0l0,181.939l87.956,-50.781l-57.544,-33.223c-4.746,-2.741 -6.376,-8.828 -3.637,-13.571l0,0c1.769,-3.066 5.067,-4.968 8.611,-4.968l0,0c1.74,0 3.457,0.46 4.962,1.33l0,0l72.445,41.827c0.005,0.003 0.009,0.007 0.014,0.009l0,0c0.513,0.298 0.988,0.656 1.442,1.04l0,0c0.103,0.087 0.203,0.173 0.302,0.263l0,0c0.432,0.397 0.838,0.823 1.196,1.296l0,0c0.002,0.002 0.004,0.006 0.007,0.01l0,0c0.246,0.324 0.476,0.661 0.682,1.018l0,0c0.068,0.118 0.104,0.249 0.167,0.37l0,0c0.123,0.233 0.223,0.474 0.325,0.716l0,0c0.157,0.364 0.303,0.729 0.414,1.106l0,0c0.062,0.212 0.102,0.428 0.15,0.644l0,0c0.092,0.41 0.171,0.819 0.208,1.238l0,0c0.02,0.227 0.017,0.453 0.022,0.681l0,0c0.008,0.401 0.01,0.798 -0.03,1.2l0,0c-0.028,0.273 -0.086,0.543 -0.136,0.814l0,0c-0.048,0.257 -0.06,0.515 -0.127,0.77l0,0c-0.029,0.107 -0.084,0.201 -0.116,0.308l0,0c-0.08,0.26 -0.187,0.513 -0.289,0.769l0,0c-0.148,0.375 -0.302,0.741 -0.492,1.091l0,0c-0.04,0.074 -0.059,0.154 -0.101,0.227l0,0c-0.087,0.15 -0.205,0.272 -0.298,0.416l0,0c-0.213,0.328 -0.429,0.649 -0.678,0.949l0,0c-0.185,0.225 -0.389,0.426 -0.592,0.632l0,0c-0.239,0.24 -0.477,0.478 -0.741,0.695l0,0c-0.26,0.214 -0.538,0.399 -0.819,0.586l0,0c-0.174,0.115 -0.323,0.256 -0.505,0.361l0,0l-112.798,65.124l0,145.541l87.956,-50.779l-57.544,-33.222c-4.746,-2.741 -6.376,-8.829 -3.637,-13.572l0,0c1.769,-3.065 5.067,-4.968 8.611,-4.968l0,0c1.74,0 3.457,0.46 4.962,1.331l0,0l72.445,41.826c0.005,0.003 0.009,0.008 0.014,0.01l0,0c0.513,0.297 0.988,0.655 1.442,1.039l0,0c0.103,0.087 0.203,0.173 0.302,0.264l0,0c0.432,0.396 0.838,0.822 1.196,1.295l0,0c0.002,0.003 0.004,0.007 0.007,0.01l0,0c0.246,0.325 0.476,0.661 0.682,1.018l0,0c0.068,0.117 0.1,0.243 0.163,0.361l0,0c0.132,0.255 0.24,0.516 0.35,0.78l0,0c0.147,0.349 0.289,0.695 0.393,1.054l0,0c0.07,0.238 0.112,0.481 0.164,0.725l0,0c0.08,0.383 0.159,0.763 0.193,1.148l0,0c0.025,0.264 0.017,0.527 0.021,0.792l0,0c0.003,0.364 0.008,0.725 -0.028,1.085l0,0c-0.029,0.295 -0.092,0.585 -0.148,0.879l0,0c-0.065,0.335 -0.126,0.667 -0.224,0.994l0,0c-0.085,0.281 -0.2,0.555 -0.311,0.832l0,0c-0.136,0.339 -0.275,0.672 -0.447,0.994l0,0c-0.051,0.095 -0.077,0.197 -0.131,0.291l0,0c-0.096,0.165 -0.225,0.301 -0.328,0.459l0,0c-0.192,0.293 -0.387,0.578 -0.61,0.852l0,0c-0.203,0.248 -0.423,0.475 -0.648,0.702l0,0c-0.223,0.225 -0.447,0.445 -0.695,0.651l0,0c-0.275,0.229 -0.569,0.429 -0.868,0.626l0,0c-0.168,0.111 -0.308,0.247 -0.484,0.348l0,0l-117.766,67.989c-0.181,0.104 -0.377,0.163 -0.563,0.256l0,0c-0.288,0.144 -0.575,0.283 -0.879,0.399l0,0c-0.321,0.123 -0.646,0.215 -0.975,0.303l0,0c-0.289,0.077 -0.575,0.153 -0.874,0.204l0,0c-0.366,0.063 -0.733,0.091 -1.104,0.111l0,0c-0.194,0.012 -0.376,0.059 -0.573,0.059l0,0c-0.1,0 -0.193,-0.027 -0.293,-0.03l0,0c-0.35,-0.011 -0.697,-0.057 -1.047,-0.106l0,0c-0.32,-0.044 -0.639,-0.083 -0.948,-0.157l0,0c-0.093,-0.021 -0.187,-0.021 -0.278,-0.045l0,0c-0.221,-0.06 -0.419,-0.165 -0.633,-0.238l0,0c-0.311,-0.106 -0.621,-0.208 -0.916,-0.344l0,0c-0.323,-0.146 -0.622,-0.324 -0.925,-0.502l0,0c-0.238,-0.142 -0.478,-0.276 -0.703,-0.436l0,0c-0.308,-0.219 -0.59,-0.467 -0.871,-0.72l0,0c-0.195,-0.175 -0.392,-0.345 -0.573,-0.536l0,0c-0.245,-0.259 -0.464,-0.54 -0.681,-0.826l0,0c-0.182,-0.238 -0.361,-0.474 -0.521,-0.728l0,0c-0.067,-0.106 -0.153,-0.192 -0.216,-0.3l0,0c-0.103,-0.179 -0.158,-0.371 -0.249,-0.554l0,0c-0.151,-0.301 -0.294,-0.603 -0.415,-0.922l0,0c-0.117,-0.31 -0.208,-0.622 -0.291,-0.938l0,0c-0.083,-0.308 -0.159,-0.615 -0.211,-0.934l0,0c-0.057,-0.345 -0.085,-0.686 -0.105,-1.032l0,0c-0.012,-0.198 -0.059,-0.386 -0.059,-0.588l0,0l0,-362.032l-18.452,-10.654l-190.863,110.194l0,220.392l90.279,52.124c4.053,-2.842 8.976,-4.525 14.291,-4.525l0,0c13.767,0 24.97,11.202 24.97,24.97l0,0c0,13.77 -11.203,24.971 -24.97,24.971l0,0c-13.767,0 -24.97,-11.201 -24.97,-24.971" id="path74"/>
      </g>
     </g>
    </g>
   </g>
   <g id="g76">
    <g id="g78">
     <g id="g84">
      <g id="g86">
       <path fill="url(#linearGradient92)" d="m369.03099,997.33101l-28.211,-16.288c-0.777,-0.449 -1.445,-1.019 -2.061,-1.638l0,0c-0.161,-0.154 -0.305,-0.321 -0.455,-0.485l0,0c-0.189,-0.219 -0.38,-0.432 -0.549,-0.666l0,0c-1.286,-1.674 -2.08,-3.743 -2.08,-6.012l0,0l0,-344.788l-97.892,56.519l0,141.308l70.446,40.881c4.746,2.741 6.377,8.828 3.637,13.572l0,0c-1.327,2.298 -3.47,3.942 -6.038,4.63l0,0c-2.564,0.686 -5.242,0.332 -7.54,-0.997l0,0l-75.408,-43.762c-2.555,-1.475 -4.169,-3.927 -4.723,-6.609l0,0c-0.032,-0.145 -0.048,-0.294 -0.074,-0.441l0,0c-0.07,-0.439 -0.122,-0.875 -0.134,-1.321l0,0c-0.004,-0.127 -0.037,-0.248 -0.037,-0.378l0,0l0,-152.619c0,-3.539 1.904,-6.836 4.968,-8.605l0,0l117.76,-67.991c0.334,-0.194 0.681,-0.358 1.034,-0.511l0,0c0.032,-0.014 0.06,-0.032 0.093,-0.045l0,0c0.532,-0.224 1.084,-0.386 1.646,-0.513l0,0c0.14,-0.032 0.281,-0.058 0.423,-0.084l0,0c0.583,-0.106 1.173,-0.179 1.769,-0.179l0,0c0.001,0 0.002,0 0.003,0l0,0c0.001,0 0.002,0 0.003,0l0,0c0.003,0 0.007,0.001 0.011,0.001l0,0c0.59,0 1.17,0.073 1.74,0.176l0,0c0.161,0.029 0.318,0.059 0.475,0.095l0,0c0.545,0.126 1.08,0.282 1.592,0.495l0,0c0.073,0.031 0.14,0.073 0.212,0.106l0,0c0.456,0.202 0.891,0.443 1.311,0.712l0,0c0.126,0.081 0.25,0.161 0.371,0.247l0,0c0.929,0.653 1.742,1.464 2.408,2.411l0,0c0.072,0.104 0.142,0.208 0.21,0.315l0,0c0.09,0.139 0.192,0.266 0.275,0.41l0,0c0.103,0.179 0.158,0.37 0.249,0.552l0,0c0.151,0.303 0.294,0.604 0.415,0.923l0,0c0.117,0.31 0.208,0.622 0.292,0.938l0,0c0.082,0.308 0.158,0.615 0.21,0.934l0,0c0.057,0.345 0.085,0.686 0.105,1.032l0,0c0.012,0.199 0.06,0.387 0.06,0.589l0,0l0,356.355l18.452,10.653l190.865,-110.194l0,-53.332l-83.584,-48.258c-3.063,-1.768 -4.968,-5.066 -4.968,-8.604l0,0c0,-3.539 1.905,-6.837 4.968,-8.606l0,0l83.584,-48.258l0,-53.334l-96.497,-55.713c-4.116,2.991 -9.163,4.777 -14.629,4.777l0,0c-13.768,0 -24.971,-11.201 -24.971,-24.971l0,0c0,-13.768 11.203,-24.97 24.971,-24.97l0,0c13.77,0 24.972,11.202 24.972,24.97l0,0c0,1.051 -0.086,2.08 -0.213,3.097l0,0l101.27,58.468c3.064,1.769 4.968,5.066 4.968,8.605l0,0l0,64.808c0,0.119 -0.03,0.23 -0.035,0.349l0,0c-0.012,0.332 -0.055,0.657 -0.1,0.984l0,0c-0.044,0.33 -0.087,0.658 -0.163,0.978l0,0c-0.071,0.291 -0.171,0.571 -0.267,0.856l0,0c-0.11,0.323 -0.214,0.643 -0.354,0.95l0,0c-0.132,0.288 -0.295,0.559 -0.454,0.834l0,0c-0.157,0.269 -0.305,0.541 -0.485,0.793l0,0c-0.199,0.281 -0.429,0.536 -0.658,0.797l0,0c-0.194,0.22 -0.382,0.442 -0.595,0.644l0,0c-0.243,0.231 -0.51,0.436 -0.779,0.644l0,0c-0.257,0.198 -0.511,0.393 -0.786,0.566l0,0c-0.103,0.064 -0.185,0.149 -0.292,0.21l0,0l-73.647,42.522l73.647,42.522c0.107,0.06 0.191,0.145 0.294,0.21l0,0c0.259,0.162 0.5,0.345 0.742,0.531l0,0c0.284,0.215 0.561,0.432 0.817,0.674l0,0c0.191,0.181 0.362,0.378 0.539,0.574l0,0c0.253,0.282 0.5,0.563 0.72,0.872l0,0c0.158,0.222 0.289,0.458 0.43,0.692l0,0c0.181,0.307 0.362,0.612 0.51,0.939l0,0c0.132,0.289 0.231,0.59 0.335,0.892l0,0c0.076,0.219 0.183,0.422 0.243,0.648l0,0c0.026,0.095 0.025,0.192 0.049,0.289l0,0c0.071,0.299 0.109,0.608 0.152,0.918l0,0c0.05,0.362 0.098,0.721 0.109,1.084l0,0c0.003,0.095 0.028,0.185 0.028,0.28l0,0l0,64.805c0,3.539 -1.904,6.837 -4.968,8.605l0,0l-200.798,115.929c-1.533,0.887 -3.254,1.33 -4.973,1.33l0,0c-1.718,0 -3.436,-0.443 -4.965,-1.328" id="path94"/>
      </g>
     </g>
    </g>
   </g>
  </g>
 </g>
</svg>