<svg width="127" height="20" viewBox="0 0 127 20" fill="none" xmlns="http://www.w3.org/2000/svg">
<path d="M7.84323 19.9954C6.24416 20.0447 4.65829 19.7002 3.2338 18.9942C2.01119 18.356 0.916047 17.5112 0 16.4995L3.41157 13.8859C3.86871 14.6814 4.52156 15.3552 5.31206 15.8472C6.06356 16.3005 6.93277 16.5367 7.81783 16.5283C8.26374 16.5372 8.70741 16.4648 9.12574 16.3149C9.48104 16.1849 9.80723 15.9899 10.0866 15.7405C10.3452 15.5136 10.5478 15.2331 10.6792 14.9199C10.8063 14.6061 10.8724 14.2722 10.8739 13.9351C10.8842 13.5575 10.7568 13.1884 10.5141 12.8929C10.2543 12.5916 9.93663 12.3422 9.57865 12.1585C9.15251 11.9371 8.70617 11.7545 8.24534 11.6128C7.73741 11.4528 7.22102 11.2927 6.6877 11.1327C6.32387 11.0071 5.95883 10.8779 5.59453 10.749C5.28081 10.6379 4.96735 10.527 4.65599 10.4188C3.99498 10.1815 3.37651 9.84508 2.82322 9.42174C2.2784 8.99812 1.82773 8.47192 1.49838 7.87488C1.13578 7.15705 0.961323 6.36363 0.990457 5.56485C0.98375 4.80773 1.15301 4.05886 1.48568 3.37381C1.81858 2.69489 2.2927 2.09001 2.87825 1.59718C3.50001 1.07576 4.21816 0.673386 4.99461 0.411393C5.85348 0.125026 6.75733 -0.0138264 7.66546 0.0010853C8.40081 -0.00683402 9.13478 0.0647278 9.85377 0.214445C10.4658 0.346885 11.0606 0.545057 11.6273 0.805288C12.1578 1.04087 12.6591 1.33406 13.1214 1.67924C13.5695 2.02972 13.9937 2.40799 14.3912 2.81169L11.3098 5.08069C10.9243 4.48926 10.3859 4.00583 9.74809 3.67835C9.1103 3.35087 8.39527 3.19072 7.67392 3.21379C6.91987 3.16366 6.17423 3.39238 5.58719 3.85387C5.35733 4.05059 5.17431 4.29337 5.0508 4.56541C4.92729 4.83746 4.86624 5.13227 4.87186 5.42945C4.86019 5.78496 4.97696 6.13326 5.20201 6.41419C5.4498 6.70433 5.75305 6.94535 6.09512 7.12402C6.51321 7.3438 6.95096 7.52645 7.40303 7.66973L8.97337 8.19082C9.6506 8.40418 10.3349 8.649 11.0262 8.92527C11.6978 9.19524 12.3274 9.55427 12.8971 9.99207C13.4597 10.4359 13.9234 10.9859 14.26 11.6087C14.6244 12.3322 14.803 13.1303 14.7807 13.9351C14.7779 14.7131 14.616 15.4829 14.3043 16.1999C13.9926 16.9169 13.5373 17.5668 12.9648 18.112C12.3369 18.6968 11.5981 19.158 10.7892 19.4702C9.85274 19.8325 8.8514 20.011 7.84323 19.9954Z" fill="#7E00FF"/>
<path d="M24.3889 19.9954C22.7899 20.0447 21.204 19.7002 19.7795 18.9942C18.5438 18.3331 17.4366 17.468 16.5076 16.438L19.9784 13.8859C20.4343 14.6823 21.0874 15.3563 21.8789 15.8472C22.6284 16.3014 23.4966 16.5378 24.3805 16.5283C24.8264 16.5372 25.27 16.4648 25.6884 16.3149C26.0448 16.1847 26.3724 15.9897 26.6534 15.7405C26.9108 15.5125 27.1132 15.2323 27.246 14.9199C27.3719 14.6059 27.4364 14.272 27.4365 13.9351C27.4481 13.558 27.3222 13.189 27.0809 12.8929C26.8202 12.5926 26.5027 12.3433 26.1455 12.1585C25.7175 11.9379 25.2699 11.7552 24.808 11.6128C24.3043 11.4528 23.7837 11.2927 23.2546 11.1327C22.5731 10.9194 21.8959 10.6855 21.2144 10.4393C20.5464 10.1967 19.9221 9.85325 19.3647 9.42174C18.8196 8.99953 18.37 8.47296 18.0441 7.87489C17.6815 7.15705 17.507 6.36363 17.5362 5.56486C17.5295 4.80773 17.6987 4.05886 18.0314 3.37381C18.3627 2.69508 18.8354 2.09018 19.4197 1.59718C20.0424 1.07705 20.7603 0.674825 21.5361 0.411396C22.3935 0.125011 23.2959 -0.0138494 24.2027 0.00108893C24.938 -0.00683038 25.672 0.0647314 26.391 0.214449C27.0056 0.347219 27.6032 0.545367 28.173 0.805291C28.7023 1.04666 29.2009 1.34683 29.6587 1.69976C30.1057 2.05136 30.5298 2.42958 30.9285 2.83221L27.8428 5.10121C27.4583 4.50982 26.9207 4.02632 26.2835 3.6988C25.6464 3.37127 24.9319 3.21114 24.2112 3.23431C23.4554 3.18061 22.7071 3.40967 22.1202 3.87439C21.8903 4.0711 21.7073 4.31389 21.5838 4.58593C21.4603 4.85798 21.3992 5.15279 21.4049 5.44997C21.3932 5.80548 21.51 6.15378 21.735 6.43471C21.9828 6.72484 22.2861 6.96587 22.6281 7.14454C23.0462 7.36432 23.484 7.54697 23.936 7.69025L25.5191 8.19082C26.1963 8.40418 26.8792 8.649 27.5677 8.92527C28.2397 9.19428 28.8695 9.55338 29.4386 9.99207C30.0023 10.4347 30.4662 10.985 30.8015 11.6087C31.1658 12.3322 31.3444 13.1303 31.3221 13.9351C31.3219 14.7049 31.1622 15.4667 30.8523 16.1754C30.5415 16.9026 30.0822 17.5613 29.5021 18.1121C28.8758 18.6967 28.1383 19.158 27.3307 19.4702C26.3955 19.8319 25.3957 20.0104 24.3889 19.9954Z" fill="#7E00FF"/>
<path d="M47.1991 3.71873H38.014V8.25673H47.1991V11.7238H38.014V19.7289H34.2723V0.251634H47.1991V3.71873Z" fill="#7E00FF"/>
<path d="M55.4486 16.6147L56.7185 15.6505C57.273 16.501 58.0459 17.1974 58.9615 17.6714C59.8771 18.1453 60.904 18.3807 61.9416 18.3544C64.5955 18.3544 66.6315 16.7706 66.6315 14.3539C66.6315 11.786 64.273 11.023 61.7325 10.2011L61.6453 10.1729C58.966 9.35225 56.1428 8.30186 56.1428 5.05633C56.1428 2.27855 58.6824 0.251634 61.9543 0.251634C64.6463 0.251634 66.4537 1.26509 67.7532 2.85708L66.5468 3.75976C65.5014 2.32779 64.058 1.57693 61.9924 1.57693C59.6094 1.57693 57.7597 3.0048 57.7597 5.05633C57.7597 7.40884 59.9126 8.11279 62.3014 8.8939C62.4124 8.93021 62.5239 8.96668 62.6358 9.00349C65.3701 9.91437 68.2103 10.9524 68.2103 14.3375C68.2103 17.2999 65.6368 19.7125 61.967 19.7125C60.7029 19.7467 59.4492 19.4826 58.3137 18.9429C57.1782 18.4033 56.195 17.6043 55.4486 16.6147Z" fill="#7E00FF"/>
<path fill-rule="evenodd" clip-rule="evenodd" d="M91.0021 4.57884C89.8983 6.18132 89.3096 8.06515 89.3104 9.99203C89.3115 12.574 90.3701 15.0499 92.2535 16.8756C94.1369 18.7014 96.6911 19.7275 99.3546 19.7286C101.342 19.7294 103.286 19.1587 104.939 18.0887C106.592 17.0187 107.881 15.4975 108.642 13.7174C109.403 11.9374 109.602 9.97851 109.214 8.08862C108.827 6.19872 107.87 4.46272 106.464 3.10021C105.059 1.73771 103.268 0.809911 101.318 0.434195C99.3686 0.0584792 97.3478 0.251723 95.5115 0.989482C93.6753 1.72724 92.1059 2.97637 91.0021 4.57884ZM105.343 4.17635C106.935 5.71876 107.829 7.81072 107.829 9.99203C107.829 12.1733 106.935 14.2653 105.343 15.8077C103.752 17.3501 101.594 18.2166 99.3441 18.2166C97.0938 18.2166 94.9358 17.3501 93.3446 15.8077C91.7535 14.2653 90.8596 12.1733 90.8596 9.99203C90.8596 7.81072 91.7535 5.71876 93.3446 4.17635C94.9358 2.63394 97.0938 1.76742 99.3441 1.76742C101.594 1.76742 103.752 2.63394 105.343 4.17635Z" fill="#7E00FF"/>
<path fill-rule="evenodd" clip-rule="evenodd" d="M112.531 0.510079H119.21C123.523 0.510079 126.364 3.29196 126.364 6.9519C126.364 10.6118 123.523 13.4183 119.21 13.4183H113.979V19.4704H112.531V0.510079ZM113.979 1.80255V12.1013H119.198C122.749 12.1013 124.946 9.83226 124.946 6.96011C124.946 4.00179 122.766 1.81075 119.198 1.81075L113.979 1.80255Z" fill="#7E00FF"/>
<path d="M84.447 0.510079H86.0004V19.4704H84.447V10.7062H73.1414V19.4704H71.588V0.510079H73.1414V9.27835H84.447V0.510079Z" fill="#7E00FF"/>
</svg>
