<svg xmlns="http://www.w3.org/2000/svg" width="2000.000000pt" height="720.000000pt" version="1.0" viewBox="0 0 2000.000000 720.000000"><path d="M283.8 30.2C237.5 81.4 222.3 98.6 198 128 132.4 207 89.7 272.1 61 336.4 15.6 438.3 8.9 528.3 41.6 593.5c17.1 34 47.1 64.9 81.4 83.7 23.3 12.8 56.9 22.9 90 27 17.7 2.2 67.7 1.6 89.5-1 65.7-8 133.7-26.3 211-56.7 31.1-12.2 42.5-17.1 587.5-250.3C1781.5 105 1978 20.7 1974.5 21.5c-3.4.7-16.4 4.2-693 184-450.7 119.8-625.6 166.3-708 188-39.2 10.4-65.3 15.4-103 19.7-6.7.8-22.9 1.3-41.5 1.2-33.6 0-47.1-1.4-70.2-7.3-32.1-8.1-54.5-20.4-77.1-42.1-31.5-30.3-47.8-66.3-51.7-114-3-36.1 4.7-84.4 20.5-130 11.7-33.4 32.5-77.8 50.7-107.8 1.1-1.7 1.7-3.2 1.4-3.2-.2 0-8.7 9.1-18.8 20.2z"/></svg>