<svg xmlns="http://www.w3.org/2000/svg" xml:space="preserve" width="850.39px" height="201.26px" x="0px" y="0px" viewBox="0 0 850.39 201.26"><g fill="#004179"><path d="m78.31 111-21.227 49.238L50.348 111H22L2 197h21.213l13.412-59.946L44.26 197h17.017l25.207-59.931L83 196.988V197h22l4-86zM127 111h24l-12.499 86H115M219.001 153.571c4.667-5.833 5.833-14.084 5.833-20s-1.333-11.333-6.333-16.333-15.417-6.333-21-6.333-32.709-.024-32.709-.024L152.334 197H174l6.001-41.631L197.834 197H221l-17.499-36.179s10.834-1.417 15.5-7.25zm-17.5-16.666c0 13.584-13.583 12.916-13.583 12.916l-7.083-.25 3.167-22.333s-4.5-.083 6.833-.083 10.666 9.75 10.666 9.75zM290.251 111H261l-38 86h23.104l6.981-18h26.394l2.602 18H305l-14.749-86zM259 162l13.584-31.916L277 162h-18zM334 178l2.256-16H367l2.256-17H339l-.344-.031L341 128h32.777L376 111h-55l-12 86h55.756l2.484-19zM419.587 155.75l18.417-17.167s14.719 4.151 25.96 5.728L458.252 111H429l-38 86h23.104l6.981-18h26.394l2.602 18H473l-6.42-37.438c-12.157-.642-36.668-2.091-46.993-3.812zM512.443 163.491c3.435 3.622 3.474 7.76 3.474 7.76 0 8.834-9.25 7.833-9.25 7.833-11.333 0-22.5-12.083-22.5-12.083l-11 18.333c12.667 11 23.333 14.417 34.333 14.417s17.75-3.584 23.417-8.667 9.75-12.75 9.75-24.583c0-1.024-.074-1.989-.183-2.929l-28.041-.081zM531.673 149.085c-2.779-2.056-6.115-3.858-9.923-5.584-11.584-5.25-10.5-10.334-10.5-10.334-.167-1.25.834-7.416 8.084-7.583s16.333 7.833 16.333 7.833l8.833-16.833c-5.75-5.083-15.416-9.25-26.833-9.25s-17.5 3.667-24.75 9.833-7.333 20.75-7.333 20.75c0 3.707.795 6.772 2.042 9.313 7.234.495 31.341 2.057 44.047 1.855zM595.54 147.009c-2.055-1.231-4.318-2.388-6.79-3.508-11.584-5.25-10.5-10.334-10.5-10.334-.167-1.25.834-7.416 8.084-7.583s16.333 7.833 16.333 7.833l8.833-16.833c-5.75-5.083-15.416-9.25-26.833-9.25s-17.5 3.667-24.75 9.833-7.333 20.75-7.333 20.75c0 4.509 1.171 8.074 2.909 10.891 7.792-.081 26.962-.417 40.047-1.799zM576.095 160.899c6.762 3.835 6.822 10.352 6.822 10.352 0 8.834-9.25 7.833-9.25 7.833-11.333 0-22.5-12.083-22.5-12.083l-11 18.333c12.667 11 23.333 14.417 34.333 14.417s17.75-3.584 23.417-8.667 9.75-12.75 9.75-24.583c0-3.692-.714-6.808-2.049-9.507l-29.523 3.905zM654 162h17l2.256-17h-8.15l-46.353 10.769L613 197h55.756l2.484-19H638l2.256-16zM625 111l-4.646 33.3c5.131-.61 15.413-1.911 22.859-3.359L645 128h32.777L680 111h-55zM739.876 111H688l-3.166 20.25.478.016c5.991-1.678 34.643-9.966 54.564-20.266zM715.918 125.583c-5.954 2.168-12.23 4.31-17.686 6.12l3.852.13L693 197h24.584L727 132h17.084l2.827-20.359c-2.632 1.382-17.119 8.889-30.993 13.942z"/><path d="M698.232 131.703C587.132 169.74 465.254 159.5 465.254 159.5l-.921 6.333c54.667 4 103.667-1 144.667-5.5s92.5-23.5 92.5-23.5l5.167-3-.834-3-7 1 2.147-.742c-.25-.017-.501-.038-.756-.07l-1.992.682z"/></g><path fill="#F6821F" d="m755.084 104.417 1.25 1.584S835.723 67.534 849.111.767L821.25 14.125s-4.332 43.709-66.166 90.292z"/></svg>