<svg width="161" height="22" viewBox="0 0 161 22" fill="none" xmlns="http://www.w3.org/2000/svg">
<g clip-path="url(#clip0_4917_11369)">
<path fill-rule="evenodd" clip-rule="evenodd" d="M14.4074 0.00168051H21.7483C21.779 -0.00161854 21.8099 0.00120478 21.8395 0.00998156C21.869 0.0187583 21.8965 0.0333137 21.9204 0.0528059C21.946 0.0741881 21.9661 0.101375 21.979 0.132097C21.992 0.162819 21.9974 0.196188 21.9948 0.229422V7.54264C21.9977 7.60076 21.9828 7.65837 21.952 7.70778C21.9213 7.7572 21.8762 7.79607 21.8227 7.81918C21.7915 7.83427 21.7574 7.8422 21.7227 7.84241C21.6433 7.84189 21.5673 7.81018 21.5111 7.75411L19.0742 5.31869L19.0487 5.29313L11.0614 13.2779C11.0326 13.3046 10.9948 13.3194 10.9556 13.3194C10.9163 13.3194 10.8785 13.3046 10.8497 13.2779L7.6432 10.0733L7.61762 10.0478L2.50201 15.1603C2.47387 15.1873 2.43638 15.2023 2.39738 15.2023C2.35837 15.2023 2.32088 15.1873 2.29274 15.1603L0.0465235 12.9154C0.0185421 12.8878 0.00265643 12.8502 0.00234271 12.8108C0.00302381 12.7709 0.0188094 12.7327 0.0465235 12.7039L7.51763 5.24665C7.53127 5.23274 7.54755 5.22169 7.56552 5.21414C7.58349 5.2066 7.60278 5.20271 7.62227 5.20271C7.64176 5.20271 7.66105 5.2066 7.67902 5.21414C7.69699 5.22169 7.71327 5.23274 7.72691 5.24665L10.9335 8.45359L10.959 8.47915L16.5699 2.8763L16.5955 2.85075L14.1958 0.466454C14.1535 0.427016 14.1245 0.375418 14.1129 0.318798C14.1012 0.262177 14.1074 0.203334 14.1307 0.150408C14.1563 0.100502 14.1965 0.0595536 14.2459 0.0329912C14.2953 0.00642877 14.3516 -0.00449245 14.4074 0.00168051ZM20.2183 9.04618L19.0719 7.8703L15.9049 11.0772V21.5161C15.8988 21.5748 15.9047 21.6341 15.9222 21.6904C15.9397 21.7468 15.9684 21.799 16.0067 21.844C16.0449 21.8889 16.0919 21.9257 16.1447 21.952C16.1975 21.9783 16.2552 21.9936 16.3141 21.9971H21.5018C21.6304 21.996 21.7537 21.9454 21.8459 21.8558C21.9382 21.7662 21.9923 21.6445 21.9971 21.5161V9.66433C21.9114 9.67475 21.8253 9.68018 21.739 9.68059C21.1683 9.67725 20.6219 9.44932 20.2183 9.04618ZM7.91523 12.9572L9.54292 14.584C9.7239 14.7676 9.93965 14.9133 10.1776 15.0126C10.4155 15.112 10.6709 15.163 10.9288 15.1626C11.4631 15.1653 11.9769 14.9574 12.3588 14.584L14.0842 12.8922V21.5114C14.0704 21.6431 14.0084 21.7651 13.9101 21.8539C13.8118 21.9427 13.6842 21.992 13.5517 21.9924H8.364C8.30292 21.9903 8.24285 21.9762 8.18723 21.9509C8.13161 21.9256 8.08152 21.8896 8.03984 21.8449C7.99816 21.8002 7.9657 21.7478 7.94432 21.6905C7.92294 21.6333 7.91305 21.5725 7.91523 21.5114V12.9572ZM0.00231503 21.5044V15.4763L0.976606 16.4779C1.15431 16.6613 1.36717 16.8071 1.60248 16.9065C1.83778 17.0059 2.09072 17.057 2.34619 17.0566C2.87498 17.0568 3.38239 16.8479 3.75763 16.4756L6.09686 14.1517V21.5044C6.09152 21.6327 6.0372 21.7541 5.94508 21.8435C5.85296 21.933 5.73003 21.9838 5.60158 21.9855H0.411564C0.352624 21.982 0.294995 21.9667 0.242153 21.9403C0.189312 21.914 0.142352 21.8773 0.104108 21.8323C0.0658638 21.7874 0.0371282 21.7351 0.0196332 21.6788C0.00213826 21.6224 -0.0037531 21.5631 0.00231503 21.5044Z" fill="#E21414"/>
<path fill-rule="evenodd" clip-rule="evenodd" d="M124.798 2.80814H126.783V19.519H124.798V2.80814ZM88.4566 2.8128H88.438V2.82905V8.33201H85.5953H85.5766V8.35058V9.98289V10.0015H85.5953H88.48V19.5051V19.5237H88.4963H90.4039H90.4225V19.5051V2.82905V2.8128H90.4039H88.4566ZM53.7591 12.1678V12.1492H53.7777H56.9842V2.84761V2.83136H57.0029H58.9711H58.9874V2.84761V15.8573V15.8759H58.9711H57.0029H56.9842V15.8573V13.691H53.7777H53.7591V13.6747V12.1678ZM32.039 9.55796H32.025L30.7774 8.28787L30.761 8.27162L30.782 8.26001L30.9639 8.15088C31.8267 7.63543 32.6591 7.07105 33.4568 6.46052C34.1493 5.9304 34.7625 5.30497 35.2781 4.60298H31.1155V2.98924H43.0413V4.60298H38.881C39.3966 5.30499 40.0098 5.93043 40.7023 6.46052C41.4989 7.07156 42.3305 7.63597 43.1929 8.15088L43.3771 8.26001L43.3957 8.27162L43.3794 8.28787L42.1318 9.55796H42.1201L42.0082 9.49295C41.6048 9.26076 41.1804 9.0007 40.7489 8.71743C40.2916 8.41799 39.8539 8.08994 39.4384 7.73525C38.9867 7.36063 38.5554 6.96224 38.1464 6.54179C37.8456 6.23065 37.3536 5.63856 37.0784 5.30188C36.8056 5.63856 36.3158 6.23065 36.0127 6.54179C35.6027 6.96287 35.1698 7.36129 34.7161 7.73525C34.3026 8.09041 33.8663 8.41849 33.4102 8.71743C32.9764 9.0007 32.5543 9.26076 32.1509 9.49295L32.039 9.55796ZM29.5041 10.3915H29.4855V10.4101V11.989V12.0053H29.5041H44.3938H44.4125V11.989V10.4101V10.3915H44.3938H29.5041ZM40.4295 13.6585C39.9193 13.3732 39.3691 13.1658 38.7971 13.0432C38.2206 12.9145 37.6318 12.8491 37.0411 12.8481C36.4343 12.8491 35.8301 12.9272 35.2431 13.0803C34.6858 13.2203 34.1556 13.451 33.6737 13.763C33.2206 14.0601 32.8327 14.4455 32.5334 14.8961C32.2302 15.3683 32.0685 15.9168 32.067 16.4773C32.0641 17.0672 32.2326 17.6453 32.552 18.1421C32.8542 18.5971 33.2521 18.9813 33.718 19.2682C34.2122 19.5675 34.7516 19.7854 35.3154 19.9137C36.4997 20.1954 37.734 20.1954 38.9183 19.9137C39.4859 19.7799 40.0289 19.5582 40.5274 19.2566C40.9954 18.9645 41.3935 18.5738 41.6934 18.1119C41.9928 17.6273 42.1458 17.0671 42.1341 16.4982C42.1368 15.8983 41.9651 15.3104 41.6398 14.8055C41.3271 14.3382 40.9136 13.9463 40.4295 13.6585ZM34.3896 15.5717C34.5736 15.311 34.8123 15.0931 35.0892 14.9332C35.3916 14.7674 35.7169 14.6469 36.0547 14.5756C36.4047 14.4988 36.7619 14.4583 37.1204 14.4549C37.493 14.455 37.8645 14.4963 38.2281 14.578C38.5617 14.6503 38.8825 14.7725 39.1795 14.9402C39.4437 15.1016 39.6684 15.3198 39.8371 15.5787C40.0014 15.8525 40.0824 16.1679 40.0703 16.4866C40.0831 16.8154 39.9926 17.1401 39.8115 17.4154C39.633 17.6718 39.4036 17.8891 39.1375 18.0539C38.8334 18.2206 38.5043 18.3374 38.1628 18.3998C37.8135 18.4701 37.4581 18.5058 37.1017 18.5067C36.738 18.5065 36.3754 18.4684 36.0197 18.3929C35.6832 18.3253 35.3611 18.1996 35.0682 18.0214C34.7949 17.863 34.5601 17.6465 34.3803 17.3875C34.2079 17.1225 34.1209 16.8114 34.1308 16.4959C34.1192 16.1686 34.2096 15.8458 34.3896 15.5717ZM48.7267 13.6353V13.6538H50.6459V10.8327H56.2893V9.21897H53.8454C54.197 8.27618 54.4533 7.30077 54.6103 6.30727C54.7286 5.31869 54.7862 4.32382 54.7828 3.32824V3.14249H46.0752V4.79338H52.7703C52.7503 5.34555 52.6973 5.89603 52.6117 6.44194C52.4352 7.39534 52.1634 8.32876 51.8002 9.22825H45.2567V10.842H48.7267V13.6353ZM49.9603 17.8078V14.29V14.2715H49.944H47.9758H47.9571V14.29V19.4958V19.5144H47.9758H59.1693H59.1879V19.4958V17.8263V17.8078H59.1693H49.9603ZM73.9844 8.91711H73.9657V8.9264H62.1822V7.30106H64.1177V4.61459H62.1822V2.98924H73.9844V4.61459H71.9882V7.29177H73.9844V8.91711ZM70.0456 7.44501V4.75623H66.0603V7.44501H70.0456ZM60.5661 10.0688H60.5475V10.085V11.6639V11.6825H60.5661H75.4582H75.4768V11.6639V10.085V10.0688H75.4582H60.5661ZM64.7287 16.9417V17.9076H73.6042H73.6206V17.9262V19.5051V19.5237H73.6042H62.8445H62.8258V19.5051V15.3999V15.3813H62.8445H71.4961V14.3968H62.8445H62.8258V14.3783V12.8365V12.8179H62.8445H73.3617H73.378V12.8365V16.9231V16.9417H73.3617H64.7287ZM79.2337 9.99448V13.6051H86.2459H86.2646V13.6213V15.2002V15.2188H86.2459H77.2468H77.2282V15.2002V8.39932V8.38075H77.2468H82.8949V4.76552H77.2468H77.2282V4.74694V3.16803V3.15178H77.2468H84.8794H84.8981V3.16803V9.97823V9.99448H84.8794H79.2337ZM107.187 15.2351H92.2764V16.9417H107.201V15.2351H107.187ZM102.558 6.09831C103.078 6.72755 103.678 7.38465 104.335 8.04872C104.99 8.70956 105.684 9.3299 106.415 9.90626L106.572 10.0293L105.004 11.2553L104.906 11.1787C104.795 11.0904 104.531 10.8722 104.107 10.5169C103.682 10.1617 103.164 9.69729 102.616 9.15396C102.068 8.61063 101.485 7.99299 100.902 7.29642C100.467 6.78215 100.066 6.23913 99.7038 5.67107L99.6805 5.63624L99.6595 5.67107C99.298 6.2391 98.8983 6.78212 98.4632 7.29642C97.8779 7.99299 97.3065 8.60598 96.7492 9.15396C96.1919 9.70193 95.6718 10.1733 95.2591 10.5169C94.8463 10.8606 94.5688 11.0904 94.4592 11.1787L94.3612 11.2553L92.7941 10.0293L92.9504 9.90626C93.6788 9.32968 94.3711 8.70934 95.0235 8.04872C95.6811 7.38465 96.2781 6.72754 96.7982 6.10062C97.2598 5.55865 97.6903 4.9912 98.0878 4.40098C98.3287 4.06158 98.5291 3.69533 98.6847 3.30967L98.7314 3.14946H100.62L100.672 3.30967C100.828 3.69527 101.029 4.06149 101.271 4.40098C101.667 4.99097 102.097 5.55769 102.558 6.09831ZM134.581 3.12392H132.522C132.522 3.12392 131.577 6.66949 128.254 9.90393L129.674 11.0904C129.674 11.0904 132.216 8.75226 133.55 5.85914C134.886 8.75226 137.428 11.0904 137.428 11.0904L138.846 9.90393C135.53 6.66949 134.581 3.12392 134.581 3.12392ZM155.135 4.80499H151.992C152.818 6.76643 154.037 8.53995 155.573 10.0177L154.156 11.2042C152.654 9.76142 151.42 8.06592 150.511 6.19582C149.602 8.06286 148.369 9.75526 146.868 11.1949L145.448 10.0084C146.985 8.53469 148.204 6.76407 149.03 4.80499H145.889V3.19358H155.135V4.80499ZM122.21 3.14946H120.209V7.91637H115.795V3.14946H113.791V15.2235H114.743V15.2397H121.62V15.2235H122.21V3.14946ZM120.209 9.53242V13.619H115.795V9.53242H120.209ZM144.331 6.66253H141.812V2.80814H139.828V12.1724H141.812V8.33199H144.331V6.66253ZM158.481 6.66253H161V8.33199H158.481V12.1724H156.497V2.80814H158.481V6.66253ZM137.228 12.8156C134.695 12.8156 132.643 14.1531 132.643 16.2846C132.643 18.4904 134.695 19.7558 137.228 19.7558C139.76 19.7558 141.812 18.5322 141.812 16.2846C141.812 14.1136 139.76 12.8156 137.228 12.8156ZM137.228 18.2327C135.808 18.2327 134.663 17.5222 134.663 16.2846C134.663 15.0888 135.815 14.3388 137.228 14.3388C138.641 14.3388 139.793 15.0679 139.793 16.2846C139.8 17.5454 138.648 18.2327 137.228 18.2327ZM149.333 16.2846C149.333 14.1531 151.385 12.8156 153.918 12.8156C156.448 12.8156 158.5 14.1136 158.5 16.2846C158.5 18.5322 156.45 19.7558 153.918 19.7558C151.385 19.7558 149.333 18.4904 149.333 16.2846ZM151.353 16.2846C151.353 17.5222 152.498 18.2327 153.918 18.2327C155.338 18.2327 156.488 17.5454 156.483 16.2846C156.483 15.0679 155.331 14.3388 153.918 14.3388C152.505 14.3388 151.353 15.0888 151.353 16.2846Z" fill="#1E1E1E"/>
</g>
<defs>
<clipPath id="clip0_4917_11369">
<rect width="161" height="21.9971" fill="white"/>
</clipPath>
</defs>
</svg>
